<?xml version="1.0" encoding="utf-8"?>
<svg width="900px" height="300px" viewBox="0 0 900 300" version="1.1" xmlns:xlink="http://www.w3.org/1999/xlink" xmlns="http://www.w3.org/2000/svg">
  <defs>
    <path d="M0 0L900 0L900 300L0 300L0 0Z" id="path_1" />
    <clipPath id="clip_1">
      <use xlink:href="#path_1" />
    </clipPath>
  </defs>
  <g id="Frame" clip-path="url(#clip_1)">
    <path d="M0 0L900 0L900 300L0 300L0 0Z" id="Frame" fill="#FFA52A" fill-rule="evenodd" stroke="none" />
    <path d="M0 0L900 0L900 300L0 300L0 0Z" id="Rectangle" fill="#1F72DE" fill-rule="evenodd" stroke="none" />
    <g id="I-blend-artistry-and-engineeri" transform="translate(69 82)">
      <g id="I-blend-artistry-and" fill="#FFFFFF">
        <path d="M175.708 9.17542Q174.54 9.17543 173.695 8.38618Q172.85 7.59695 172.85 6.49076Q172.85 5.38459 173.695 4.60156Q174.54 3.81854 175.708 3.81853Q176.889 3.81854 177.734 4.60156Q178.58 5.38459 178.58 6.49076Q178.58 7.59695 177.734 8.38618Q176.889 9.17543 175.708 9.17542ZM7.59411 5.27273L7.59411 30.7273L2.21236 30.7273L2.21236 5.27273L7.59411 5.27273ZM20.1474 30.7273L20.1474 5.27273L25.4421 5.27273L25.4421 14.843L25.6037 14.843Q25.9641 14.06 26.6229 13.2646Q27.2816 12.4691 28.3629 11.9284Q29.4442 11.3878 31.0352 11.3878Q33.1357 11.3878 34.8881 12.4753Q36.6406 13.5629 37.7033 15.7441Q38.766 17.9254 38.766 21.2067Q38.766 24.4009 37.7344 26.5946Q36.7028 28.7884 34.9503 29.9132Q33.1978 31.038 31.0227 31.038Q29.4815 31.038 28.4064 30.5284Q27.3313 30.0188 26.6539 29.242Q25.9766 28.4652 25.6037 27.6697L25.3675 27.6697L25.3675 30.7273L20.1474 30.7273ZM47.5781 30.7273L47.5781 5.27273L42.2834 5.27273L42.2834 30.7273L47.5781 30.7273ZM101.52 31.038Q99.3448 31.038 97.5923 29.9132Q95.8398 28.7884 94.8082 26.5946Q93.7766 24.4009 93.7766 21.2067Q93.7766 17.9254 94.8393 15.7441Q95.902 13.5629 97.6607 12.4753Q99.4194 11.3878 101.507 11.3878Q103.111 11.3878 104.186 11.9284Q105.261 12.4691 105.926 13.2646Q106.591 14.06 106.939 14.843L107.101 14.843L107.101 5.27273L112.383 5.27273L112.383 30.7273L107.163 30.7273L107.163 27.6697L106.939 27.6697Q106.578 28.4652 105.895 29.242Q105.211 30.0188 104.136 30.5284Q103.061 31.038 101.52 31.038ZM303.938 29.9132Q305.691 31.038 307.866 31.038Q309.407 31.038 310.482 30.5284Q311.557 30.0188 312.241 29.242Q312.924 28.4652 313.285 27.6697L313.509 27.6697L313.509 30.7273L318.729 30.7273L318.729 5.27273L313.446 5.27273L313.446 14.843L313.285 14.843Q312.937 14.06 312.272 13.2646Q311.607 12.4691 310.532 11.9284Q309.457 11.3878 307.853 11.3878Q305.765 11.3878 304.007 12.4753Q302.248 13.5629 301.185 15.7441Q300.123 17.9254 300.123 21.2067Q300.123 24.4009 301.154 26.5946Q302.186 28.7884 303.938 29.9132ZM169.606 15.6136L169.606 11.6364L166.014 11.6364L166.014 7.0625L160.719 7.0625L160.719 11.6364L158.109 11.6364L158.109 15.6136L160.719 15.6136L160.719 25.5568Q160.707 28.3658 162.453 29.7392Q164.199 31.1126 167.083 30.9883Q168.114 30.951 168.835 30.7832Q169.556 30.6154 169.954 30.4911L169.121 26.5511Q168.922 26.5884 168.549 26.6568Q168.176 26.7251 167.804 26.7251Q167.008 26.7251 166.511 26.3398Q166.014 25.9545 166.014 24.8608L166.014 15.6136L169.606 15.6136ZM212.386 11.6364L212.386 15.6136L208.794 15.6136L208.794 24.8608Q208.794 25.9545 209.292 26.3398Q209.789 26.7251 210.584 26.7251Q210.957 26.7251 211.33 26.6568Q211.703 26.5884 211.902 26.5511L212.734 30.4911Q212.337 30.6154 211.616 30.7832Q210.895 30.951 209.863 30.9883Q206.98 31.1126 205.233 29.7392Q203.487 28.3658 203.5 25.5568L203.5 15.6136L200.89 15.6136L200.89 11.6364L203.5 11.6364L203.5 7.0625L208.794 7.0625L208.794 11.6364L212.386 11.6364ZM145.146 11.6364L150.279 11.6364L150.279 14.9673L150.478 14.9673Q151 13.19 152.23 12.2765Q153.461 11.3629 155.064 11.3629Q155.946 11.3629 156.729 11.5494L156.729 16.2475Q156.357 16.1232 155.698 16.0424Q155.039 15.9616 154.492 15.9616Q152.74 15.9616 151.59 17.0616Q150.44 18.1616 150.44 19.9265L150.44 30.7273L145.146 30.7273L145.146 11.6364ZM220.962 11.6364L215.829 11.6364L215.829 30.7273L221.124 30.7273L221.124 19.9265Q221.124 18.1616 222.274 17.0616Q223.423 15.9616 225.176 15.9616Q225.723 15.9616 226.381 16.0424Q227.04 16.1232 227.413 16.2475L227.413 11.5494Q226.63 11.3629 225.748 11.3629Q224.144 11.3629 222.914 12.2765Q221.683 13.19 221.161 14.9673L220.962 14.9673L220.962 11.6364ZM60.5043 31.1001Q57.571 31.1001 55.4457 29.9007Q53.3203 28.7013 52.1768 26.4952Q51.0334 24.2891 51.0334 21.2688Q51.0334 18.3232 52.1768 16.0984Q53.3203 13.8736 55.4022 12.6307Q57.484 11.3878 60.293 11.3878Q62.8161 11.3878 64.8482 12.4567Q66.8803 13.5256 68.0735 15.682Q69.2667 17.8384 69.2667 21.0824L69.2667 22.5366L56.266 22.5366L56.266 22.549Q56.266 24.6868 57.4343 25.9173Q58.6026 27.1477 60.5913 27.1477Q61.9212 27.1477 62.8906 26.5884Q63.8601 26.0291 64.2578 24.9354L69.1548 25.2585Q68.5955 27.9183 66.321 29.5092Q64.0465 31.1001 60.5043 31.1001ZM78.0167 30.7273L78.0167 19.6903Q78.0291 17.8384 79.0297 16.813Q80.0302 15.7876 81.6335 15.7876Q83.2244 15.7876 84.1318 16.7757Q85.0391 17.7638 85.0266 19.5163L85.0266 30.7273L90.3214 30.7273L90.3214 18.5717Q90.3214 15.2283 88.5192 13.3081Q86.717 11.3878 83.734 11.3878Q81.6087 11.3878 80.1234 12.3635Q78.6381 13.3391 77.9918 15.0046L77.7681 15.0046L77.7681 11.6364L72.7219 11.6364L72.7219 30.7273L78.0167 30.7273ZM125.744 29.6584Q127.546 31.0877 130.281 31.0877Q132.393 31.0877 133.779 30.2488Q135.165 29.4098 135.861 28.0799L136.01 28.0799L136.01 30.7273L141.032 30.7273L141.032 17.8509Q141.032 15.5763 139.894 14.1532Q138.757 12.7301 136.905 12.0589Q135.053 11.3878 132.928 11.3878Q129.498 11.3878 127.329 12.9165Q125.16 14.4453 124.613 17.0554L129.51 17.4531Q129.783 16.4961 130.629 15.8746Q131.474 15.2532 132.903 15.2532Q134.258 15.2532 134.997 15.8995Q135.737 16.5458 135.737 17.7266L135.737 17.8011Q135.737 18.7209 134.668 18.9943Q133.599 19.2678 131.113 19.5163Q129.224 19.6903 127.59 20.2559Q125.955 20.8214 124.949 22.0394Q123.942 23.2575 123.942 25.3952Q123.942 28.229 125.744 29.6584ZM193.606 17.3785L198.453 17.0803Q198.105 14.4453 196.024 12.9165Q193.942 11.3878 190.325 11.3878Q186.658 11.3878 184.44 12.9787Q182.221 14.5696 182.234 17.3288Q182.209 21.679 187.752 22.7852L191.058 23.4439Q193.469 23.9286 193.507 25.3455Q193.494 26.1907 192.643 26.7376Q191.792 27.2844 190.4 27.2844Q188.983 27.2844 188.082 26.6879Q187.18 26.0913 186.932 24.9229L181.724 25.1964Q182.097 27.9308 184.347 29.5154Q186.596 31.1001 190.387 31.1001Q192.86 31.1001 194.775 30.3109Q196.689 29.5217 197.789 28.1048Q198.889 26.6879 198.889 24.8111Q198.876 20.7717 193.37 19.6406L189.915 18.9446Q188.585 18.6587 188.032 18.1864Q187.479 17.7141 187.491 17.0305Q187.479 16.1729 188.33 15.6571Q189.181 15.1413 190.412 15.1413Q191.792 15.1413 192.599 15.8001Q193.407 16.4588 193.606 17.3785ZM259.666 29.6584Q261.468 31.0877 264.203 31.0877Q266.316 31.0877 267.702 30.2488Q269.087 29.4098 269.783 28.0799L269.933 28.0799L269.933 30.7273L274.954 30.7273L274.954 17.8509Q274.954 15.5763 273.817 14.1532Q272.679 12.7301 270.827 12.0589Q268.976 11.3878 266.85 11.3878Q263.42 11.3878 261.251 12.9165Q259.082 14.4453 258.535 17.0554L263.432 17.4531Q263.706 16.4961 264.551 15.8746Q265.396 15.2532 266.825 15.2532Q268.18 15.2532 268.92 15.8995Q269.659 16.5458 269.659 17.7266L269.659 17.8011Q269.659 18.7209 268.59 18.9943Q267.521 19.2678 265.036 19.5163Q263.146 19.6903 261.512 20.2559Q259.878 20.8214 258.871 22.0394Q257.864 23.2575 257.864 25.3952Q257.864 28.229 259.666 29.6584ZM284.363 19.6903L284.363 30.7273L279.068 30.7273L279.068 11.6364L284.114 11.6364L284.114 15.0046L284.338 15.0046Q284.984 13.3391 286.469 12.3635Q287.955 11.3878 290.08 11.3878Q293.063 11.3878 294.865 13.3081Q296.667 15.2283 296.667 18.5717L296.667 30.7273L291.373 30.7273L291.373 19.5163Q291.385 17.7638 290.478 16.7757Q289.57 15.7876 287.979 15.7876Q286.376 15.7876 285.376 16.813Q284.375 17.8384 284.363 19.6903ZM173.049 11.6364L178.343 11.6364L178.343 30.7273L173.049 30.7273L173.049 11.6364ZM233.404 37.8864Q232.397 37.8864 231.521 37.731Q230.645 37.5756 230.073 37.3395L231.266 33.3871Q232.67 33.8097 233.652 33.617Q234.634 33.4244 235.156 32.082L235.467 31.2741L228.619 11.6364L234.187 11.6364L238.139 25.6563L238.338 25.6563L242.328 11.6364L247.933 11.6364L240.513 32.7905Q239.705 35.1023 238.034 36.4943Q236.362 37.8864 233.404 37.8864ZM56.266 19.2553L64.2827 19.2553Q64.2702 17.5526 63.1889 16.4464Q62.1076 15.3402 60.38 15.3402Q58.6151 15.3402 57.484 16.4837Q56.353 17.6271 56.266 19.2553ZM25.3303 21.1818Q25.3303 23.7298 26.3805 25.2772Q27.4308 26.8246 29.3448 26.8246Q31.2962 26.8246 32.3278 25.2523Q33.3594 23.68 33.3594 21.1818Q33.3594 18.696 32.334 17.1486Q31.3086 15.6012 29.3448 15.6012Q27.4183 15.6012 26.3743 17.1113Q25.3303 18.6214 25.3303 21.1818ZM103.198 26.8246Q105.112 26.8246 106.162 25.2772Q107.212 23.7298 107.212 21.1818Q107.212 18.6215 106.168 17.1113Q105.124 15.6012 103.198 15.6012Q101.234 15.6012 100.209 17.1486Q99.1832 18.696 99.1832 21.1818Q99.1832 23.68 100.215 25.2523Q101.246 26.8246 103.198 26.8246ZM312.508 25.2772Q311.458 26.8246 309.544 26.8246Q307.592 26.8246 306.561 25.2523Q305.529 23.68 305.529 21.1818Q305.529 18.696 306.555 17.1486Q307.58 15.6012 309.544 15.6012Q311.47 15.6012 312.514 17.1113Q313.558 18.6215 313.558 21.1818Q313.558 23.7298 312.508 25.2772ZM134.656 26.4206Q133.537 27.4336 131.797 27.4336Q130.579 27.4336 129.79 26.8743Q129 26.315 129 25.2212Q129 24.1026 129.852 23.5185Q130.703 22.9343 132.095 22.7354Q132.679 22.6484 133.419 22.5304Q134.158 22.4123 134.811 22.2507Q135.463 22.0891 135.774 21.8778L135.774 23.9038Q135.774 25.4077 134.656 26.4206ZM268.578 26.4206Q267.459 27.4336 265.719 27.4336Q264.501 27.4336 263.712 26.8743Q262.923 26.315 262.923 25.2212Q262.923 24.1026 263.774 23.5185Q264.625 22.9343 266.017 22.7354Q266.602 22.6484 267.341 22.5304Q268.081 22.4123 268.733 22.2507Q269.386 22.0891 269.696 21.8778L269.696 23.9038Q269.696 25.4077 268.578 26.4206Z" />
      </g>
      <g id="engineering-to-shape" fill="#FFFFFF">
        <path d="M67.6012 44.3862Q68.4464 45.1754 69.6147 45.1754Q70.7955 45.1754 71.6406 44.3862Q72.4858 43.5969 72.4858 42.4908Q72.4858 41.3846 71.6406 40.6016Q70.7954 39.8185 69.6147 39.8185Q68.4464 39.8185 67.6012 40.6016Q66.756 41.3846 66.756 42.4908Q66.756 43.5969 67.6012 44.3862ZM157.04 45.1754Q155.872 45.1754 155.027 44.3862Q154.181 43.5969 154.181 42.4908Q154.181 41.3846 155.027 40.6016Q155.872 39.8185 157.04 39.8185Q158.221 39.8185 159.066 40.6016Q159.911 41.3846 159.911 42.4908Q159.911 43.5969 159.066 44.3862Q158.221 45.1754 157.04 45.1754ZM284.089 55.6903L284.089 66.7273L278.794 66.7273L278.794 41.2727L283.94 41.2727L283.94 51.0046L284.164 51.0046Q284.822 49.3143 286.258 48.351Q287.694 47.3878 289.869 47.3878Q292.852 47.3878 294.666 49.3018Q296.481 51.2159 296.468 54.5717L296.468 66.7273L291.174 66.7273L291.174 55.5163Q291.186 53.7514 290.285 52.7695Q289.384 51.7876 287.768 51.7876Q286.152 51.7876 285.127 52.813Q284.102 53.8384 284.089 55.6903ZM226.096 51.6136L226.096 47.6364L222.504 47.6364L222.504 43.0625L217.209 43.0625L217.209 47.6364L214.599 47.6364L214.599 51.6136L217.209 51.6136L217.209 61.5568Q217.196 64.3658 218.943 65.7392Q220.689 67.1126 223.572 66.9883Q224.604 66.951 225.325 66.7832Q226.046 66.6154 226.444 66.4911L225.611 62.5511Q225.412 62.5884 225.039 62.6568Q224.666 62.7251 224.293 62.7251Q223.498 62.7251 223.001 62.3398Q222.504 61.9545 222.504 60.8608L222.504 51.6136L226.096 51.6136ZM140.075 47.6364L140.075 66.7273L145.369 66.7273L145.369 55.9265Q145.369 54.1616 146.519 53.0616Q147.669 51.9616 149.421 51.9616Q149.968 51.9616 150.627 52.0424Q151.286 52.1232 151.658 52.2475L151.658 47.5494Q150.875 47.3629 149.993 47.3629Q148.39 47.3629 147.159 48.2765Q145.929 49.19 145.407 50.9673L145.208 50.9673L145.208 47.6364L140.075 47.6364ZM5.75462 65.9007Q7.87997 67.1001 10.8132 67.1001Q14.3555 67.1001 16.63 65.5092Q18.9045 63.9183 19.4638 61.2585L14.5668 60.9354Q14.169 62.0291 13.1996 62.5884Q12.2301 63.1477 10.9002 63.1477Q8.91158 63.1477 7.74325 61.9173Q6.57493 60.6868 6.57493 58.549L6.57493 58.5366L19.5756 58.5366L19.5756 57.0824Q19.5756 53.8384 18.3825 51.682Q17.1893 49.5256 15.1571 48.4567Q13.125 47.3878 10.6019 47.3878Q7.79297 47.3878 5.71112 48.6307Q3.62926 49.8736 2.4858 52.0984Q1.34233 54.3232 1.34233 57.2688Q1.34233 60.2891 2.4858 62.4952Q3.62926 64.7013 5.75462 65.9007ZM28.3256 66.7273L28.3256 55.6903Q28.3381 53.8384 29.3386 52.813Q30.3391 51.7876 31.9425 51.7876Q33.5334 51.7876 34.4407 52.7757Q35.348 53.7638 35.3356 55.5163L35.3356 66.7273L40.6303 66.7273L40.6303 54.5717Q40.6303 51.2283 38.8281 49.3081Q37.0259 47.3878 34.043 47.3878Q31.9176 47.3878 30.4324 48.3635Q28.9471 49.3391 28.3008 51.0046L28.0771 51.0046L28.0771 47.6364L23.0309 47.6364L23.0309 66.7273L28.3256 66.7273ZM53.3949 74.2841Q49.5419 74.2841 47.342 72.7491Q45.142 71.2141 44.6697 68.9645L49.5668 68.3058Q49.8899 69.1758 50.8283 69.8283Q51.7667 70.4808 53.5192 70.4808Q55.2468 70.4808 56.3716 69.6419Q57.4964 68.8029 57.4964 66.8391L57.4964 63.3466L57.2727 63.3466Q56.7507 64.5273 55.4332 65.4906Q54.1158 66.4538 51.8288 66.4538Q49.6786 66.4538 47.9199 65.4471Q46.1612 64.4403 45.1234 62.3771Q44.0856 60.3139 44.0856 57.1445Q44.0856 53.8881 45.1483 51.7255Q46.2109 49.5629 47.9696 48.4753Q49.7283 47.3878 51.8164 47.3878Q53.4197 47.3878 54.5011 47.9284Q55.5824 48.4691 56.2535 49.2646Q56.9247 50.06 57.2727 50.843L57.4716 50.843L57.4716 47.6364L62.729 47.6364L62.729 66.9137Q62.729 69.3498 61.5297 70.9904Q60.3303 72.631 58.2298 73.4576Q56.1293 74.2841 53.3949 74.2841ZM81.7702 55.6903L81.7702 66.7273L76.4755 66.7273L76.4755 47.6364L81.5217 47.6364L81.5217 51.0046L81.7454 51.0046Q82.3917 49.3391 83.877 48.3635Q85.3622 47.3878 87.4876 47.3878Q90.4705 47.3878 92.2727 49.3081Q94.0749 51.2283 94.0749 54.5717L94.0749 66.7273L88.7802 66.7273L88.7802 55.5163Q88.7926 53.7638 87.8853 52.7757Q86.978 51.7876 85.3871 51.7876Q83.7837 51.7876 82.7832 52.813Q81.7827 53.8384 81.7702 55.6903ZM101.88 65.9007Q104.006 67.1001 106.939 67.1001Q110.481 67.1001 112.756 65.5092Q115.03 63.9183 115.589 61.2585L110.692 60.9354Q110.295 62.0291 109.325 62.5884Q108.356 63.1477 107.026 63.1477Q105.037 63.1477 103.869 61.9173Q102.701 60.6868 102.701 58.549L102.701 58.5366L115.701 58.5366L115.701 57.0824Q115.701 53.8384 114.508 51.682Q113.315 49.5256 111.283 48.4567Q109.251 47.3878 106.728 47.3878Q103.919 47.3878 101.837 48.6307Q99.755 49.8736 98.6115 52.0984Q97.468 54.3232 97.468 57.2688Q97.468 60.2891 98.6115 62.4952Q99.755 64.7013 101.88 65.9007ZM127.857 67.1001Q124.924 67.1001 122.798 65.9007Q120.673 64.7013 119.529 62.4952Q118.386 60.2891 118.386 57.2688Q118.386 54.3232 119.529 52.0984Q120.673 49.8736 122.755 48.6307Q124.837 47.3878 127.646 47.3878Q130.169 47.3878 132.201 48.4567Q134.233 49.5256 135.426 51.682Q136.619 53.8384 136.619 57.0824L136.619 58.5366L123.619 58.5366L123.619 58.549Q123.619 60.6868 124.787 61.9173Q125.955 63.1477 127.944 63.1477Q129.274 63.1477 130.243 62.5884Q131.213 62.0291 131.61 60.9354L136.507 61.2585Q135.948 63.9183 133.674 65.5092Q131.399 67.1001 127.857 67.1001ZM169.196 66.7273L169.196 55.6903Q169.208 53.8384 170.209 52.813Q171.209 51.7876 172.813 51.7876Q174.403 51.7876 175.311 52.7757Q176.218 53.7638 176.206 55.5163L176.206 66.7273L181.5 66.7273L181.5 54.5717Q181.5 51.2283 179.698 49.3081Q177.896 47.3878 174.913 47.3878Q172.788 47.3878 171.302 48.3635Q169.817 49.3391 169.171 51.0046L168.947 51.0046L168.947 47.6364L163.901 47.6364L163.901 66.7273L169.196 66.7273ZM194.265 74.2841Q190.412 74.2841 188.212 72.7491Q186.012 71.2141 185.54 68.9645L190.437 68.3058Q190.76 69.1758 191.698 69.8283Q192.637 70.4808 194.389 70.4808Q196.117 70.4808 197.242 69.6419Q198.366 68.8029 198.366 66.8391L198.366 63.3466L198.143 63.3466Q197.621 64.5273 196.303 65.4906Q194.986 66.4538 192.699 66.4538Q190.549 66.4538 188.79 65.4471Q187.031 64.4403 185.993 62.3771Q184.956 60.3139 184.956 57.1445Q184.956 53.8881 186.018 51.7255Q187.081 49.5629 188.84 48.4753Q190.598 47.3878 192.686 47.3878Q194.29 47.3878 195.371 47.9284Q196.452 48.4691 197.124 49.2646Q197.795 50.06 198.143 50.843L198.342 50.843L198.342 47.6364L203.599 47.6364L203.599 66.9137Q203.599 69.3498 202.4 70.9904Q201.2 72.631 199.1 73.4576Q196.999 74.2841 194.265 74.2841ZM238.164 67.1001Q235.268 67.1001 233.161 65.8635Q231.055 64.6268 229.911 62.4082Q228.768 60.1896 228.768 57.2564Q228.768 54.2983 229.911 52.0797Q231.055 49.8612 233.161 48.6245Q235.268 47.3878 238.164 47.3878Q241.06 47.3878 243.167 48.6245Q245.273 49.8612 246.417 52.0797Q247.56 54.2983 247.56 57.2564Q247.56 60.1896 246.417 62.4082Q245.273 64.6268 243.167 65.8635Q241.06 67.1001 238.164 67.1001ZM270.169 53.3785L275.016 53.0803Q274.668 50.4453 272.586 48.9165Q270.504 47.3878 266.887 47.3878Q263.221 47.3878 261.002 48.9787Q258.784 50.5696 258.796 53.3288Q258.771 57.679 264.315 58.7852L267.621 59.4439Q270.032 59.9286 270.069 61.3455Q270.057 62.1907 269.205 62.7376Q268.354 63.2844 266.962 63.2844Q265.545 63.2844 264.644 62.6879Q263.743 62.0913 263.494 60.9229L258.287 61.1964Q258.659 63.9308 260.909 65.5154Q263.159 67.1001 266.95 67.1001Q269.423 67.1001 271.337 66.3109Q273.251 65.5217 274.351 64.1048Q275.451 62.6879 275.451 60.8111Q275.439 56.7717 269.933 55.6406L266.477 54.9446Q265.147 54.6587 264.594 54.1864Q264.041 53.7141 264.054 53.0305Q264.041 52.1729 264.893 51.6571Q265.744 51.1413 266.974 51.1413Q268.354 51.1413 269.162 51.8001Q269.97 52.4588 270.169 53.3785ZM301.552 65.6584Q303.354 67.0877 306.088 67.0877Q308.201 67.0877 309.587 66.2488Q310.973 65.4098 311.669 64.0799L311.818 64.0799L311.818 66.7273L316.839 66.7273L316.839 53.8509Q316.839 51.5763 315.702 50.1532Q314.565 48.7301 312.713 48.0589Q310.861 47.3878 308.736 47.3878Q305.305 47.3878 303.137 48.9165Q300.968 50.4453 300.421 53.0554L305.318 53.4531Q305.591 52.4961 306.436 51.8746Q307.282 51.2532 308.711 51.2532Q310.066 51.2532 310.805 51.8995Q311.545 52.5458 311.545 53.7266L311.545 53.8011Q311.545 54.7209 310.476 54.9943Q309.407 55.2678 306.921 55.5163Q305.032 55.6903 303.398 56.2559Q301.763 56.8214 300.756 58.0394Q299.75 59.2575 299.75 61.3952Q299.75 64.229 301.552 65.6584ZM320.953 73.8864L320.953 47.6364L326.174 47.6364L326.174 50.843L326.41 50.843Q326.77 50.06 327.429 49.2646Q328.088 48.4691 329.169 47.9284Q330.25 47.3878 331.841 47.3878Q333.942 47.3878 335.694 48.4753Q337.447 49.5629 338.509 51.7441Q339.572 53.9254 339.572 57.2067Q339.572 60.4009 338.54 62.5946Q337.509 64.7884 335.756 65.9132Q334.004 67.038 331.829 67.038Q330.288 67.038 329.213 66.5284Q328.137 66.0188 327.46 65.242Q326.783 64.4652 326.41 63.6697L326.248 63.6697L326.248 73.8864L320.953 73.8864ZM346.731 65.9007Q348.857 67.1001 351.79 67.1001Q355.332 67.1001 357.607 65.5092Q359.881 63.9183 360.44 61.2585L355.543 60.9354Q355.146 62.0291 354.176 62.5884Q353.207 63.1477 351.877 63.1477Q349.888 63.1477 348.72 61.9173Q347.551 60.6868 347.551 58.549L347.551 58.5366L360.552 58.5366L360.552 57.0824Q360.552 53.8384 359.359 51.682Q358.166 49.5256 356.134 48.4567Q354.102 47.3878 351.578 47.3878Q348.77 47.3878 346.688 48.6307Q344.606 49.8736 343.462 52.0984Q342.319 54.3232 342.319 57.2688Q342.319 60.2891 343.462 62.4952Q344.606 64.7013 346.731 65.9007ZM66.9549 47.6364L66.9549 66.7273L72.2496 66.7273L72.2496 47.6364L66.9549 47.6364ZM154.38 66.7273L154.38 47.6364L159.675 47.6364L159.675 66.7273L154.38 66.7273ZM14.5916 55.2553L6.57493 55.2553Q6.66193 53.6271 7.79297 52.4837Q8.92401 51.3402 10.6889 51.3402Q12.4165 51.3402 13.4979 52.4464Q14.5792 53.5526 14.5916 55.2553ZM110.717 55.2553L102.701 55.2553Q102.788 53.6271 103.919 52.4837Q105.05 51.3402 106.815 51.3402Q108.542 51.3402 109.624 52.4464Q110.705 53.5526 110.717 55.2553ZM123.619 55.2553L131.635 55.2553Q131.623 53.5526 130.542 52.4464Q129.46 51.3402 127.733 51.3402Q125.968 51.3402 124.837 52.4837Q123.706 53.6271 123.619 55.2553ZM355.568 55.2553L347.551 55.2553Q347.638 53.6271 348.77 52.4837Q349.901 51.3402 351.665 51.3402Q353.393 51.3402 354.474 52.4464Q355.556 53.5526 355.568 55.2553ZM238.189 62.9986Q240.153 62.9986 241.166 61.358Q242.179 59.7173 242.179 57.2191Q242.179 54.7209 241.166 53.074Q240.153 51.4272 238.189 51.4272Q236.188 51.4272 235.169 53.074Q234.15 54.7209 234.15 57.2191Q234.15 59.7173 235.169 61.358Q236.188 62.9986 238.189 62.9986ZM53.5067 62.4766Q55.4208 62.4766 56.4711 61.0597Q57.5213 59.6428 57.5213 57.1197Q57.5213 54.609 56.4773 53.1051Q55.4332 51.6012 53.5067 51.6012Q51.543 51.6012 50.5176 53.1424Q49.4922 54.6836 49.4922 57.1197Q49.4922 59.593 50.5238 61.0348Q51.5554 62.4766 53.5067 62.4766ZM194.377 62.4766Q196.291 62.4766 197.341 61.0597Q198.391 59.6428 198.391 57.1197Q198.391 54.609 197.347 53.1051Q196.303 51.6012 194.377 51.6012Q192.413 51.6012 191.388 53.1424Q190.362 54.6836 190.362 57.1197Q190.362 59.593 191.394 61.0348Q192.425 62.4766 194.377 62.4766ZM326.136 57.1818Q326.136 59.7298 327.187 61.2772Q328.237 62.8246 330.151 62.8246Q332.102 62.8246 333.134 61.2523Q334.165 59.68 334.165 57.1818Q334.165 54.696 333.14 53.1486Q332.115 51.6012 330.151 51.6012Q328.224 51.6012 327.18 53.1113Q326.136 54.6214 326.136 57.1818ZM310.463 62.4206Q309.345 63.4336 307.605 63.4336Q306.387 63.4336 305.597 62.8743Q304.808 62.315 304.808 61.2212Q304.808 60.1026 305.66 59.5185Q306.511 58.9343 307.903 58.7354Q308.487 58.6484 309.227 58.5304Q309.966 58.4123 310.619 58.2507Q311.271 58.0891 311.582 57.8778L311.582 59.9038Q311.582 61.4077 310.463 62.4206Z" />
      </g>
      <g id="the-digital-realm." fill="#FFFFFF">
        <path d="M91.4897 81.1754Q90.3214 81.1754 89.4762 80.3862Q88.631 79.5969 88.631 78.4908Q88.631 77.3846 89.4762 76.6016Q90.3214 75.8185 91.4897 75.8185Q92.6704 75.8185 93.5156 76.6016Q94.3608 77.3846 94.3608 78.4908Q94.3608 79.5969 93.5156 80.3862Q92.6705 81.1754 91.4897 81.1754ZM123.171 81.1754Q122.003 81.1754 121.158 80.3862Q120.313 79.5969 120.313 78.4908Q120.313 77.3846 121.158 76.6016Q122.003 75.8185 123.171 75.8185Q124.352 75.8185 125.197 76.6016Q126.042 77.3846 126.042 78.4908Q126.042 79.5969 125.197 80.3862Q124.352 81.1754 123.171 81.1754ZM21.005 102.727L21.005 91.6903Q21.0174 89.8384 22.0428 88.813Q23.0682 87.7876 24.6839 87.7876Q26.2997 87.7876 27.2008 88.7695Q28.1019 89.7514 28.0895 91.5163L28.0895 102.727L33.3842 102.727L33.3842 90.5717Q33.3967 87.2159 31.582 85.3018Q29.7674 83.3878 26.7844 83.3878Q24.6094 83.3878 23.1738 84.351Q21.7383 85.3143 21.0795 87.0046L20.8558 87.0046L20.8558 77.2727L15.7102 77.2727L15.7102 102.727L21.005 102.727ZM69.7017 101.913Q71.4542 103.038 73.6293 103.038Q75.1704 103.038 76.2456 102.528Q77.3207 102.019 78.0043 101.242Q78.6879 100.465 79.0483 99.6697L79.272 99.6697L79.272 102.727L84.4922 102.727L84.4922 77.2727L79.2099 77.2727L79.2099 86.843L79.0483 86.843Q78.7003 86.06 78.0353 85.2646Q77.3704 84.4691 76.2953 83.9284Q75.2202 83.3878 73.6168 83.3878Q71.5288 83.3878 69.7701 84.4753Q68.0114 85.5629 66.9487 87.7441Q65.886 89.9254 65.886 93.2067Q65.886 96.4009 66.9176 98.5946Q67.9492 100.788 69.7017 101.913ZM169.233 102.727L169.233 77.2727L163.938 77.2727L163.938 102.727L169.233 102.727ZM242.402 102.727L242.402 77.2727L237.108 77.2727L237.108 102.727L242.402 102.727ZM12.2674 87.6136L12.2674 83.6364L8.67543 83.6364L8.67543 79.0625L3.38068 79.0625L3.38068 83.6364L0.770597 83.6364L0.770597 87.6136L3.38068 87.6136L3.38068 97.5568Q3.36825 100.366 5.11452 101.739Q6.8608 103.113 9.74432 102.988Q10.7759 102.951 11.4968 102.783Q12.2177 102.615 12.6154 102.491L11.7827 98.5511Q11.5838 98.5884 11.2109 98.6568Q10.8381 98.7251 10.4652 98.7251Q9.66974 98.7251 9.17259 98.3398Q8.67543 97.9545 8.67543 96.8608L8.67543 87.6136L12.2674 87.6136ZM140.186 87.6136L140.186 83.6364L136.594 83.6364L136.594 79.0625L131.3 79.0625L131.3 83.6364L128.69 83.6364L128.69 87.6136L131.3 87.6136L131.3 97.5568Q131.287 100.366 133.034 101.739Q134.78 103.113 137.663 102.988Q138.695 102.951 139.416 102.783Q140.137 102.615 140.534 102.491L139.702 98.5511Q139.503 98.5884 139.13 98.6568Q138.757 98.7251 138.384 98.7251Q137.589 98.7251 137.092 98.3398Q136.594 97.9545 136.594 96.8608L136.594 87.6136L140.186 87.6136ZM181.575 83.6364L186.708 83.6364L186.708 86.9673L186.907 86.9673Q187.429 85.19 188.659 84.2765Q189.89 83.3629 191.493 83.3629Q192.376 83.3629 193.159 83.5494L193.159 88.2475Q192.786 88.1232 192.127 88.0424Q191.468 87.9616 190.922 87.9616Q189.169 87.9616 188.019 89.0616Q186.87 90.1616 186.87 91.9265L186.87 102.727L181.575 102.727L181.575 83.6364ZM46.2607 103.1Q43.3274 103.1 41.2021 101.901Q39.0767 100.701 37.9332 98.4952Q36.7898 96.2891 36.7898 93.2688Q36.7898 90.3232 37.9332 88.0984Q39.0767 85.8736 41.1586 84.6307Q43.2404 83.3878 46.0494 83.3878Q48.5724 83.3878 50.6046 84.4567Q52.6367 85.5256 53.8299 87.682Q55.0231 89.8384 55.0231 93.0824L55.0231 94.5366L42.0224 94.5366L42.0224 94.549Q42.0224 96.6868 43.1907 97.9173Q44.359 99.1477 46.3477 99.1477Q47.6776 99.1477 48.647 98.5884Q49.6165 98.0291 50.0142 96.9354L54.9112 97.2585Q54.3519 99.9183 52.0774 101.509Q49.8029 103.1 46.2607 103.1ZM100.898 108.749Q103.098 110.284 106.951 110.284Q109.686 110.284 111.786 109.458Q113.887 108.631 115.086 106.99Q116.286 105.35 116.286 102.914L116.286 83.6364L111.028 83.6364L111.028 86.843L110.829 86.843Q110.481 86.06 109.81 85.2646Q109.139 84.4691 108.058 83.9284Q106.976 83.3878 105.373 83.3878Q103.285 83.3878 101.526 84.4753Q99.7674 85.5629 98.7047 87.7255Q97.642 89.8881 97.642 93.1445Q97.642 96.3139 98.6799 98.3771Q99.7177 100.44 101.476 101.447Q103.235 102.454 105.385 102.454Q107.672 102.454 108.99 101.491Q110.307 100.527 110.829 99.3466L111.053 99.3466L111.053 102.839Q111.053 104.803 109.928 105.642Q108.803 106.481 107.076 106.481Q105.323 106.481 104.385 105.828Q103.446 105.176 103.123 104.306L98.2262 104.964Q98.6985 107.214 100.898 108.749ZM149.073 103.088Q146.339 103.088 144.537 101.658Q142.734 100.229 142.734 97.3952Q142.734 95.2575 143.741 94.0394Q144.748 92.8214 146.382 92.2559Q148.017 91.6903 149.906 91.5163Q152.392 91.2678 153.461 90.9943Q154.529 90.7209 154.529 89.8011L154.529 89.7266Q154.529 88.5458 153.79 87.8995Q153.05 87.2532 151.696 87.2532Q150.266 87.2532 149.421 87.8746Q148.576 88.4961 148.303 89.4531L143.406 89.0554Q143.952 86.4453 146.121 84.9165Q148.29 83.3878 151.721 83.3878Q153.846 83.3878 155.698 84.0589Q157.55 84.7301 158.687 86.1532Q159.824 87.5763 159.824 89.8509L159.824 102.727L154.803 102.727L154.803 100.08L154.654 100.08Q153.958 101.41 152.572 102.249Q151.186 103.088 149.073 103.088ZM199.522 101.901Q201.648 103.1 204.581 103.1Q208.123 103.1 210.398 101.509Q212.672 99.9183 213.232 97.2585L208.335 96.9354Q207.937 98.0291 206.967 98.5884Q205.998 99.1477 204.668 99.1477Q202.679 99.1477 201.511 97.9173Q200.343 96.6868 200.343 94.549L200.343 94.5366L213.343 94.5366L213.343 93.0824Q213.343 89.8384 212.15 87.682Q210.957 85.5256 208.925 84.4567Q206.893 83.3878 204.37 83.3878Q201.561 83.3878 199.479 84.6307Q197.397 85.8736 196.254 88.0984Q195.11 90.3232 195.11 93.2688Q195.11 96.2891 196.254 98.4952Q197.397 100.701 199.522 101.901ZM222.243 103.088Q219.508 103.088 217.706 101.658Q215.904 100.229 215.904 97.3952Q215.904 95.2575 216.911 94.0394Q217.917 92.8214 219.552 92.2559Q221.186 91.6903 223.075 91.5163Q225.561 91.2678 226.63 90.9943Q227.699 90.7209 227.699 89.8011L227.699 89.7266Q227.699 88.5458 226.959 87.8995Q226.22 87.2532 224.865 87.2532Q223.436 87.2532 222.591 87.8746Q221.745 88.4961 221.472 89.4531L216.575 89.0554Q217.122 86.4453 219.291 84.9165Q221.46 83.3878 224.89 83.3878Q227.015 83.3878 228.867 84.0589Q230.719 84.7301 231.856 86.1532Q232.994 87.5763 232.994 89.8509L232.994 102.727L227.972 102.727L227.972 100.08L227.823 100.08Q227.127 101.41 225.741 102.249Q224.355 103.088 222.243 103.088ZM246.628 83.6364L251.674 83.6364L251.674 87.0046L251.898 87.0046Q252.495 85.3143 253.893 84.351Q255.291 83.3878 257.218 83.3878Q259.181 83.3878 260.561 84.3635Q261.941 85.3391 262.401 87.0046L262.599 87.0046Q263.184 85.364 264.719 84.3759Q266.254 83.3878 268.354 83.3878Q271.026 83.3878 272.698 85.0843Q274.37 86.7809 274.37 89.8881L274.37 102.727L269.087 102.727L269.087 90.9322Q269.087 89.3413 268.242 88.5458Q267.397 87.7504 266.129 87.7504Q264.688 87.7504 263.88 88.6701Q263.072 89.5898 263.072 91.0689L263.072 102.727L257.939 102.727L257.939 90.8203Q257.939 89.4158 257.137 88.5831Q256.335 87.7504 255.03 87.7504Q253.713 87.7504 252.818 88.7136Q251.923 89.6768 251.923 91.2678L251.923 102.727L246.628 102.727L246.628 83.6364ZM88.8299 83.6364L94.1246 83.6364L94.1246 102.727L88.8299 102.727L88.8299 83.6364ZM120.511 83.6364L125.806 83.6364L125.806 102.727L120.511 102.727L120.511 83.6364ZM42.0224 91.2553L50.0391 91.2553Q50.0266 89.5526 48.9453 88.4464Q47.864 87.3402 46.1364 87.3402Q44.3714 87.3402 43.2404 88.4837Q42.1094 89.6271 42.0224 91.2553ZM208.359 91.2553L200.343 91.2553Q200.43 89.6271 201.561 88.4837Q202.692 87.3402 204.457 87.3402Q206.184 87.3402 207.266 88.4464Q208.347 89.5526 208.359 91.2553ZM78.2715 97.2772Q77.2212 98.8246 75.3072 98.8246Q73.3558 98.8246 72.3242 97.2523Q71.2926 95.68 71.2926 93.1818Q71.2926 90.696 72.318 89.1486Q73.3434 87.6012 75.3072 87.6012Q77.2337 87.6012 78.2777 89.1113Q79.3217 90.6215 79.3217 93.1818Q79.3217 95.7298 78.2715 97.2772ZM110.028 97.0597Q108.977 98.4766 107.063 98.4766Q105.112 98.4766 104.08 97.0348Q103.049 95.593 103.049 93.1197Q103.049 90.6836 104.074 89.1424Q105.099 87.6012 107.063 87.6012Q108.99 87.6012 110.034 89.1051Q111.078 90.609 111.078 93.1197Q111.078 95.6428 110.028 97.0597ZM150.589 99.4336Q152.33 99.4336 153.448 98.4206Q154.567 97.4077 154.567 95.9038L154.567 93.8778Q154.256 94.0891 153.604 94.2507Q152.951 94.4123 152.211 94.5304Q151.472 94.6484 150.888 94.7354Q149.496 94.9343 148.644 95.5185Q147.793 96.1026 147.793 97.2212Q147.793 98.315 148.582 98.8743Q149.371 99.4336 150.589 99.4336ZM223.759 99.4336Q225.499 99.4336 226.618 98.4206Q227.736 97.4077 227.736 95.9038L227.736 93.8778Q227.425 94.0891 226.773 94.2507Q226.12 94.4123 225.381 94.5304Q224.641 94.6484 224.057 94.7354Q222.665 94.9343 221.814 95.5185Q220.962 96.1026 220.962 97.2212Q220.962 98.315 221.752 98.8743Q222.541 99.4336 223.759 99.4336ZM279.528 102.18Q280.41 103.05 281.641 103.05Q282.834 103.05 283.722 102.18Q284.611 101.31 284.624 100.067Q284.611 98.8494 283.722 97.9794Q282.834 97.1094 281.641 97.1094Q280.41 97.1094 279.528 97.9794Q278.645 98.8494 278.658 100.067Q278.645 101.31 279.528 102.18Z" />
      </g>
    </g>
    <g id="you-could-say-I-design-and-I-code-but-that-sounds-lame." fill="#FFF5E7" transform="translate(69 206)">
      <path d="M100.803 3.31641Q100.996 3.5 101.266 3.5Q101.535 3.5 101.729 3.31641Q101.922 3.13281 101.922 2.875Q101.922 2.61719 101.729 2.43359Q101.535 2.25 101.266 2.25Q100.996 2.25 100.803 2.43359Q100.609 2.61719 100.609 2.875Q100.609 3.13281 100.803 3.31641ZM43.0313 2.5L43.0313 10.5L42.1094 10.5L42.1094 2.5L43.0313 2.5ZM45.6602 10.2441Q46.2344 10.625 46.9844 10.625Q47.5625 10.625 47.9102 10.4316Q48.2578 10.2383 48.4453 9.99023Q48.6328 9.74219 48.7344 9.57813L48.8438 9.57813L48.8438 10.5L49.7344 10.5L49.7344 2.5L48.8125 2.5L48.8125 5.45312L48.7344 5.45312Q48.6328 5.29688 48.4512 5.05273Q48.2695 4.80859 47.9277 4.61523Q47.5859 4.42188 47 4.42188Q46.2422 4.42188 45.6641 4.80078Q45.0859 5.17969 44.7617 5.875Q44.4375 6.57031 44.4375 7.51563Q44.4375 8.46875 44.7617 9.16602Q45.0859 9.86328 45.6602 10.2441ZM76.9063 10.5L76.9063 2.5L75.9375 2.5L75.9375 10.5L76.9063 10.5ZM84.0781 10.625Q83.3281 10.625 82.7539 10.2441Q82.1797 9.86328 81.8555 9.16602Q81.5313 8.46875 81.5313 7.51563Q81.5313 6.57031 81.8555 5.875Q82.1797 5.17969 82.7578 4.80078Q83.3359 4.42188 84.0938 4.42188Q84.6797 4.42188 85.0215 4.61523Q85.3633 4.80859 85.5449 5.05273Q85.7266 5.29688 85.8281 5.45312L85.9063 5.45312L85.9063 2.5L86.8281 2.5L86.8281 10.5L85.9375 10.5L85.9375 9.57813L85.8281 9.57813Q85.7266 9.74219 85.5391 9.99023Q85.3516 10.2383 85.0039 10.4316Q84.6563 10.625 84.0781 10.625ZM134.547 10.625Q133.797 10.625 133.223 10.2441Q132.648 9.86328 132.324 9.16602Q132 8.46875 132 7.51563Q132 6.57031 132.324 5.875Q132.648 5.17969 133.227 4.80078Q133.805 4.42188 134.563 4.42188Q135.148 4.42188 135.49 4.61523Q135.832 4.80859 136.014 5.05273Q136.195 5.29688 136.297 5.45312L136.375 5.45312L136.375 2.5L137.297 2.5L137.297 10.5L136.406 10.5L136.406 9.57813L136.297 9.57813Q136.195 9.74219 136.008 9.99023Q135.82 10.2383 135.473 10.4316Q135.125 10.625 134.547 10.625ZM143.297 10.5L143.297 2.5L142.328 2.5L142.328 10.5L143.297 10.5ZM163.172 10.625Q162.422 10.625 161.848 10.2441Q161.273 9.86328 160.949 9.16602Q160.625 8.46875 160.625 7.51563Q160.625 6.57031 160.949 5.875Q161.273 5.17969 161.852 4.80078Q162.43 4.42188 163.188 4.42188Q163.773 4.42188 164.115 4.61523Q164.457 4.80859 164.639 5.05273Q164.82 5.29688 164.922 5.45312L165 5.45312L165 2.5L165.922 2.5L165.922 10.5L165.031 10.5L165.031 9.57813L164.922 9.57813Q164.82 9.74219 164.633 9.99023Q164.445 10.2383 164.098 10.4316Q163.75 10.625 163.172 10.625ZM177.359 10.5L177.359 2.5L178.281 2.5L178.281 5.45312L178.359 5.45312Q178.461 5.29688 178.643 5.05273Q178.824 4.80859 179.166 4.61523Q179.508 4.42188 180.094 4.42188Q180.852 4.42188 181.43 4.80078Q182.008 5.17969 182.332 5.875Q182.656 6.57031 182.656 7.51563Q182.656 8.46875 182.332 9.16602Q182.008 9.86328 181.434 10.2441Q180.859 10.625 180.109 10.625Q179.531 10.625 179.184 10.4316Q178.836 10.2383 178.648 9.99023Q178.461 9.74219 178.359 9.57813L178.25 9.57813L178.25 10.5L177.359 10.5ZM202.469 6.89063L202.469 10.5L201.547 10.5L201.547 2.5L202.469 2.5L202.469 5.4375L202.547 5.4375Q202.758 4.97266 203.182 4.69727Q203.605 4.42188 204.313 4.42188Q205.234 4.42188 205.797 4.97656Q206.359 5.53125 206.359 6.6875L206.359 10.5L205.438 10.5L205.438 6.75Q205.438 6.03516 205.068 5.64258Q204.699 5.25 204.047 5.25Q203.363 5.25 202.916 5.67773Q202.469 6.10547 202.469 6.89063ZM247.426 10.2441Q248 10.625 248.75 10.625Q249.328 10.625 249.676 10.4316Q250.023 10.2383 250.211 9.99023Q250.398 9.74219 250.5 9.57813L250.609 9.57813L250.609 10.5L251.5 10.5L251.5 2.5L250.578 2.5L250.578 5.45312L250.5 5.45312Q250.398 5.29688 250.217 5.05273Q250.035 4.80859 249.693 4.61523Q249.352 4.42188 248.766 4.42188Q248.008 4.42188 247.43 4.80078Q246.852 5.17969 246.527 5.875Q246.203 6.57031 246.203 7.51563Q246.203 8.46875 246.527 9.16602Q246.852 9.86328 247.426 10.2441ZM263.078 10.5L263.078 2.5L262.156 2.5L262.156 10.5L263.078 10.5ZM193.063 4.5L193.063 5.28125L191.781 5.28125L191.781 8.78125Q191.781 9.17188 191.896 9.36523Q192.012 9.55859 192.193 9.62305Q192.375 9.6875 192.578 9.6875Q192.73 9.6875 192.828 9.66992Q192.926 9.65234 192.984 9.64063L193.172 10.4688Q193.078 10.5039 192.91 10.541Q192.742 10.5781 192.484 10.5781Q192.094 10.5781 191.721 10.4102Q191.348 10.2422 191.104 9.89844Q190.859 9.55469 190.859 9.03125L190.859 5.28125L189.953 5.28125L189.953 4.5L190.859 4.5L190.859 3.0625L191.781 3.0625L191.781 4.5L193.063 4.5ZM200.156 5.28125L200.156 4.5L198.875 4.5L198.875 3.0625L197.953 3.0625L197.953 4.5L197.047 4.5L197.047 5.28125L197.953 5.28125L197.953 9.03125Q197.953 9.55469 198.197 9.89844Q198.441 10.2422 198.814 10.4102Q199.188 10.5781 199.578 10.5781Q199.836 10.5781 200.004 10.541Q200.172 10.5039 200.266 10.4688L200.078 9.64063Q200.02 9.65234 199.922 9.66992Q199.824 9.6875 199.672 9.6875Q199.469 9.6875 199.287 9.62305Q199.105 9.55859 198.99 9.36523Q198.875 9.17188 198.875 8.78125L198.875 5.28125L200.156 5.28125ZM216.859 4.5L216.859 5.28125L215.578 5.28125L215.578 8.78125Q215.578 9.17188 215.693 9.36523Q215.809 9.55859 215.99 9.62305Q216.172 9.6875 216.375 9.6875Q216.527 9.6875 216.625 9.66992Q216.723 9.65234 216.781 9.64063L216.969 10.4688Q216.875 10.5039 216.707 10.541Q216.539 10.5781 216.281 10.5781Q215.891 10.5781 215.518 10.4102Q215.145 10.2422 214.9 9.89844Q214.656 9.55469 214.656 9.03125L214.656 5.28125L213.75 5.28125L213.75 4.5L214.656 4.5L214.656 3.0625L215.578 3.0625L215.578 4.5L216.859 4.5ZM7.98242 10.2383Q8.59375 10.625 9.40625 10.625Q10.2188 10.625 10.8301 10.2383Q11.4414 9.85156 11.7832 9.15625Q12.125 8.46094 12.125 7.53125Q12.125 6.59375 11.7832 5.89453Q11.4414 5.19531 10.8301 4.80859Q10.2188 4.42188 9.40625 4.42188Q8.59375 4.42188 7.98242 4.80859Q7.37109 5.19531 7.0293 5.89453Q6.6875 6.59375 6.6875 7.53125Q6.6875 8.46094 7.0293 9.15625Q7.37109 9.85156 7.98242 10.2383ZM24 10.2266Q24.6094 10.625 25.4531 10.625Q26.1172 10.625 26.6191 10.377Q27.1211 10.1289 27.4277 9.70508Q27.7344 9.28125 27.8125 8.75L26.8906 8.75Q26.7617 9.24219 26.377 9.51953Q25.9922 9.79688 25.4531 9.79688Q24.6328 9.79688 24.1445 9.16992Q23.6563 8.54297 23.6563 7.5Q23.6563 6.48047 24.1504 5.86523Q24.6445 5.25 25.4531 5.25Q26.0625 5.25 26.4238 5.56836Q26.7852 5.88672 26.8906 6.29688L27.8125 6.29688Q27.7344 5.73438 27.4102 5.3125Q27.0859 4.89063 26.5781 4.65625Q26.0703 4.42188 25.4375 4.42188Q24.625 4.42188 24.0176 4.81836Q23.4102 5.21484 23.0723 5.91602Q22.7344 6.61719 22.7344 7.53125Q22.7344 8.42969 23.0625 9.12891Q23.3906 9.82813 24 10.2266ZM31.5938 10.625Q30.7813 10.625 30.1699 10.2383Q29.5586 9.85156 29.2168 9.15625Q28.875 8.46094 28.875 7.53125Q28.875 6.59375 29.2168 5.89453Q29.5586 5.19531 30.1699 4.80859Q30.7813 4.42188 31.5938 4.42188Q32.4063 4.42188 33.0176 4.80859Q33.6289 5.19531 33.9707 5.89453Q34.3125 6.59375 34.3125 7.53125Q34.3125 8.46094 33.9707 9.15625Q33.6289 9.85156 33.0176 10.2383Q32.4063 10.625 31.5938 10.625ZM58.8906 5.84375L58.0625 6.07813Q57.9414 5.76563 57.6563 5.49219Q57.3711 5.21875 56.7656 5.21875Q56.2148 5.21875 55.8496 5.4707Q55.4844 5.72266 55.4844 6.10938Q55.4844 6.45313 55.7344 6.65234Q55.9844 6.85156 56.5156 6.98438L57.4063 7.20313Q59 7.59375 59 8.82813Q59 9.34375 58.7051 9.75Q58.4102 10.1563 57.8828 10.3906Q57.3555 10.625 56.6563 10.625Q55.7383 10.625 55.1367 10.2266Q54.5352 9.82813 54.375 9.0625L55.25 8.84375Q55.4961 9.8125 56.6406 9.8125Q57.2852 9.8125 57.666 9.53711Q58.0469 9.26172 58.0469 8.875Q58.0469 8.23828 57.1563 8.03125L56.1563 7.79688Q55.332 7.60156 54.9473 7.18945Q54.5625 6.77734 54.5625 6.15625Q54.5625 5.64844 54.8496 5.25781Q55.1367 4.86719 55.6348 4.64453Q56.1328 4.42188 56.7656 4.42188Q57.6563 4.42188 58.166 4.8125Q58.6758 5.20313 58.8906 5.84375ZM61.1211 10.4238Q61.5859 10.6406 62.1563 10.6406Q62.6797 10.6406 63.043 10.4844Q63.4063 10.3281 63.625 10.1055Q63.8438 9.88281 63.9375 9.6875L63.9844 9.6875L63.9844 10.5L64.9063 10.5L64.9063 6.54688Q64.9063 5.83203 64.6719 5.40625Q64.4375 4.98047 64.084 4.76953Q63.7305 4.55859 63.3535 4.49023Q62.9766 4.42188 62.6875 4.42188Q62.2344 4.42188 61.7676 4.54492Q61.3008 4.66797 60.9082 4.97461Q60.5156 5.28125 60.2813 5.82812L61.1563 6.14062Q61.3086 5.8125 61.6836 5.52344Q62.0586 5.23438 62.7188 5.23438Q63.3555 5.23438 63.6699 5.55469Q63.9844 5.875 63.9844 6.45313L63.9844 6.48437Q63.9844 6.70703 63.8262 6.79688Q63.668 6.88672 63.3262 6.92383Q62.9844 6.96094 62.4375 7.03125Q62.0195 7.08594 61.6074 7.17773Q61.1953 7.26953 60.8555 7.45313Q60.5156 7.63672 60.3125 7.95898Q60.1094 8.28125 60.1094 8.79688Q60.1094 9.38281 60.3828 9.79492Q60.6563 10.207 61.1211 10.4238ZM89.6621 10.2402Q90.2891 10.625 91.1563 10.625Q92.0703 10.625 92.7031 10.207Q93.3359 9.78906 93.5469 9.10938L92.6563 8.85938Q92.4805 9.32813 92.0898 9.5625Q91.6992 9.79688 91.1563 9.79688Q90.3438 9.79688 89.8301 9.28516Q89.3164 8.77344 89.2852 7.8125L93.6406 7.8125L93.6406 7.42188Q93.6406 6.58203 93.418 6.00781Q93.1953 5.43359 92.8203 5.08398Q92.4453 4.73438 91.9883 4.57812Q91.5313 4.42188 91.0625 4.42188Q90.25 4.42188 89.6426 4.81836Q89.0352 5.21484 88.6973 5.91992Q88.3594 6.625 88.3594 7.54688Q88.3594 8.46875 88.6973 9.16211Q89.0352 9.85547 89.6621 10.2402ZM99.2969 5.84375L98.4688 6.07813Q98.3477 5.76563 98.0625 5.49219Q97.7773 5.21875 97.1719 5.21875Q96.6211 5.21875 96.2559 5.4707Q95.8906 5.72266 95.8906 6.10938Q95.8906 6.45313 96.1406 6.65234Q96.3906 6.85156 96.9219 6.98438L97.8125 7.20313Q99.4063 7.59375 99.4063 8.82813Q99.4063 9.34375 99.1113 9.75Q98.8164 10.1563 98.2891 10.3906Q97.7617 10.625 97.0625 10.625Q96.1445 10.625 95.543 10.2266Q94.9414 9.82813 94.7813 9.0625L95.6563 8.84375Q95.9023 9.8125 97.0469 9.8125Q97.6914 9.8125 98.0723 9.53711Q98.4531 9.26172 98.4531 8.875Q98.4531 8.23828 97.5625 8.03125L96.5625 7.79688Q95.7383 7.60156 95.3535 7.18945Q94.9688 6.77734 94.9688 6.15625Q94.9688 5.64844 95.2559 5.25781Q95.543 4.86719 96.041 4.64453Q96.5391 4.42188 97.1719 4.42188Q98.0625 4.42188 98.5723 4.8125Q99.082 5.20313 99.2969 5.84375ZM105.828 12.875Q104.824 12.875 104.24 12.5098Q103.656 12.1445 103.375 11.6719L104.109 11.1563Q104.234 11.3203 104.426 11.5332Q104.617 11.7461 104.951 11.9043Q105.285 12.0625 105.828 12.0625Q106.555 12.0625 107.027 11.7109Q107.5 11.3594 107.5 10.6094L107.5 9.39063L107.422 9.39063Q107.32 9.55469 107.135 9.79492Q106.949 10.0352 106.604 10.2207Q106.258 10.4063 105.672 10.4063Q104.945 10.4063 104.369 10.0625Q103.793 9.71875 103.459 9.0625Q103.125 8.40625 103.125 7.46875Q103.125 6.54688 103.449 5.86133Q103.773 5.17578 104.352 4.79883Q104.93 4.42188 105.688 4.42188Q106.273 4.42188 106.619 4.61523Q106.965 4.80859 107.15 5.05273Q107.336 5.29688 107.438 5.45312L107.531 5.45312L107.531 4.5L108.422 4.5L108.422 10.6719Q108.422 11.4453 108.072 11.9316Q107.723 12.418 107.135 12.6465Q106.547 12.875 105.828 12.875ZM111.031 10.5L111.031 6.89063Q111.031 6.10547 111.467 5.67773Q111.902 5.25 112.563 5.25Q113.203 5.25 113.57 5.64648Q113.938 6.04297 113.938 6.75L113.938 10.5L114.859 10.5L114.859 6.6875Q114.859 5.53906 114.299 4.98047Q113.738 4.42188 112.828 4.42188Q112.148 4.42188 111.719 4.70117Q111.289 4.98047 111.078 5.4375L111 5.4375L111 4.5L110.109 4.5L110.109 10.5L111.031 10.5ZM121.406 10.6406Q120.836 10.6406 120.371 10.4238Q119.906 10.207 119.633 9.79492Q119.359 9.38281 119.359 8.79688Q119.359 8.28125 119.563 7.95898Q119.766 7.63672 120.105 7.45313Q120.445 7.26953 120.857 7.17773Q121.27 7.08594 121.688 7.03125Q122.234 6.96094 122.576 6.92383Q122.918 6.88672 123.076 6.79688Q123.234 6.70703 123.234 6.48437L123.234 6.45313Q123.234 5.875 122.92 5.55469Q122.605 5.23438 121.969 5.23438Q121.309 5.23438 120.934 5.52344Q120.559 5.8125 120.406 6.14062L119.531 5.82812Q119.766 5.28125 120.158 4.97461Q120.551 4.66797 121.018 4.54492Q121.484 4.42188 121.938 4.42188Q122.227 4.42188 122.604 4.49023Q122.98 4.55859 123.334 4.76953Q123.688 4.98047 123.922 5.40625Q124.156 5.83203 124.156 6.54688L124.156 10.5L123.234 10.5L123.234 9.6875L123.188 9.6875Q123.094 9.88281 122.875 10.1055Q122.656 10.3281 122.293 10.4844Q121.93 10.6406 121.406 10.6406ZM126.766 10.5L126.766 6.89063Q126.766 6.10547 127.201 5.67773Q127.637 5.25 128.297 5.25Q128.938 5.25 129.305 5.64648Q129.672 6.04297 129.672 6.75L129.672 10.5L130.594 10.5L130.594 6.6875Q130.594 5.53906 130.033 4.98047Q129.473 4.42188 128.563 4.42188Q127.883 4.42188 127.453 4.70117Q127.023 4.98047 126.813 5.4375L126.734 5.4375L126.734 4.5L125.844 4.5L125.844 10.5L126.766 10.5ZM150.641 10.625Q149.797 10.625 149.188 10.2266Q148.578 9.82813 148.25 9.12891Q147.922 8.42969 147.922 7.53125Q147.922 6.61719 148.26 5.91602Q148.598 5.21484 149.205 4.81836Q149.813 4.42188 150.625 4.42188Q151.258 4.42188 151.766 4.65625Q152.273 4.89063 152.598 5.3125Q152.922 5.73438 153 6.29688L152.078 6.29688Q151.973 5.88672 151.611 5.56836Q151.25 5.25 150.641 5.25Q149.832 5.25 149.338 5.86523Q148.844 6.48047 148.844 7.5Q148.844 8.54297 149.332 9.16992Q149.82 9.79688 150.641 9.79688Q151.18 9.79688 151.564 9.51953Q151.949 9.24219 152.078 8.75L153 8.75Q152.922 9.28125 152.615 9.70508Q152.309 10.1289 151.807 10.377Q151.305 10.625 150.641 10.625ZM155.357 10.2383Q155.969 10.625 156.781 10.625Q157.594 10.625 158.205 10.2383Q158.816 9.85156 159.158 9.15625Q159.5 8.46094 159.5 7.53125Q159.5 6.59375 159.158 5.89453Q158.816 5.19531 158.205 4.80859Q157.594 4.42188 156.781 4.42188Q155.969 4.42188 155.357 4.80859Q154.746 5.19531 154.404 5.89453Q154.063 6.59375 154.063 7.53125Q154.063 8.46094 154.404 9.15625Q154.746 9.85156 155.357 10.2383ZM168.756 10.2402Q169.383 10.625 170.25 10.625Q171.164 10.625 171.797 10.207Q172.43 9.78906 172.641 9.10938L171.75 8.85938Q171.574 9.32813 171.184 9.5625Q170.793 9.79688 170.25 9.79688Q169.438 9.79688 168.924 9.28516Q168.41 8.77344 168.379 7.8125L172.734 7.8125L172.734 7.42188Q172.734 6.58203 172.512 6.00781Q172.289 5.43359 171.914 5.08398Q171.539 4.73438 171.082 4.57812Q170.625 4.42188 170.156 4.42188Q169.344 4.42188 168.736 4.81836Q168.129 5.21484 167.791 5.91992Q167.453 6.625 167.453 7.54688Q167.453 8.46875 167.791 9.16211Q168.129 9.85547 168.756 10.2402ZM208.777 10.4238Q209.242 10.6406 209.813 10.6406Q210.336 10.6406 210.699 10.4844Q211.063 10.3281 211.281 10.1055Q211.5 9.88281 211.594 9.6875L211.641 9.6875L211.641 10.5L212.563 10.5L212.563 6.54688Q212.563 5.83203 212.328 5.40625Q212.094 4.98047 211.74 4.76953Q211.387 4.55859 211.01 4.49023Q210.633 4.42188 210.344 4.42188Q209.891 4.42188 209.424 4.54492Q208.957 4.66797 208.564 4.97461Q208.172 5.28125 207.938 5.82812L208.813 6.14062Q208.965 5.8125 209.34 5.52344Q209.715 5.23438 210.375 5.23438Q211.012 5.23438 211.326 5.55469Q211.641 5.875 211.641 6.45313L211.641 6.48437Q211.641 6.70703 211.482 6.79688Q211.324 6.88672 210.982 6.92383Q210.641 6.96094 210.094 7.03125Q209.676 7.08594 209.264 7.17773Q208.852 7.26953 208.512 7.45313Q208.172 7.63672 207.969 7.95898Q207.766 8.28125 207.766 8.79688Q207.766 9.38281 208.039 9.79492Q208.313 10.207 208.777 10.4238ZM224.766 6.07813L225.594 5.84375Q225.379 5.20313 224.869 4.8125Q224.359 4.42188 223.469 4.42188Q222.836 4.42188 222.338 4.64453Q221.84 4.86719 221.553 5.25781Q221.266 5.64844 221.266 6.15625Q221.266 6.77734 221.65 7.18945Q222.035 7.60156 222.859 7.79688L223.859 8.03125Q224.75 8.23828 224.75 8.875Q224.75 9.26172 224.369 9.53711Q223.988 9.8125 223.344 9.8125Q222.199 9.8125 221.953 8.84375L221.078 9.0625Q221.238 9.82813 221.84 10.2266Q222.441 10.625 223.359 10.625Q224.059 10.625 224.586 10.3906Q225.113 10.1563 225.408 9.75Q225.703 9.34375 225.703 8.82813Q225.703 7.59375 224.109 7.20313L223.219 6.98438Q222.688 6.85156 222.438 6.65234Q222.188 6.45313 222.188 6.10938Q222.188 5.72266 222.553 5.4707Q222.918 5.21875 223.469 5.21875Q224.074 5.21875 224.359 5.49219Q224.645 5.76563 224.766 6.07813ZM229.531 10.625Q228.719 10.625 228.107 10.2383Q227.496 9.85156 227.154 9.15625Q226.813 8.46094 226.813 7.53125Q226.813 6.59375 227.154 5.89453Q227.496 5.19531 228.107 4.80859Q228.719 4.42188 229.531 4.42188Q230.344 4.42188 230.955 4.80859Q231.566 5.19531 231.908 5.89453Q232.25 6.59375 232.25 7.53125Q232.25 8.46094 231.908 9.15625Q231.566 9.85156 230.955 10.2383Q230.344 10.625 229.531 10.625ZM240.969 6.89063L240.969 10.5L240.047 10.5L240.047 4.5L240.938 4.5L240.938 5.4375L241.016 5.4375Q241.227 4.98047 241.656 4.70117Q242.086 4.42188 242.766 4.42188Q243.676 4.42188 244.236 4.98047Q244.797 5.53906 244.797 6.6875L244.797 10.5L243.875 10.5L243.875 6.75Q243.875 6.04297 243.508 5.64648Q243.141 5.25 242.5 5.25Q241.84 5.25 241.404 5.67773Q240.969 6.10547 240.969 6.89063ZM257.563 5.84375L256.734 6.07813Q256.613 5.76563 256.328 5.49219Q256.043 5.21875 255.438 5.21875Q254.887 5.21875 254.521 5.4707Q254.156 5.72266 254.156 6.10938Q254.156 6.45313 254.406 6.65234Q254.656 6.85156 255.188 6.98438L256.078 7.20313Q257.672 7.59375 257.672 8.82813Q257.672 9.34375 257.377 9.75Q257.082 10.1563 256.555 10.3906Q256.027 10.625 255.328 10.625Q254.41 10.625 253.809 10.2266Q253.207 9.82813 253.047 9.0625L253.922 8.84375Q254.168 9.8125 255.313 9.8125Q255.957 9.8125 256.338 9.53711Q256.719 9.26172 256.719 8.875Q256.719 8.23828 255.828 8.03125L254.828 7.79688Q254.004 7.60156 253.619 7.18945Q253.234 6.77734 253.234 6.15625Q253.234 5.64844 253.521 5.25781Q253.809 4.86719 254.307 4.64453Q254.805 4.42188 255.438 4.42188Q256.328 4.42188 256.838 4.8125Q257.348 5.20313 257.563 5.84375ZM266.531 10.6406Q265.961 10.6406 265.496 10.4238Q265.031 10.207 264.758 9.79492Q264.484 9.38281 264.484 8.79688Q264.484 8.28125 264.688 7.95898Q264.891 7.63672 265.23 7.45313Q265.57 7.26953 265.982 7.17773Q266.395 7.08594 266.813 7.03125Q267.359 6.96094 267.701 6.92383Q268.043 6.88672 268.201 6.79688Q268.359 6.70703 268.359 6.48437L268.359 6.45313Q268.359 5.875 268.045 5.55469Q267.73 5.23438 267.094 5.23438Q266.434 5.23438 266.059 5.52344Q265.684 5.8125 265.531 6.14062L264.656 5.82812Q264.891 5.28125 265.283 4.97461Q265.676 4.66797 266.143 4.54492Q266.609 4.42188 267.063 4.42188Q267.352 4.42188 267.729 4.49023Q268.105 4.55859 268.459 4.76953Q268.813 4.98047 269.047 5.40625Q269.281 5.83203 269.281 6.54688L269.281 10.5L268.359 10.5L268.359 9.6875L268.313 9.6875Q268.219 9.88281 268 10.1055Q267.781 10.3281 267.418 10.4844Q267.055 10.6406 266.531 10.6406ZM271.859 4.5L270.969 4.5L270.969 10.5L271.891 10.5L271.891 6.75Q271.891 6.30859 272.08 5.9707Q272.27 5.63281 272.58 5.44141Q272.891 5.25 273.25 5.25Q273.773 5.25 274.105 5.56445Q274.438 5.87891 274.438 6.39063L274.438 10.5L275.375 10.5L275.375 6.59375Q275.375 6.01172 275.723 5.63086Q276.07 5.25 276.703 5.25Q277.195 5.25 277.559 5.53516Q277.922 5.82031 277.922 6.48437L277.922 10.5L278.844 10.5L278.844 6.48437Q278.844 5.42578 278.332 4.92383Q277.82 4.42188 277.016 4.42188Q276.371 4.42188 275.91 4.69727Q275.449 4.97266 275.219 5.4375L275.156 5.4375Q274.934 4.95703 274.537 4.68945Q274.141 4.42188 273.547 4.42188Q272.961 4.42188 272.543 4.68945Q272.125 4.95703 271.938 5.4375L271.859 5.4375L271.859 4.5ZM283.047 10.625Q282.18 10.625 281.553 10.2402Q280.926 9.85547 280.588 9.16211Q280.25 8.46875 280.25 7.54688Q280.25 6.625 280.588 5.91992Q280.926 5.21484 281.533 4.81836Q282.141 4.42188 282.953 4.42188Q283.422 4.42188 283.879 4.57812Q284.336 4.73438 284.711 5.08398Q285.086 5.43359 285.309 6.00781Q285.531 6.58203 285.531 7.42188L285.531 7.8125L281.176 7.8125Q281.207 8.77344 281.721 9.28516Q282.234 9.79688 283.047 9.79688Q283.59 9.79688 283.98 9.5625Q284.371 9.32813 284.547 8.85938L285.438 9.10938Q285.227 9.78906 284.594 10.207Q283.961 10.625 283.047 10.625ZM1.01953 12.7129Q1.20313 12.75 1.4375 12.75Q2.69141 12.75 3.20313 11.375L5.75 4.5L4.75 4.5L3.09375 9.28125L3.03125 9.28125L1.375 4.5L0.375 4.5L2.59375 10.5313L2.42188 11Q2.25391 11.457 2.05273 11.6621Q1.85156 11.8672 1.59375 11.8906Q1.33594 11.9141 1 11.8281L0.765625 12.6406Q0.835937 12.6758 1.01953 12.7129ZM17.3125 8.04688L17.3125 4.5L18.2344 4.5L18.2344 10.5L17.3125 10.5L17.3125 9.48438L17.25 9.48438Q17.0391 9.94141 16.5938 10.2598Q16.1484 10.5781 15.4688 10.5781Q14.625 10.5781 14.0781 10.0195Q13.5313 9.46094 13.5313 8.3125L13.5313 4.5L14.4531 4.5L14.4531 8.25Q14.4531 8.90625 14.8223 9.29688Q15.1914 9.6875 15.7656 9.6875Q16.1094 9.6875 16.4668 9.51172Q16.8242 9.33594 17.0684 8.97266Q17.3125 8.60938 17.3125 8.04688ZM39.5 4.5L39.5 8.04688Q39.5 8.60938 39.2559 8.97266Q39.0117 9.33594 38.6543 9.51172Q38.2969 9.6875 37.9531 9.6875Q37.3789 9.6875 37.0098 9.29688Q36.6406 8.90625 36.6406 8.25L36.6406 4.5L35.7188 4.5L35.7188 8.3125Q35.7188 9.46094 36.2656 10.0195Q36.8125 10.5781 37.6563 10.5781Q38.3359 10.5781 38.7813 10.2598Q39.2266 9.94141 39.4375 9.48438L39.5 9.48438L39.5 10.5L40.4219 10.5L40.4219 4.5L39.5 4.5ZM67.1875 12.75Q66.9531 12.75 66.7695 12.7129Q66.5859 12.6758 66.5156 12.6406L66.75 11.8281Q67.0859 11.9141 67.3438 11.8906Q67.6016 11.8672 67.8027 11.6621Q68.0039 11.457 68.1719 11L68.3438 10.5313L66.125 4.5L67.125 4.5L68.7813 9.28125L68.8438 9.28125L70.5 4.5L71.5 4.5L68.9531 11.375Q68.4414 12.75 67.1875 12.75ZM101.719 4.5L100.797 4.5L100.797 10.5L101.719 10.5L101.719 4.5ZM187.844 4.5L187.844 8.04688Q187.844 8.60938 187.6 8.97266Q187.355 9.33594 186.998 9.51172Q186.641 9.6875 186.297 9.6875Q185.723 9.6875 185.354 9.29688Q184.984 8.90625 184.984 8.25L184.984 4.5L184.063 4.5L184.063 8.3125Q184.063 9.46094 184.609 10.0195Q185.156 10.5781 186 10.5781Q186.68 10.5781 187.125 10.2598Q187.57 9.94141 187.781 9.48438L187.844 9.48438L187.844 10.5L188.766 10.5L188.766 4.5L187.844 4.5ZM237.438 4.5L237.438 8.04688Q237.438 8.60938 237.193 8.97266Q236.949 9.33594 236.592 9.51172Q236.234 9.6875 235.891 9.6875Q235.316 9.6875 234.947 9.29688Q234.578 8.90625 234.578 8.25L234.578 4.5L233.656 4.5L233.656 8.3125Q233.656 9.46094 234.203 10.0195Q234.75 10.5781 235.594 10.5781Q236.273 10.5781 236.719 10.2598Q237.164 9.94141 237.375 9.48438L237.438 9.48438L237.438 10.5L238.359 10.5L238.359 4.5L237.438 4.5ZM10.4219 9.48047Q10.0234 9.79688 9.40625 9.79688Q8.78906 9.79688 8.39063 9.48047Q7.99219 9.16406 7.80078 8.64844Q7.60938 8.13281 7.60938 7.53125Q7.60938 6.92969 7.80078 6.41016Q7.99219 5.89063 8.39063 5.57031Q8.78906 5.25 9.40625 5.25Q10.0234 5.25 10.4219 5.57031Q10.8203 5.89063 11.0117 6.41016Q11.2031 6.92969 11.2031 7.53125Q11.2031 8.13281 11.0117 8.64844Q10.8203 9.16406 10.4219 9.48047ZM31.5938 9.79688Q32.2109 9.79688 32.6094 9.48047Q33.0078 9.16406 33.1992 8.64844Q33.3906 8.13281 33.3906 7.53125Q33.3906 6.92969 33.1992 6.41016Q33.0078 5.89063 32.6094 5.57031Q32.2109 5.25 31.5938 5.25Q30.9766 5.25 30.5781 5.57031Q30.1797 5.89063 29.9883 6.41016Q29.7969 6.92969 29.7969 7.53125Q29.7969 8.13281 29.9883 8.64844Q30.1797 9.16406 30.5781 9.48047Q30.9766 9.79688 31.5938 9.79688ZM48.3848 9.1582Q47.9414 9.79688 47.1094 9.79688Q46.5313 9.79688 46.1426 9.49023Q45.7539 9.18359 45.5566 8.66211Q45.3594 8.14063 45.3594 7.5Q45.3594 6.86719 45.5527 6.35742Q45.7461 5.84766 46.1348 5.54883Q46.5234 5.25 47.1094 5.25Q47.9531 5.25 48.3906 5.87109Q48.8281 6.49219 48.8281 7.5Q48.8281 8.51953 48.3848 9.1582ZM84.2031 9.79688Q85.0352 9.79688 85.4785 9.1582Q85.9219 8.51953 85.9219 7.5Q85.9219 6.49219 85.4844 5.87109Q85.0469 5.25 84.2031 5.25Q83.6172 5.25 83.2285 5.54883Q82.8398 5.84766 82.6465 6.35742Q82.4531 6.86719 82.4531 7.5Q82.4531 8.14063 82.6504 8.66211Q82.8477 9.18359 83.2363 9.49023Q83.625 9.79688 84.2031 9.79688ZM92.7031 7.01563L89.2852 7.01563Q89.3164 6.55078 89.5391 6.14648Q89.7617 5.74219 90.1484 5.49609Q90.5352 5.25 91.0625 5.25Q91.8125 5.25 92.2578 5.75195Q92.7031 6.25391 92.7031 7.01563ZM105.797 9.57813Q106.629 9.57813 107.072 9.01367Q107.516 8.44922 107.516 7.45313Q107.516 6.48047 107.078 5.86523Q106.641 5.25 105.797 5.25Q105.211 5.25 104.822 5.54688Q104.434 5.84375 104.24 6.34375Q104.047 6.84375 104.047 7.45313Q104.047 8.39063 104.488 8.98438Q104.93 9.57813 105.797 9.57813ZM134.672 9.79688Q135.504 9.79688 135.947 9.1582Q136.391 8.51953 136.391 7.5Q136.391 6.49219 135.953 5.87109Q135.516 5.25 134.672 5.25Q134.086 5.25 133.697 5.54883Q133.309 5.84766 133.115 6.35742Q132.922 6.86719 132.922 7.5Q132.922 8.14063 133.119 8.66211Q133.316 9.18359 133.705 9.49023Q134.094 9.79688 134.672 9.79688ZM157.797 9.48047Q157.398 9.79688 156.781 9.79688Q156.164 9.79688 155.766 9.48047Q155.367 9.16406 155.176 8.64844Q154.984 8.13281 154.984 7.53125Q154.984 6.92969 155.176 6.41016Q155.367 5.89063 155.766 5.57031Q156.164 5.25 156.781 5.25Q157.398 5.25 157.797 5.57031Q158.195 5.89063 158.387 6.41016Q158.578 6.92969 158.578 7.53125Q158.578 8.13281 158.387 8.64844Q158.195 9.16406 157.797 9.48047ZM163.297 9.79688Q164.129 9.79688 164.572 9.1582Q165.016 8.51953 165.016 7.5Q165.016 6.49219 164.578 5.87109Q164.141 5.25 163.297 5.25Q162.711 5.25 162.322 5.54883Q161.934 5.84766 161.74 6.35742Q161.547 6.86719 161.547 7.5Q161.547 8.14063 161.744 8.66211Q161.941 9.18359 162.33 9.49023Q162.719 9.79688 163.297 9.79688ZM171.797 7.01563L168.379 7.01563Q168.41 6.55078 168.633 6.14648Q168.855 5.74219 169.242 5.49609Q169.629 5.25 170.156 5.25Q170.906 5.25 171.352 5.75195Q171.797 6.25391 171.797 7.01563ZM178.266 7.5Q178.266 8.51953 178.709 9.1582Q179.152 9.79688 179.984 9.79688Q180.563 9.79688 180.951 9.49023Q181.34 9.18359 181.537 8.66211Q181.734 8.14063 181.734 7.5Q181.734 6.86719 181.541 6.35742Q181.348 5.84766 180.959 5.54883Q180.57 5.25 179.984 5.25Q179.141 5.25 178.703 5.87109Q178.266 6.49219 178.266 7.5ZM229.531 9.79688Q230.148 9.79688 230.547 9.48047Q230.945 9.16406 231.137 8.64844Q231.328 8.13281 231.328 7.53125Q231.328 6.92969 231.137 6.41016Q230.945 5.89063 230.547 5.57031Q230.148 5.25 229.531 5.25Q228.914 5.25 228.516 5.57031Q228.117 5.89063 227.926 6.41016Q227.734 6.92969 227.734 7.53125Q227.734 8.13281 227.926 8.64844Q228.117 9.16406 228.516 9.48047Q228.914 9.79688 229.531 9.79688ZM250.15 9.1582Q249.707 9.79688 248.875 9.79688Q248.297 9.79688 247.908 9.49023Q247.52 9.18359 247.322 8.66211Q247.125 8.14063 247.125 7.5Q247.125 6.86719 247.318 6.35742Q247.512 5.84766 247.9 5.54883Q248.289 5.25 248.875 5.25Q249.719 5.25 250.156 5.87109Q250.594 6.49219 250.594 7.5Q250.594 8.51953 250.15 9.1582ZM281.176 7.01563L284.594 7.01563Q284.594 6.25391 284.148 5.75195Q283.703 5.25 282.953 5.25Q282.426 5.25 282.039 5.49609Q281.652 5.74219 281.43 6.14648Q281.207 6.55078 281.176 7.01563ZM63.2207 9.59766Q62.8438 9.8125 62.2969 9.8125Q61.7461 9.8125 61.3887 9.56836Q61.0313 9.32422 61.0313 8.84375Q61.0313 8.49219 61.2207 8.28711Q61.4102 8.08203 61.7207 7.97852Q62.0313 7.875 62.3906 7.82813Q62.5391 7.80859 62.7793 7.7793Q63.0195 7.75 63.2754 7.70898Q63.5313 7.66797 63.7285 7.61133Q63.9258 7.55469 63.9844 7.48438L63.9844 8.32813Q63.9844 8.70313 63.791 9.04297Q63.5977 9.38281 63.2207 9.59766ZM121.547 9.8125Q122.094 9.8125 122.471 9.59766Q122.848 9.38281 123.041 9.04297Q123.234 8.70313 123.234 8.32813L123.234 7.48438Q123.176 7.55469 122.979 7.61133Q122.781 7.66797 122.525 7.70898Q122.27 7.75 122.029 7.7793Q121.789 7.80859 121.641 7.82813Q121.281 7.875 120.971 7.97852Q120.66 8.08203 120.471 8.28711Q120.281 8.49219 120.281 8.84375Q120.281 9.32422 120.639 9.56836Q120.996 9.8125 121.547 9.8125ZM210.877 9.59766Q210.5 9.8125 209.953 9.8125Q209.402 9.8125 209.045 9.56836Q208.688 9.32422 208.688 8.84375Q208.688 8.49219 208.877 8.28711Q209.066 8.08203 209.377 7.97852Q209.688 7.875 210.047 7.82813Q210.195 7.80859 210.436 7.7793Q210.676 7.75 210.932 7.70898Q211.188 7.66797 211.385 7.61133Q211.582 7.55469 211.641 7.48438L211.641 8.32813Q211.641 8.70313 211.447 9.04297Q211.254 9.38281 210.877 9.59766ZM266.672 9.8125Q267.219 9.8125 267.596 9.59766Q267.973 9.38281 268.166 9.04297Q268.359 8.70313 268.359 8.32813L268.359 7.48438Q268.301 7.55469 268.104 7.61133Q267.906 7.66797 267.65 7.70898Q267.395 7.75 267.154 7.7793Q266.914 7.80859 266.766 7.82813Q266.406 7.875 266.096 7.97852Q265.785 8.08203 265.596 8.28711Q265.406 8.49219 265.406 8.84375Q265.406 9.32422 265.764 9.56836Q266.121 9.8125 266.672 9.8125ZM287.113 10.3555Q287.32 10.5625 287.609 10.5625Q287.898 10.5625 288.105 10.3555Q288.313 10.1484 288.313 9.85938Q288.313 9.57031 288.105 9.36328Q287.898 9.15625 287.609 9.15625Q287.32 9.15625 287.113 9.36328Q286.906 9.57031 286.906 9.85938Q286.906 10.1484 287.113 10.3555Z" />
    </g>
    <g id="profilesrussellcamo" fill="#FFFFFF" transform="matrix(0.99999994 0 0 0.99999994 692.00006 148.99997)">
      <path d="M19.3466 5.03409L19.3466 4.18182L18.1712 4.18182L18.1712 3.69176Q18.1712 3.32955 18.3363 3.13778Q18.5014 2.94602 18.8885 2.94602Q19.0554 2.94602 19.1726 2.97443Q19.2898 3.00284 19.3643 3.0277L19.6129 2.16832Q19.5028 2.12571 19.2756 2.07422Q19.0483 2.02273 18.7251 2.02273Q18.2955 2.02273 17.9261 2.19141Q17.5568 2.36009 17.3313 2.69922Q17.1058 3.03835 17.1058 3.54972L17.1058 4.18182L16.2642 4.18182L16.2642 5.03409L17.1058 5.03409L17.1058 9.63636L18.1712 9.63636L18.1712 5.03409L19.3466 5.03409ZM39.4212 2.02273L37.0774 10.7301L36.1293 10.7301L38.473 2.02273L39.4212 2.02273ZM20.9766 3.3402Q20.6996 3.3402 20.5025 3.15376Q20.3054 2.96733 20.3054 2.7081Q20.3054 2.44531 20.5025 2.25888Q20.6996 2.07244 20.9766 2.07244Q21.25 2.07244 21.4489 2.25888Q21.6477 2.44531 21.6477 2.7081Q21.6477 2.96733 21.4489 3.15376Q21.25 3.3402 20.9766 3.3402ZM23.9915 9.63636L23.9915 2.36364L22.9297 2.36364L22.9297 9.63636L23.9915 9.63636ZM67.7663 2.36364L67.7663 9.63636L66.7045 9.63636L66.7045 2.36364L67.7663 2.36364ZM70.2557 9.63636L70.2557 2.36364L69.1939 2.36364L69.1939 9.63636L70.2557 9.63636ZM7.91193 4.18182L6.88565 4.18182L6.88565 9.63636L7.94744 9.63636L7.94744 6.3054Q7.94744 5.76918 8.31676 5.42294Q8.68608 5.0767 9.25071 5.0767Q9.41761 5.0767 9.57919 5.09979Q9.74077 5.12287 9.80469 5.14063L9.80469 4.125Q9.72656 4.11435 9.59162 4.10724Q9.45668 4.10014 9.35369 4.10014Q8.87429 4.10014 8.49609 4.35405Q8.1179 4.60795 7.96875 5.0483L7.91193 5.0483L7.91193 4.18182ZM41.353 4.18182L40.3267 4.18182L40.3267 9.63636L41.3885 9.63636L41.3885 6.3054Q41.3885 5.76918 41.7578 5.42294Q42.1271 5.0767 42.6918 5.0767Q42.8587 5.0767 43.0202 5.09979Q43.1818 5.12287 43.2457 5.14063L43.2457 4.125Q43.1676 4.11435 43.0327 4.10724Q42.8977 4.10014 42.7947 4.10014Q42.3153 4.10014 41.9371 4.35405Q41.5589 4.60795 41.4098 5.0483L41.353 5.0483L41.353 4.18182ZM0.713778 4.18182L0.713778 11.6818L1.77557 11.6818L1.77557 8.78764L1.83949 8.78764Q1.93537 8.96165 2.1147 9.18537Q2.29403 9.40909 2.60653 9.57599Q2.91903 9.7429 3.41619 9.7429Q4.0767 9.7429 4.59162 9.40554Q5.10653 9.06818 5.40128 8.4343Q5.69602 7.80043 5.69602 6.91974Q5.69602 6.03551 5.39773 5.40696Q5.09943 4.77841 4.58274 4.4446Q4.06605 4.1108 3.40554 4.1108Q2.90128 4.1108 2.59055 4.27947Q2.27983 4.44815 2.1076 4.67188Q1.93537 4.8956 1.83949 5.06605L1.75071 5.06605L1.75071 4.18182L0.713778 4.18182ZM13.0256 9.74645Q12.2585 9.74645 11.6868 9.39489Q11.1151 9.04332 10.799 8.40945Q10.483 7.77557 10.483 6.93395Q10.483 6.08523 10.799 5.44957Q11.1151 4.81392 11.6868 4.46236Q12.2585 4.1108 13.0256 4.1108Q13.7962 4.1108 14.3661 4.46236Q14.9361 4.81392 15.2521 5.44957Q15.5682 6.08523 15.5682 6.93395Q15.5682 7.77557 15.2521 8.40945Q14.9361 9.04332 14.3661 9.39489Q13.7962 9.74645 13.0256 9.74645ZM27.7699 9.74645Q26.9673 9.74645 26.3849 9.39844Q25.8026 9.05043 25.4883 8.4201Q25.174 7.78977 25.174 6.9446Q25.174 6.10653 25.4883 5.46733Q25.8026 4.82813 26.369 4.46946Q26.9354 4.1108 27.6953 4.1108Q28.3132 4.1108 28.8654 4.38601Q29.4176 4.66122 29.7638 5.26314Q30.1101 5.86506 30.1101 6.85227L30.1101 7.22869L26.2322 7.22869Q26.2535 8.01705 26.6761 8.44318Q27.0987 8.86932 27.7805 8.86932Q28.2351 8.86932 28.5653 8.67401Q28.8956 8.47869 29.0376 8.09162L30.0426 8.27273Q29.8615 8.93679 29.2614 9.34162Q28.6612 9.74645 27.7699 9.74645ZM34.4176 5.68395L35.38 5.51349Q35.2166 4.87784 34.7088 4.49432Q34.201 4.1108 33.3168 4.1108Q32.7024 4.1108 32.2266 4.31321Q31.7507 4.51563 31.4808 4.87962Q31.2109 5.24361 31.2109 5.72656Q31.2109 6.3054 31.5732 6.68892Q31.9354 7.07244 32.7024 7.2429L33.6257 7.44531Q34.3963 7.61577 34.3963 8.13778Q34.3963 8.45384 34.0838 8.67223Q33.7713 8.89063 33.2493 8.89063Q32.2692 8.89063 32.0774 8.08097L31.0511 8.23722Q31.1861 8.96165 31.7614 9.35405Q32.3366 9.74645 33.2564 9.74645Q33.9169 9.74645 34.4194 9.52983Q34.9219 9.31321 35.2042 8.93324Q35.4865 8.55327 35.4865 8.05966Q35.4865 6.92685 33.995 6.58239L33.1285 6.38352Q32.6776 6.27699 32.4734 6.11186Q32.2692 5.94673 32.2727 5.66974Q32.2692 5.35369 32.5728 5.15305Q32.8764 4.95242 33.3274 4.95241Q33.8246 4.95242 34.0749 5.18146Q34.3253 5.41051 34.4176 5.68395ZM53.2386 5.68395L54.201 5.51349Q54.0376 4.87784 53.5298 4.49432Q53.022 4.1108 52.1378 4.1108Q51.5234 4.1108 51.0476 4.31321Q50.5717 4.51563 50.3018 4.87962Q50.032 5.24361 50.032 5.72656Q50.032 6.3054 50.3942 6.68892Q50.7564 7.07244 51.5234 7.2429L52.4467 7.44531Q53.2173 7.61577 53.2173 8.13778Q53.2173 8.45384 52.9048 8.67223Q52.5923 8.89063 52.0703 8.89063Q51.0902 8.89063 50.8984 8.08097L49.8722 8.23722Q50.0071 8.96165 50.5824 9.35405Q51.1577 9.74645 52.0774 9.74645Q52.7379 9.74645 53.2404 9.52983Q53.7429 9.31321 54.0252 8.93324Q54.3075 8.55327 54.3075 8.05966Q54.3075 6.92685 52.8161 6.58239L51.9496 6.38352Q51.4986 6.27699 51.2944 6.11186Q51.0902 5.94673 51.0938 5.66974Q51.0902 5.35369 51.3938 5.15305Q51.6974 4.95242 52.1484 4.95241Q52.6456 4.95242 52.896 5.18146Q53.1463 5.41051 53.2386 5.68395ZM59.5597 5.51349L58.5973 5.68395Q58.505 5.41051 58.2546 5.18146Q58.0043 4.95242 57.5071 4.95241Q57.0561 4.95242 56.7525 5.15305Q56.4489 5.35369 56.4524 5.66974Q56.4489 5.94673 56.6531 6.11186Q56.8572 6.27699 57.3082 6.38352L58.1747 6.58239Q59.6662 6.92685 59.6662 8.05966Q59.6662 8.55327 59.3839 8.93324Q59.1016 9.31321 58.5991 9.52983Q58.0966 9.74645 57.4361 9.74645Q56.5163 9.74645 55.9411 9.35405Q55.3658 8.96165 55.2308 8.23722L56.2571 8.08097Q56.4489 8.89063 57.429 8.89063Q57.951 8.89063 58.2635 8.67223Q58.576 8.45384 58.576 8.13778Q58.576 7.61577 57.8054 7.44531L56.8821 7.2429Q56.1151 7.07244 55.7528 6.68892Q55.3906 6.3054 55.3906 5.72656Q55.3906 5.24361 55.6605 4.87962Q55.9304 4.51563 56.4063 4.31321Q56.8821 4.1108 57.4964 4.1108Q58.3807 4.1108 58.8885 4.49432Q59.3963 4.87784 59.5597 5.51349ZM61.7969 9.39844Q62.3793 9.74645 63.1818 9.74645Q64.0732 9.74645 64.6733 9.34162Q65.2734 8.93679 65.4545 8.27273L64.4496 8.09162Q64.3075 8.47869 63.9773 8.67401Q63.647 8.86932 63.1925 8.86932Q62.5107 8.86932 62.0881 8.44318Q61.6655 8.01705 61.6442 7.22869L65.522 7.22869L65.522 6.85227Q65.522 5.86506 65.1758 5.26314Q64.8295 4.66122 64.2773 4.38601Q63.7251 4.1108 63.1072 4.1108Q62.3473 4.1108 61.7809 4.46946Q61.2145 4.82813 60.9002 5.46733Q60.5859 6.10653 60.5859 6.9446Q60.5859 7.78977 60.9002 8.4201Q61.2145 9.05043 61.7969 9.39844ZM73.9808 9.74645Q73.1889 9.74645 72.619 9.38601Q72.049 9.02557 71.7436 8.38992Q71.4382 7.75426 71.4382 6.93395Q71.4382 6.09943 71.7507 5.46378Q72.0632 4.82813 72.6332 4.46946Q73.2031 4.1108 73.9702 4.1108Q74.5916 4.1108 75.0781 4.33984Q75.5646 4.56889 75.8647 4.98082Q76.1648 5.39276 76.2216 5.94318L75.1882 5.94318Q75.103 5.55966 74.7994 5.28267Q74.4957 5.00568 73.9879 5.00568Q73.3239 5.00568 72.9173 5.51882Q72.5107 6.03196 72.5107 6.90909Q72.5107 7.80043 72.9119 8.32422Q73.3132 8.84801 73.9879 8.84801Q74.4425 8.84801 74.7656 8.59943Q75.0888 8.35085 75.1882 7.91051L76.2216 7.91051Q76.1648 8.43963 75.8771 8.85511Q75.5895 9.2706 75.1083 9.50852Q74.6271 9.74645 73.9808 9.74645ZM78.0131 9.56534Q78.4304 9.7571 78.9489 9.7571Q79.6271 9.7571 80.0178 9.47656Q80.4084 9.19602 80.5611 8.89063L80.6037 8.89063L80.6037 9.63636L81.6406 9.63636L81.6406 6.0142Q81.6406 5.41761 81.4364 5.04474Q81.2323 4.67188 80.9073 4.46768Q80.5824 4.2635 80.2166 4.18715Q79.8509 4.1108 79.5242 4.1108Q78.7855 4.1108 78.1623 4.43395Q77.5391 4.7571 77.2727 5.50284L78.2706 5.73011Q78.3878 5.43892 78.695 5.20455Q79.0021 4.97017 79.5384 4.97017Q80.0533 4.97017 80.3143 5.22585Q80.5753 5.48153 80.5753 5.94673L80.5753 5.97159Q80.5753 6.16335 80.435 6.24858Q80.2948 6.33381 79.9911 6.37109Q79.6875 6.40838 79.1974 6.4652Q78.8104 6.51136 78.4375 6.59837Q78.0646 6.68537 77.7646 6.85938Q77.4645 7.03338 77.2852 7.33168Q77.1058 7.62997 77.1058 8.09517Q77.1058 8.63139 77.3509 9.00249Q77.5959 9.37358 78.0131 9.56534ZM83.054 4.18182L84.0732 4.18182L84.0732 5.0696L84.1406 5.0696Q84.3111 4.61861 84.6982 4.3647Q85.0852 4.1108 85.625 4.1108Q86.1719 4.1108 86.543 4.36648Q86.9141 4.62216 87.0916 5.0696L87.1485 5.0696Q87.3473 4.63281 87.7717 4.3718Q88.196 4.1108 88.7855 4.1108Q89.5277 4.1108 89.9982 4.57777Q90.4688 5.04474 90.4688 5.97869L90.4688 9.63636L89.407 9.63636L89.407 6.07813Q89.407 5.52415 89.1069 5.27557Q88.8068 5.02699 88.3842 5.02699Q87.8658 5.02699 87.5781 5.34659Q87.2905 5.66619 87.2905 6.1598L87.2905 9.63636L86.2323 9.63636L86.2323 6.01065Q86.2323 5.56676 85.9553 5.29688Q85.6783 5.02699 85.2344 5.02699Q84.7834 5.02699 84.4496 5.375Q84.1158 5.72301 84.1158 6.27344L84.1158 9.63636L83.054 9.63636L83.054 4.18182ZM92.848 9.39489Q93.4198 9.74645 94.1868 9.74645Q94.9574 9.74645 95.5274 9.39489Q96.0973 9.04332 96.4134 8.40945Q96.7294 7.77557 96.7294 6.93395Q96.7294 6.08523 96.4134 5.44957Q96.0973 4.81392 95.5274 4.46236Q94.9574 4.1108 94.1868 4.1108Q93.4198 4.1108 92.848 4.46236Q92.2763 4.81392 91.9602 5.44957Q91.6442 6.08523 91.6442 6.93395Q91.6442 7.77557 91.9602 8.40945Q92.2763 9.04332 92.848 9.39489ZM20.4403 4.18182L21.5021 4.18182L21.5021 9.63636L20.4403 9.63636L20.4403 4.18182ZM47.6243 7.37429L47.6243 4.18182L48.6896 4.18182L48.6896 9.63636L47.6456 9.63636L47.6456 8.69176L47.5888 8.69176Q47.4006 9.12855 46.9869 9.41797Q46.5732 9.70739 45.9588 9.70739Q45.174 9.70739 44.6715 9.18715Q44.169 8.6669 44.169 7.65128L44.169 4.18182L45.2308 4.18182L45.2308 7.52344Q45.2308 8.08097 45.5398 8.41122Q45.8487 8.74148 46.3423 8.74148Q46.6406 8.74148 46.9371 8.59233Q47.2337 8.44318 47.4308 8.13956Q47.6278 7.83594 47.6243 7.37429ZM26.2358 6.43324L29.0696 6.43324Q29.066 5.80824 28.6932 5.39808Q28.3203 4.98793 27.7024 4.98793Q27.2727 4.98793 26.9513 5.18857Q26.63 5.3892 26.4435 5.71768Q26.2571 6.04616 26.2358 6.43324ZM64.4815 6.43324L61.6477 6.43324Q61.669 6.04616 61.8555 5.71768Q62.0419 5.3892 62.3633 5.18857Q62.6847 4.98793 63.1143 4.98793Q63.7322 4.98793 64.1051 5.39808Q64.478 5.80824 64.4815 6.43324ZM13.0291 8.85511Q13.5298 8.85511 13.8548 8.59233Q14.1797 8.32955 14.3377 7.89098Q14.4957 7.45242 14.4957 6.9304Q14.4957 6.40838 14.3377 5.96804Q14.1797 5.5277 13.8548 5.26314Q13.5298 4.99858 13.0291 4.99858Q12.5284 4.99858 12.2017 5.26314Q11.875 5.5277 11.7152 5.96804Q11.5554 6.40838 11.5554 6.9304Q11.5554 7.45242 11.7152 7.89098Q11.875 8.32955 12.2017 8.59233Q12.5284 8.85511 13.0291 8.85511ZM95.016 8.59233Q94.6911 8.85511 94.1904 8.85511Q93.6896 8.85511 93.3629 8.59233Q93.0362 8.32955 92.8764 7.89098Q92.7166 7.45242 92.7166 6.9304Q92.7166 6.40838 92.8764 5.96804Q93.0362 5.5277 93.3629 5.26314Q93.6896 4.99858 94.1904 4.99858Q94.6911 4.99858 95.016 5.26314Q95.3409 5.5277 95.4989 5.96804Q95.657 6.40838 95.657 6.9304Q95.657 7.45242 95.4989 7.89098Q95.3409 8.32955 95.016 8.59233ZM2.12358 8.30291Q1.75426 7.76847 1.75426 6.90909Q1.75426 6.05327 2.11825 5.53303Q2.48224 5.01278 3.17827 5.01278Q3.66122 5.01278 3.98082 5.26136Q4.30043 5.50994 4.462 5.93786Q4.62358 6.36577 4.62358 6.90909Q4.62358 7.45597 4.46023 7.89276Q4.29687 8.32955 3.9755 8.58345Q3.65412 8.83736 3.17827 8.83736Q2.4929 8.83736 2.12358 8.30291ZM79.9361 8.73082Q79.6236 8.90483 79.1797 8.90483Q78.7287 8.90483 78.4375 8.70419Q78.1463 8.50355 78.1463 8.10938Q78.1463 7.68324 78.4748 7.50036Q78.8033 7.31747 79.2649 7.2571Q79.4389 7.23224 79.7195 7.19318Q80 7.15412 80.2521 7.0973Q80.5043 7.04048 80.5788 6.96591L80.5788 7.66903Q80.5788 7.99219 80.4137 8.2745Q80.2486 8.55682 79.9361 8.73082Z" />
    </g>
    <g id="@russellcamo" fill="#FFFFFF" transform="matrix(0.99999994 0 0 0.99999994 692.00006 122.99997)">
      <path d="M37.8303 2.36364L37.8303 9.63636L36.7685 9.63636L36.7685 2.36364L37.8303 2.36364ZM40.3196 9.63636L40.3196 2.36364L39.2578 2.36364L39.2578 9.63636L40.3196 9.63636ZM1.7081 10.4318Q2.89063 11.6143 5.09233 11.6143Q5.50426 11.6143 5.9304 11.5504Q6.35653 11.4865 6.71875 11.3871Q7.08097 11.2876 7.30114 11.1847L7.05256 10.407Q6.90341 10.4602 6.60334 10.5472Q6.30327 10.6342 5.91974 10.7035Q5.53622 10.7727 5.13849 10.7727Q3.34517 10.7727 2.40589 9.81925Q1.46662 8.86577 1.46662 7.0973Q1.46662 5.96804 1.87855 5.13175Q2.29048 4.29545 3.08061 3.83736Q3.87074 3.37926 5.0071 3.37926Q6.04759 3.37926 6.78977 3.78764Q7.53196 4.19602 7.92791 4.90625Q8.32386 5.61648 8.32031 6.51847Q8.32386 7.67259 8.14453 8.21236Q7.9652 8.75213 7.47869 8.75213Q7.20526 8.75213 7.05788 8.55682Q6.91051 8.36151 6.91051 8.08097L6.91051 4.78551L6.03693 4.78551L6.03693 5.18324L5.99077 5.18324Q5.91264 4.94886 5.49716 4.78018Q5.08168 4.61151 4.52415 4.67898Q4.01278 4.73935 3.57777 5.03409Q3.14276 5.32884 2.87997 5.83842Q2.61719 6.34801 2.61719 7.04759Q2.61719 8.14134 3.1392 8.81783Q3.66122 9.49432 4.55966 9.52983Q5.1669 9.55469 5.5522 9.31854Q5.9375 9.08239 6.06179 8.76989L6.1044 8.76989Q6.14702 9.05398 6.3441 9.23686Q6.54119 9.41974 6.82706 9.50142Q7.11293 9.5831 7.41477 9.57244Q7.98295 9.56179 8.33807 9.30256Q8.69318 9.04332 8.88494 8.61364Q9.0767 8.18395 9.14773 7.6495Q9.21875 7.11506 9.21875 6.55398Q9.21875 5.75142 8.94886 5.03054Q8.67898 4.30966 8.14808 3.75213Q7.61719 3.1946 6.83949 2.875Q6.06179 2.5554 5.04261 2.5554Q3.62216 2.5554 2.61009 3.10582Q1.59801 3.65625 1.06179 4.67365Q0.525568 5.69105 0.522017 7.0902Q0.525568 9.24929 1.7081 10.4318ZM10.3906 4.18182L10.3906 9.63636L11.4524 9.63636L11.4524 6.3054Q11.4524 5.76918 11.8217 5.42294Q12.1911 5.0767 12.7557 5.0767Q12.9226 5.0767 13.0842 5.09979Q13.2457 5.12287 13.3097 5.14063L13.3097 4.125Q13.2315 4.11435 13.0966 4.10724Q12.9616 4.10014 12.8587 4.10014Q12.3793 4.10014 12.0011 4.35405Q11.6229 4.60795 11.4737 5.0483L11.4169 5.0483L11.4169 4.18182L10.3906 4.18182ZM23.3026 5.68395L24.2649 5.51349Q24.1016 4.87784 23.5938 4.49432Q23.0859 4.1108 22.2017 4.1108Q21.5874 4.1108 21.1115 4.31321Q20.6357 4.51563 20.3658 4.87962Q20.0959 5.24361 20.0959 5.72656Q20.0959 6.3054 20.4581 6.68892Q20.8203 7.07244 21.5874 7.2429L22.5107 7.44531Q23.2813 7.61577 23.2813 8.13778Q23.2813 8.45384 22.9688 8.67223Q22.6563 8.89063 22.1342 8.89063Q21.1541 8.89063 20.9624 8.08097L19.9361 8.23722Q20.071 8.96165 20.6463 9.35405Q21.2216 9.74645 22.1413 9.74645Q22.8018 9.74645 23.3043 9.52983Q23.8068 9.31321 24.0891 8.93324Q24.3715 8.55327 24.3715 8.05966Q24.3715 6.92685 22.88 6.58239L22.0135 6.38352Q21.5625 6.27699 21.3583 6.11186Q21.1541 5.94673 21.1577 5.66974Q21.1541 5.35369 21.4577 5.15305Q21.7614 4.95242 22.2124 4.95241Q22.7095 4.95242 22.9599 5.18146Q23.2102 5.41051 23.3026 5.68395ZM29.6236 5.51349L28.6612 5.68395Q28.5689 5.41051 28.3185 5.18146Q28.0682 4.95242 27.571 4.95241Q27.12 4.95242 26.8164 5.15305Q26.5128 5.35369 26.5163 5.66974Q26.5128 5.94673 26.717 6.11186Q26.9212 6.27699 27.3722 6.38352L28.2386 6.58239Q29.7301 6.92685 29.7301 8.05966Q29.7301 8.55327 29.4478 8.93324Q29.1655 9.31321 28.663 9.52983Q28.1605 9.74645 27.5 9.74645Q26.5803 9.74645 26.005 9.35405Q25.4297 8.96165 25.2947 8.23722L26.321 8.08097Q26.5128 8.89063 27.4929 8.89063Q28.0149 8.89063 28.3274 8.67223Q28.6399 8.45384 28.6399 8.13778Q28.6399 7.61577 27.8693 7.44531L26.946 7.2429Q26.179 7.07244 25.8168 6.68892Q25.4545 6.3054 25.4545 5.72656Q25.4545 5.24361 25.7244 4.87962Q25.9943 4.51563 26.4702 4.31321Q26.946 4.1108 27.5604 4.1108Q28.4446 4.1108 28.9524 4.49432Q29.4602 4.87784 29.6236 5.51349ZM31.8608 9.39844Q32.4432 9.74645 33.2457 9.74645Q34.1371 9.74645 34.7372 9.34162Q35.3374 8.93679 35.5185 8.27273L34.5135 8.09162Q34.3715 8.47869 34.0412 8.67401Q33.7109 8.86932 33.2564 8.86932Q32.5746 8.86932 32.152 8.44318Q31.7294 8.01705 31.7081 7.22869L35.5859 7.22869L35.5859 6.85227Q35.5859 5.86506 35.2397 5.26314Q34.8935 4.66122 34.3413 4.38601Q33.7891 4.1108 33.1712 4.1108Q32.4112 4.1108 31.8448 4.46946Q31.2784 4.82813 30.9641 5.46733Q30.6499 6.10653 30.6499 6.9446Q30.6499 7.78977 30.9641 8.4201Q31.2784 9.05043 31.8608 9.39844ZM44.0447 9.74645Q43.2528 9.74645 42.6829 9.38601Q42.1129 9.02557 41.8075 8.38992Q41.5021 7.75426 41.5021 6.93395Q41.5021 6.09943 41.8146 5.46378Q42.1271 4.82813 42.6971 4.46946Q43.267 4.1108 44.0341 4.1108Q44.6555 4.1108 45.142 4.33984Q45.6286 4.56889 45.9286 4.98082Q46.2287 5.39276 46.2855 5.94318L45.2521 5.94318Q45.1669 5.55966 44.8633 5.28267Q44.5597 5.00568 44.0518 5.00568Q43.3878 5.00568 42.9812 5.51882Q42.5746 6.03196 42.5746 6.90909Q42.5746 7.80043 42.9759 8.32422Q43.3771 8.84801 44.0518 8.84801Q44.5064 8.84801 44.8295 8.59943Q45.1527 8.35085 45.2521 7.91051L46.2855 7.91051Q46.2287 8.43963 45.9411 8.85511Q45.6534 9.2706 45.1722 9.50852Q44.6911 9.74645 44.0447 9.74645ZM48.0771 9.56534Q48.4943 9.7571 49.0128 9.7571Q49.6911 9.7571 50.0817 9.47656Q50.4723 9.19602 50.625 8.89063L50.6676 8.89063L50.6676 9.63636L51.7045 9.63636L51.7045 6.0142Q51.7045 5.41761 51.5004 5.04474Q51.2962 4.67188 50.9712 4.46768Q50.6463 4.2635 50.2805 4.18715Q49.9148 4.1108 49.5881 4.1108Q48.8494 4.1108 48.2262 4.43395Q47.603 4.7571 47.3367 5.50284L48.3345 5.73011Q48.4517 5.43892 48.7589 5.20455Q49.0661 4.97017 49.6023 4.97017Q50.1172 4.97017 50.3782 5.22585Q50.6392 5.48153 50.6392 5.94673L50.6392 5.97159Q50.6392 6.16335 50.4989 6.24858Q50.3587 6.33381 50.055 6.37109Q49.7514 6.40838 49.2614 6.4652Q48.8743 6.51136 48.5014 6.59837Q48.1286 6.68537 47.8285 6.85938Q47.5284 7.03338 47.3491 7.33168Q47.1697 7.62997 47.1697 8.09517Q47.1697 8.63139 47.4148 9.00249Q47.6598 9.37358 48.0771 9.56534ZM53.1179 4.18182L54.1371 4.18182L54.1371 5.0696L54.2045 5.0696Q54.375 4.61861 54.7621 4.3647Q55.1492 4.1108 55.6889 4.1108Q56.2358 4.1108 56.6069 4.36648Q56.978 4.62216 57.1555 5.0696L57.2124 5.0696Q57.4112 4.63281 57.8356 4.3718Q58.2599 4.1108 58.8494 4.1108Q59.5916 4.1108 60.0621 4.57777Q60.5327 5.04474 60.5327 5.97869L60.5327 9.63636L59.4709 9.63636L59.4709 6.07813Q59.4709 5.52415 59.1708 5.27557Q58.8707 5.02699 58.4482 5.02699Q57.9297 5.02699 57.642 5.34659Q57.3544 5.66619 57.3544 6.1598L57.3544 9.63636L56.2962 9.63636L56.2962 6.01065Q56.2962 5.56676 56.0192 5.29688Q55.7422 5.02699 55.2983 5.02699Q54.8473 5.02699 54.5135 5.375Q54.1797 5.72301 54.1797 6.27344L54.1797 9.63636L53.1179 9.63636L53.1179 4.18182ZM62.9119 9.39489Q63.4837 9.74645 64.2507 9.74645Q65.0213 9.74645 65.5913 9.39489Q66.1612 9.04332 66.4773 8.40945Q66.7933 7.77557 66.7933 6.93395Q66.7933 6.08523 66.4773 5.44957Q66.1612 4.81392 65.5913 4.46236Q65.0213 4.1108 64.2507 4.1108Q63.4837 4.1108 62.9119 4.46236Q62.3402 4.81392 62.0242 5.44957Q61.7081 6.08523 61.7081 6.93395Q61.7081 7.77557 62.0242 8.40945Q62.3402 9.04332 62.9119 9.39489ZM17.6882 7.37429L17.6882 4.18182L18.7536 4.18182L18.7536 9.63636L17.7095 9.63636L17.7095 8.69176L17.6527 8.69176Q17.4645 9.12855 17.0508 9.41797Q16.6371 9.70739 16.0227 9.70739Q15.2379 9.70739 14.7354 9.18715Q14.233 8.6669 14.233 7.65128L14.233 4.18182L15.2947 4.18182L15.2947 7.52344Q15.2947 8.08097 15.6037 8.41122Q15.9126 8.74148 16.4063 8.74148Q16.7045 8.74148 17.0011 8.59233Q17.2976 8.44318 17.4947 8.13956Q17.6918 7.83594 17.6882 7.37429ZM34.5455 6.43324L31.7117 6.43324Q31.733 6.04616 31.9194 5.71768Q32.1058 5.3892 32.4272 5.18857Q32.7486 4.98793 33.1783 4.98793Q33.7962 4.98793 34.169 5.39808Q34.5419 5.80824 34.5455 6.43324ZM65.0799 8.59233Q64.755 8.85511 64.2543 8.85511Q63.7536 8.85511 63.4268 8.59233Q63.1001 8.32955 62.9403 7.89098Q62.7805 7.45242 62.7805 6.9304Q62.7805 6.40838 62.9403 5.96804Q63.1001 5.5277 63.4268 5.26314Q63.7536 4.99858 64.2543 4.99858Q64.755 4.99858 65.0799 5.26314Q65.4048 5.5277 65.5629 5.96804Q65.7209 6.40838 65.7209 6.9304Q65.7209 7.45242 65.5629 7.89098Q65.4048 8.32955 65.0799 8.59233ZM5.75284 8.24609Q5.4581 8.6598 4.76563 8.6598Q4.30398 8.6598 4.03054 8.42543Q3.7571 8.19105 3.63814 7.81286Q3.51918 7.43466 3.51563 7.00497Q3.51918 6.39063 3.84943 5.96449Q4.17969 5.53835 4.77983 5.53835Q5.43324 5.53835 5.73686 5.86506Q6.04048 6.19176 6.04403 7.00142Q6.04759 7.83239 5.75284 8.24609ZM50 8.73082Q49.6875 8.90483 49.2436 8.90483Q48.7926 8.90483 48.5014 8.70419Q48.2102 8.50355 48.2102 8.10938Q48.2102 7.68324 48.5387 7.50036Q48.8672 7.31747 49.3288 7.2571Q49.5028 7.23224 49.7834 7.19318Q50.0639 7.15412 50.3161 7.0973Q50.5682 7.04048 50.6428 6.96591L50.6428 7.66903Q50.6428 7.99219 50.4776 8.2745Q50.3125 8.55682 50 8.73082Z" />
    </g>
    <path d="M631 385.5C631 277.528 718.528 190 826.5 190C934.472 190 1022 277.528 1022 385.5C1022 493.472 934.472 581 826.5 581C718.528 581 631 493.472 631 385.5Z" id="Oval" fill="#FFCA59" fill-rule="evenodd" stroke="none" />
    <path d="M-209 -272C-209 -448.731 -65.7309 -592 111 -592C287.731 -592 431 -448.731 431 -272C431 -95.2689 287.731 48 111 48C-65.7309 48 -209 -95.2689 -209 -272Z" id="Oval" fill="#FFCA59" fill-rule="evenodd" stroke="none" />
    <path d="M667.963 157.05C668.29 157.636 668.773 158.145 669.394 158.506C669.916 158.808 670.478 158.97 671.041 159.01L669.368 161.925L671.873 161.925L673.868 158.449C673.885 158.951 673.973 159.415 674.133 159.84C674.311 160.314 674.562 160.724 674.885 161.068C675.208 161.413 675.591 161.681 676.034 161.876C676.478 162.07 676.965 162.167 677.495 162.167C677.996 162.167 678.418 162.087 678.76 161.927C679.103 161.767 679.418 161.507 679.708 161.148L679.708 161.919L681.761 161.919L681.761 151.506L679.592 151.506L679.592 155.258C679.293 154.966 678.975 154.751 678.638 154.61C678.3 154.469 677.905 154.399 677.451 154.399C676.941 154.399 676.466 154.497 676.027 154.69C675.707 154.832 675.42 155.013 675.164 155.234C675.191 153.87 674.498 152.534 673.241 151.804C671.401 150.735 669.048 151.369 667.986 153.22C667.978 153.233 667.971 153.246 667.963 153.26C667.637 152.673 667.153 152.164 666.532 151.804C664.693 150.735 662.34 151.369 661.278 153.22C660.215 155.071 660.846 157.437 662.686 158.506C663.207 158.808 663.77 158.97 664.332 159.01L662.659 161.925L665.164 161.925L667.94 157.089C667.948 157.076 667.956 157.063 667.963 157.05L667.963 157.05ZM679.187 159.606C678.84 159.956 678.396 160.131 677.857 160.131C677.596 160.131 677.353 160.084 677.126 159.992C676.9 159.9 676.707 159.772 676.548 159.606C676.389 159.442 676.264 159.246 676.172 159.018C676.08 158.789 676.035 158.54 676.035 158.269C676.035 158.007 676.08 157.762 676.172 157.534C676.264 157.306 676.391 157.112 676.555 156.952C676.719 156.792 676.914 156.666 677.141 156.574C677.367 156.482 677.615 156.436 677.885 156.436C678.145 156.436 678.387 156.482 678.609 156.574C678.83 156.666 679.023 156.795 679.187 156.96C679.351 157.124 679.479 157.316 679.57 157.534C679.662 157.752 679.708 157.992 679.708 158.254C679.708 158.807 679.534 159.258 679.187 159.606L679.187 159.606ZM669.796 154.271C670.281 153.426 671.355 153.136 672.196 153.624C673.036 154.112 673.324 155.193 672.839 156.038C672.354 156.884 671.279 157.173 670.439 156.685C669.599 156.197 669.31 155.116 669.796 154.271L669.796 154.271ZM663.087 154.271C663.573 153.426 664.647 153.136 665.488 153.624C666.328 154.112 666.616 155.193 666.131 156.038C665.645 156.884 664.571 157.173 663.73 156.685C662.89 156.197 662.602 155.116 663.087 154.271L663.087 154.271Z" id="Shape" fill="#FFFFFF" fill-rule="evenodd" stroke="none" />
    <path d="M671.855 120.6C666.884 120.6 662.855 124.629 662.855 129.6C662.855 134.571 666.884 138.6 671.855 138.6C676.825 138.6 680.855 134.571 680.855 129.6C680.855 124.629 676.825 120.6 671.855 120.6L671.855 120.6ZM679.037 129.237C677.249 128.713 675.638 128.65 674.206 128.89C674.032 128.502 673.853 128.126 673.669 127.761C675.182 127.103 676.521 126.209 677.383 124.995C678.353 126.157 678.956 127.629 679.037 129.237L679.037 129.237ZM676.046 123.757C675.402 124.798 674.218 125.582 672.813 126.172C671.952 124.689 671.077 123.471 670.356 122.559C670.84 122.457 671.341 122.4 671.855 122.4C673.419 122.4 674.864 122.907 676.046 123.757L676.046 123.757ZM668.563 123.204C669.253 124.034 670.166 125.249 671.079 126.776C668.922 127.4 666.58 127.679 664.9 127.765C665.425 125.779 666.774 124.128 668.563 123.204L668.563 123.204ZM664.655 129.6C664.655 129.592 664.656 129.585 664.656 129.577C666.126 129.513 669.138 129.274 671.971 128.39C672.131 128.703 672.288 129.025 672.441 129.357C669.426 130.464 667.405 132.834 666.398 134.285C665.314 133.025 664.655 131.389 664.655 129.6L664.655 129.6ZM667.734 135.496C668.533 134.263 670.33 131.971 673.142 131.003C673.755 132.608 674.237 134.386 674.483 136.297C673.666 136.617 672.783 136.8 671.855 136.8C670.322 136.8 668.903 136.315 667.734 135.496L667.734 135.496ZM676.173 135.348C675.901 133.65 675.451 132.066 674.909 130.605C676.1 130.473 677.431 130.589 678.903 131.074C678.539 132.812 677.543 134.316 676.173 135.348L676.173 135.348Z" id="Shape" fill="#FFFFFF" fill-rule="evenodd" stroke="#FFFFFF" stroke-width="0.3" />
  </g>
</svg>