<?xml version="1.0" encoding="UTF-8" standalone="no"?><!DOCTYPE svg PUBLIC "-//W3C//DTD SVG 1.1//EN" "http://www.w3.org/Graphics/SVG/1.1/DTD/svg11.dtd"><svg width="100%" height="100%" viewBox="0 0 3334 1250" version="1.1" xmlns="http://www.w3.org/2000/svg" xmlns:xlink="http://www.w3.org/1999/xlink" xml:space="preserve" xmlns:serif="http://www.serif.com/" style="fill-rule:evenodd;clip-rule:evenodd;"><rect id="Artboard2" x="0" y="0" width="3333.333" height="1250" style="fill:none;"/><clipPath id="_clip1"><rect x="0" y="0" width="3333.333" height="1250"/></clipPath><g clip-path="url(#_clip1)"><rect id="Artboard1" x="-208.333" y="0" width="3750" height="1250" style="fill:none;"/><g><g id="banner"><g><path d="M3333.333,33.333c0,-18.399 -13.276,-33.333 -29.629,-33.333l-3274.076,0c-16.353,0 -29.629,14.934 -29.629,33.333l0,1183.328c0,18.395 13.276,33.333 29.629,33.333l3274.076,0c16.353,0 29.629,-14.938 29.629,-33.333l0,-1183.328Z" style="fill:#1f72de;"/><clipPath id="_clip2"><path d="M3333.333,33.333c0,-18.399 -13.276,-33.333 -29.629,-33.333l-3274.076,0c-16.353,0 -29.629,14.934 -29.629,33.333l0,1183.328c0,18.395 13.276,33.333 29.629,33.333l3274.076,0c16.353,0 29.629,-14.938 29.629,-33.333l0,-1183.328Z"/></clipPath><g clip-path="url(#_clip2)"><g><g id="Oval"><path d="M1872.785,1665.582c0,-449.882 364.7,-814.581 814.583,-814.581c449.875,0 814.583,364.699 814.583,814.581c0,449.874 -364.708,814.581 -814.583,814.581c-449.883,0 -814.583,-364.707 -814.583,-814.581Z" style="fill:#ffca59;"/></g><g id="Oval-1" serif:id="Oval#1"><path d="M-1079.165,-1133.328c0,-736.377 596.954,-1333.329 1333.333,-1333.329c736.379,0 1333.333,596.952 1333.333,1333.329c0,736.377 -596.954,1333.329 -1333.333,1333.329c-736.379,0 -1333.333,-596.952 -1333.333,-1333.329Z" style="fill:#ffca59;"/></g></g></g></g><g id="I-blend-artistry-and-engineeri"><path d="M855.442,443.803c-2.948,0 -5.488,-0.995 -7.618,-2.986c-2.131,-1.991 -3.198,-4.383 -3.198,-7.172c0,-2.793 1.067,-5.174 3.198,-7.149c2.131,-1.976 4.67,-2.963 7.618,-2.963c2.978,0 5.537,0.988 7.668,2.963c2.135,1.976 3.202,4.356 3.202,7.149c0,2.789 -1.067,5.181 -3.202,7.172c-2.131,1.991 -4.689,2.986 -7.668,2.986Zm-636.244,-14.768l0,96.333l-20.369,0l0,-96.333l20.369,0Zm47.508,96.333l0,-96.333l20.039,0l0,36.219l0.613,0c0.908,-1.976 2.195,-3.966 3.857,-5.972c1.661,-2.01 3.857,-3.694 6.585,-5.06c2.729,-1.362 6.101,-2.044 10.112,-2.044c5.302,0 10.162,1.37 14.582,4.114c4.42,2.744 7.974,6.869 10.654,12.372c2.683,5.503 4.023,12.395 4.023,20.675c0,8.057 -1.302,14.855 -3.906,20.391c-2.6,5.533 -6.112,9.719 -10.536,12.557c-4.42,2.838 -9.374,4.258 -14.862,4.258c-3.891,0 -7.191,-0.643 -9.904,-1.93c-2.71,-1.283 -4.924,-2.907 -6.631,-4.867c-1.711,-1.96 -3.035,-3.944 -3.974,-5.949l-0.897,0l0,11.57l-19.756,0Zm103.815,0l0,-96.333l-20.039,0l0,96.333l20.039,0Zm204.149,1.177c-5.488,0 -10.442,-1.419 -14.866,-4.258c-4.42,-2.838 -7.933,-7.024 -10.536,-12.557c-2.604,-5.537 -3.902,-12.334 -3.902,-20.391c0,-8.281 1.34,-15.172 4.019,-20.675c2.683,-5.503 6.241,-9.628 10.68,-12.372c4.436,-2.744 9.287,-4.114 14.556,-4.114c4.046,0 7.425,0.681 10.139,2.044c2.714,1.366 4.909,3.05 6.585,5.06c1.677,2.006 2.956,3.997 3.834,5.972l0.613,0l0,-36.219l19.99,0l0,96.333l-19.756,0l0,-11.57l-0.848,0c-0.912,2.006 -2.229,3.989 -3.951,5.949c-1.726,1.96 -3.944,3.584 -6.657,4.867c-2.714,1.287 -6.014,1.93 -9.901,1.93Zm766.071,-4.258c4.424,2.838 9.378,4.258 14.866,4.258c3.887,0 7.187,-0.643 9.901,-1.93c2.714,-1.283 4.931,-2.907 6.657,-4.867c1.722,-1.96 3.039,-3.944 3.951,-5.949l0.848,0l0,11.57l19.756,0l0,-96.333l-19.994,0l0,36.219l-0.609,0c-0.878,-1.976 -2.157,-3.966 -3.834,-5.972c-1.677,-2.01 -3.872,-3.694 -6.585,-5.06c-2.714,-1.362 -6.093,-2.044 -10.139,-2.044c-5.268,0 -10.12,1.37 -14.556,4.114c-4.439,2.744 -7.997,6.869 -10.68,12.372c-2.679,5.503 -4.019,12.395 -4.019,20.675c0,8.057 1.302,14.855 3.902,20.391c2.604,5.533 6.116,9.719 10.536,12.557Zm-508.393,-54.116l0,-15.055l-13.594,0l0,-17.307l-20.039,0l0,17.307l-9.878,0l0,15.055l9.878,0l0,37.63c-0.03,7.089 2.157,12.364 6.562,15.827c4.405,3.467 10.245,5.041 17.523,4.727c2.6,-0.095 4.81,-0.352 6.631,-0.776c1.82,-0.424 3.232,-0.791 4.235,-1.105l-3.153,-14.911c-0.503,0.095 -1.222,0.227 -2.165,0.401c-0.942,0.17 -1.881,0.257 -2.82,0.257c-2.01,0 -3.641,-0.484 -4.893,-1.457c-1.253,-0.973 -1.881,-2.838 -1.881,-5.597l0,-34.996l13.594,0Zm161.905,-15.055l0,15.055l-13.594,0l0,34.996c0,2.759 0.628,4.625 1.885,5.597c1.253,0.973 2.884,1.457 4.89,1.457c0.942,0 1.881,-0.087 2.823,-0.257c0.942,-0.174 1.661,-0.307 2.165,-0.401l3.149,14.911c-1.003,0.314 -2.411,0.681 -4.231,1.105c-1.82,0.424 -4.031,0.681 -6.634,0.776c-7.274,0.314 -13.114,-1.26 -17.523,-4.727c-4.405,-3.463 -6.593,-8.739 -6.559,-15.827l0,-37.63l-9.878,0l0,-15.055l9.878,0l0,-17.307l20.036,0l0,17.307l13.594,0Zm-254.477,0l19.426,0l0,12.607l0.753,0c1.317,-4.485 3.527,-7.88 6.631,-10.184c3.107,-2.305 6.68,-3.455 10.726,-3.455c2.225,0 4.326,0.235 6.301,0.704l0,17.78c-0.939,-0.31 -2.24,-0.571 -3.902,-0.776c-1.661,-0.201 -3.183,-0.303 -4.564,-0.303c-4.42,0 -8.08,1.385 -10.983,4.163c-2.903,2.774 -4.352,6.388 -4.352,10.843l0,40.874l-20.036,0l0,-72.252Zm286.933,0l-19.426,0l0,72.252l20.039,0l0,-40.874c0,-4.454 1.45,-8.069 4.352,-10.843c2.899,-2.778 6.559,-4.163 10.983,-4.163c1.381,0 2.899,0.102 4.56,0.303c1.661,0.204 2.963,0.466 3.906,0.776l0,-17.78c-1.976,-0.469 -4.076,-0.704 -6.301,-0.704c-4.046,0 -7.622,1.151 -10.726,3.455c-3.107,2.305 -5.317,5.7 -6.634,10.184l-0.753,0l0,-12.607Zm-607.269,73.663c-7.399,0 -13.78,-1.514 -19.143,-4.538c-5.363,-3.028 -9.488,-7.323 -12.372,-12.89c-2.884,-5.567 -4.33,-12.16 -4.33,-19.778c0,-7.433 1.446,-13.954 4.33,-19.57c2.884,-5.613 6.952,-9.988 12.205,-13.121c5.253,-3.137 11.422,-4.704 18.51,-4.704c6.366,0 12.111,1.347 17.239,4.046c5.128,2.695 9.197,6.763 12.209,12.205c3.009,5.442 4.515,12.255 4.515,20.437l0,5.507l-49.204,0l0,0.045c0,5.393 1.472,9.643 4.42,12.747c2.948,3.107 6.933,4.659 11.948,4.659c3.357,0 6.256,-0.708 8.705,-2.119c2.445,-1.408 4.171,-3.493 5.174,-6.256l18.533,1.222c-1.412,6.714 -4.988,12.077 -10.726,16.088c-5.737,4.015 -13.076,6.021 -22.015,6.021Zm66.28,-1.412l0,-41.771c0.03,-4.67 1.309,-8.3 3.834,-10.888c2.524,-2.589 5.809,-3.879 9.855,-3.879c4.012,0 7.164,1.245 9.454,3.739c2.29,2.49 3.417,5.949 3.387,10.37l0,42.429l20.036,0l0,-46.002c0,-8.436 -2.271,-15.078 -6.82,-19.922c-4.545,-4.844 -10.582,-7.266 -18.109,-7.266c-5.363,0 -9.916,1.23 -13.666,3.694c-3.747,2.46 -6.434,5.79 -8.065,9.995l-0.848,0l0,-12.75l-19.097,0l0,72.252l20.039,0Zm180.628,-4.046c4.545,3.607 10.271,5.412 17.171,5.412c5.329,0 9.742,-1.06 13.239,-3.175c3.497,-2.119 6.123,-4.856 7.88,-8.209l0.564,0l0,10.018l19.006,0l0,-48.731c0,-5.737 -1.434,-10.404 -4.307,-13.995c-2.869,-3.592 -6.638,-6.233 -11.312,-7.925c-4.674,-1.692 -9.689,-2.539 -15.051,-2.539c-8.655,0 -15.717,1.926 -21.19,5.787c-5.473,3.857 -8.898,9.075 -10.279,15.661l18.533,1.506c0.689,-2.415 2.1,-4.405 4.235,-5.972c2.131,-1.571 4.999,-2.354 8.606,-2.354c3.417,0 6.059,0.817 7.925,2.449c1.866,1.627 2.801,3.932 2.801,6.914l0,0.28c0,2.32 -1.347,3.826 -4.046,4.515c-2.698,0.693 -7.183,1.351 -13.454,1.976c-4.765,0.439 -9.212,1.374 -13.333,2.801c-4.125,1.427 -7.456,3.675 -9.995,6.748c-2.539,3.077 -3.811,7.308 -3.811,12.701c0,7.149 2.275,12.531 6.82,16.134Zm256.831,-46.471l18.344,-1.132c-0.878,-6.646 -3.944,-11.899 -9.193,-15.755c-5.253,-3.86 -12.444,-5.787 -21.568,-5.787c-9.253,0 -16.675,2.006 -22.272,6.021c-5.597,4.012 -8.383,9.499 -8.349,16.463c-0.064,10.975 6.899,17.86 20.883,20.649l12.512,2.494c6.082,1.222 9.174,3.622 9.268,7.198c-0.034,2.131 -1.124,3.887 -3.27,5.268c-2.146,1.378 -4.977,2.066 -8.489,2.066c-3.576,0 -6.498,-0.749 -8.773,-2.256c-2.275,-1.506 -3.728,-3.732 -4.352,-6.68l-19.71,1.033c0.942,6.899 4.25,12.349 9.927,16.346c5.673,4 13.295,5.999 22.859,5.999c6.241,0 11.774,-0.995 16.607,-2.986c4.829,-1.991 8.633,-4.776 11.407,-8.349c2.774,-3.576 4.163,-7.732 4.163,-12.466c-0.034,-10.192 -6.994,-16.713 -20.887,-19.566l-13.076,-2.634c-3.357,-0.723 -5.73,-1.68 -7.126,-2.873c-1.397,-1.188 -2.078,-2.649 -2.047,-4.371c-0.03,-2.165 1.029,-3.898 3.175,-5.2c2.146,-1.302 4.772,-1.953 7.88,-1.953c3.482,0 6.241,0.833 8.277,2.494c2.04,1.661 3.308,3.652 3.811,5.976Zm250.011,46.471c4.545,3.607 10.271,5.412 17.171,5.412c5.333,0 9.745,-1.06 13.242,-3.175c3.493,-2.119 6.12,-4.856 7.876,-8.209l0.568,0l0,10.018l19.002,0l0,-48.731c0,-5.737 -1.434,-10.404 -4.303,-13.995c-2.873,-3.592 -6.642,-6.233 -11.316,-7.925c-4.67,-1.692 -9.689,-2.539 -15.051,-2.539c-8.655,0 -15.717,1.926 -21.19,5.787c-5.473,3.857 -8.898,9.075 -10.279,15.661l18.533,1.506c0.693,-2.415 2.104,-4.405 4.235,-5.972c2.131,-1.571 4.999,-2.354 8.606,-2.354c3.417,0 6.063,0.817 7.929,2.449c1.866,1.627 2.797,3.932 2.797,6.914l0,0.28c0,2.32 -1.347,3.826 -4.046,4.515c-2.698,0.693 -7.179,1.351 -13.45,1.976c-4.769,0.439 -9.216,1.374 -13.337,2.801c-4.121,1.427 -7.456,3.675 -9.995,6.748c-2.539,3.077 -3.811,7.308 -3.811,12.701c0,7.149 2.275,12.531 6.82,16.134Zm93.468,-37.725l0,41.771l-20.039,0l0,-72.252l19.097,0l0,12.75l0.848,0c1.631,-4.205 4.318,-7.535 8.065,-9.995c3.751,-2.464 8.303,-3.694 13.666,-3.694c7.528,0 13.564,2.422 18.109,7.266c4.545,4.844 6.82,11.486 6.82,19.922l0,46.002l-20.036,0l0,-42.429c0.03,-4.42 -1.098,-7.88 -3.387,-10.37c-2.29,-2.494 -5.442,-3.739 -9.458,-3.739c-4.046,0 -7.327,1.291 -9.851,3.879c-2.524,2.589 -3.804,6.218 -3.834,10.888Zm-421.279,-30.481l20.036,0l0,72.252l-20.036,0l0,-72.252Zm228.42,99.346c-2.539,0 -4.916,-0.193 -7.126,-0.587c-2.21,-0.394 -4.038,-0.886 -5.48,-1.48l4.515,-14.961c3.542,1.067 6.551,1.355 9.03,0.87c2.479,-0.484 4.375,-2.422 5.692,-5.809l1.177,-3.058l-25.917,-74.322l21.073,0l14.957,53.06l0.753,0l15.101,-53.06l21.213,0l-28.082,80.063c-2.04,5.832 -5.166,10.502 -9.382,14.014c-4.22,3.512 -10.059,5.268 -17.523,5.268Zm-670.397,-70.511l30.341,0c-0.034,-4.296 -1.412,-7.838 -4.14,-10.631c-2.729,-2.789 -6.271,-4.186 -10.631,-4.186c-4.454,0 -8.107,1.442 -10.96,4.33c-2.854,2.884 -4.39,6.381 -4.61,10.487Zm-117.08,7.293c0,6.426 1.325,11.596 3.974,15.498c2.653,3.906 6.392,5.859 11.221,5.859c4.924,0 8.686,-1.983 11.289,-5.953c2.604,-3.966 3.902,-9.102 3.902,-15.403c0,-6.271 -1.291,-11.361 -3.879,-15.263c-2.589,-3.906 -6.358,-5.859 -11.312,-5.859c-4.863,0 -8.61,1.907 -11.244,5.715c-2.634,3.811 -3.951,8.947 -3.951,15.407Zm294.699,21.356c4.829,0 8.568,-1.953 11.218,-5.859c2.649,-3.902 3.974,-9.072 3.974,-15.498c0,-6.46 -1.317,-11.596 -3.951,-15.407c-2.634,-3.807 -6.381,-5.715 -11.24,-5.715c-4.954,0 -8.727,1.953 -11.312,5.859c-2.589,3.902 -3.883,8.992 -3.883,15.263c0,6.301 1.302,11.437 3.906,15.403c2.6,3.97 6.366,5.953 11.289,5.953Zm792.155,-5.859c-2.649,3.906 -6.388,5.859 -11.218,5.859c-4.924,0 -8.689,-1.983 -11.289,-5.953c-2.604,-3.966 -3.906,-9.102 -3.906,-15.403c0,-6.271 1.294,-11.361 3.883,-15.263c2.585,-3.906 6.358,-5.859 11.312,-5.859c4.859,0 8.606,1.907 11.24,5.715c2.634,3.811 3.951,8.947 3.951,15.407c0,6.426 -1.325,11.596 -3.974,15.498Zm-673.099,4.33c-2.823,2.555 -6.43,3.834 -10.82,3.834c-3.073,0 -5.605,-0.708 -7.596,-2.119c-1.994,-1.412 -2.99,-3.497 -2.99,-6.256c0,-2.823 1.075,-4.969 3.224,-6.445c2.146,-1.472 4.977,-2.46 8.489,-2.963c1.472,-0.22 3.145,-0.477 5.011,-0.776c1.866,-0.295 3.622,-0.651 5.268,-1.056c1.646,-0.409 2.861,-0.878 3.645,-1.412l0,7.668c0,3.792 -1.412,6.967 -4.231,9.526Zm506.841,0c-2.823,2.555 -6.43,3.834 -10.82,3.834c-3.073,0 -5.605,-0.708 -7.596,-2.119c-1.991,-1.412 -2.986,-3.497 -2.986,-6.256c0,-2.823 1.075,-4.969 3.221,-6.445c2.146,-1.472 4.977,-2.46 8.489,-2.963c1.476,-0.22 3.145,-0.477 5.011,-0.776c1.866,-0.295 3.622,-0.651 5.268,-1.056c1.646,-0.409 2.861,-0.878 3.645,-1.412l0,7.668c0,3.792 -1.412,6.967 -4.231,9.526Zm-760.618,67.99c2.135,1.991 4.674,2.986 7.622,2.986c2.978,0 5.533,-0.995 7.668,-2.986c2.131,-1.991 3.198,-4.383 3.198,-7.172c0,-2.793 -1.067,-5.174 -3.198,-7.149c-2.135,-1.976 -4.689,-2.967 -7.668,-2.967c-2.948,0 -5.488,0.992 -7.622,2.967c-2.131,1.976 -3.198,4.356 -3.198,7.149c0,2.789 1.067,5.181 3.198,7.172Zm338.491,2.986c-2.948,0 -5.488,-0.995 -7.618,-2.986c-2.135,-1.991 -3.202,-4.383 -3.202,-7.172c0,-2.793 1.067,-5.174 3.202,-7.149c2.131,-1.976 4.67,-2.967 7.618,-2.967c2.978,0 5.537,0.992 7.668,2.967c2.131,1.976 3.198,4.356 3.198,7.149c0,2.789 -1.067,5.181 -3.198,7.172c-2.131,1.991 -4.689,2.986 -7.668,2.986Zm480.83,39.795l0,41.771l-20.039,0l0,-96.333l19.476,0l0,36.832l0.848,0c1.661,-4.265 4.303,-7.615 7.925,-10.044c3.622,-2.43 8.179,-3.645 13.666,-3.645c7.528,0 13.579,2.415 18.155,7.244c4.579,4.829 6.854,11.479 6.82,19.945l0,46.002l-20.036,0l0,-42.429c0.03,-4.451 -1.09,-7.917 -3.365,-10.393c-2.275,-2.479 -5.45,-3.716 -9.526,-3.716c-4.076,0 -7.41,1.291 -9.995,3.879c-2.585,2.589 -3.894,6.218 -3.928,10.888Zm-219.48,-15.426l0,-15.055l-13.594,0l0,-17.307l-20.039,0l0,17.307l-9.878,0l0,15.055l9.878,0l0,37.63c-0.034,7.089 2.153,12.364 6.562,15.827c4.405,3.467 10.245,5.041 17.519,4.727c2.604,-0.095 4.814,-0.352 6.634,-0.776c1.82,-0.424 3.232,-0.791 4.235,-1.105l-3.153,-14.911c-0.503,0.095 -1.222,0.227 -2.165,0.401c-0.942,0.17 -1.881,0.257 -2.823,0.257c-2.006,0 -3.637,-0.484 -4.89,-1.457c-1.253,-0.973 -1.881,-2.838 -1.881,-5.597l0,-34.996l13.594,0Zm-325.555,-15.055l0,72.252l20.036,0l0,-40.874c0,-4.454 1.45,-8.069 4.352,-10.843c2.903,-2.778 6.562,-4.163 10.983,-4.163c1.381,0 2.903,0.102 4.564,0.303c1.661,0.204 2.963,0.466 3.902,0.776l0,-17.78c-1.976,-0.469 -4.076,-0.704 -6.301,-0.704c-4.046,0 -7.618,1.151 -10.726,3.455c-3.103,2.305 -5.314,5.7 -6.631,10.184l-0.753,0l0,-12.607l-19.426,0Zm-508.347,69.126c5.363,3.024 11.744,4.538 19.143,4.538c8.939,0 16.278,-2.006 22.015,-6.021c5.737,-4.012 9.314,-9.374 10.726,-16.088l-18.533,-1.222c-1.003,2.763 -2.729,4.848 -5.174,6.256c-2.449,1.412 -5.348,2.119 -8.705,2.119c-5.018,0 -9,-1.552 -11.948,-4.659c-2.948,-3.103 -4.42,-7.353 -4.42,-12.747l0,-0.045l49.204,0l0,-5.507c0,-8.182 -1.506,-14.995 -4.515,-20.437c-3.013,-5.442 -7.081,-9.511 -12.209,-12.205c-5.128,-2.698 -10.873,-4.046 -17.239,-4.046c-7.089,0 -13.257,1.567 -18.51,4.704c-5.253,3.134 -9.321,7.509 -12.205,13.121c-2.888,5.616 -4.33,12.137 -4.33,19.57c0,7.618 1.442,14.211 4.33,19.778c2.884,5.567 7.009,9.863 12.372,12.89Zm85.422,3.126l0,-41.771c0.03,-4.67 1.309,-8.3 3.834,-10.888c2.524,-2.589 5.809,-3.879 9.855,-3.879c4.012,0 7.164,1.245 9.454,3.739c2.29,2.49 3.417,5.949 3.387,10.37l0,42.429l20.036,0l0,-46.002c0,-8.436 -2.271,-15.078 -6.82,-19.922c-4.545,-4.844 -10.582,-7.266 -18.109,-7.266c-5.363,0 -9.916,1.23 -13.666,3.694c-3.747,2.46 -6.434,5.79 -8.065,9.995l-0.848,0l0,-12.75l-19.097,0l0,72.252l20.039,0Zm94.876,28.6c-9.723,0 -17.356,-1.938 -22.908,-5.809c-5.552,-3.872 -8.92,-8.648 -10.112,-14.325l18.533,-2.49c0.814,2.195 2.407,4.114 4.772,5.76c2.369,1.646 5.764,2.471 10.184,2.471c4.36,0 7.959,-1.06 10.797,-3.175c2.835,-2.116 4.254,-5.654 4.254,-10.608l0,-13.216l-0.844,0c-1.317,2.978 -3.637,5.681 -6.964,8.114c-3.323,2.43 -7.872,3.645 -13.64,3.645c-5.427,0 -10.358,-1.272 -14.794,-3.811c-4.439,-2.539 -7.967,-6.411 -10.586,-11.619c-2.615,-5.204 -3.925,-11.808 -3.925,-19.801c0,-8.216 1.34,-15.055 4.019,-20.509c2.683,-5.457 6.241,-9.56 10.68,-12.304c4.436,-2.744 9.287,-4.114 14.556,-4.114c4.046,0 7.433,0.681 10.162,2.044c2.729,1.366 4.939,3.05 6.634,5.06c1.692,2.006 2.978,3.997 3.857,5.972l0.753,0l0,-12.137l19.896,0l0,72.96c0,6.146 -1.514,11.289 -4.538,15.426c-3.028,4.14 -7.191,7.255 -12.489,9.34c-5.302,2.085 -11.399,3.126 -18.299,3.126Zm107.388,-70.371l0,41.771l-20.039,0l0,-72.252l19.101,0l0,12.75l0.844,0c1.631,-4.205 4.322,-7.535 8.069,-9.995c3.747,-2.464 8.303,-3.694 13.666,-3.694c7.524,0 13.56,2.422 18.109,7.266c4.545,4.844 6.82,11.486 6.82,19.922l0,46.002l-20.039,0l0,-42.429c0.03,-4.42 -1.098,-7.88 -3.387,-10.37c-2.29,-2.494 -5.438,-3.739 -9.454,-3.739c-4.046,0 -7.331,1.291 -9.855,3.879c-2.524,2.589 -3.8,6.218 -3.834,10.888Zm76.108,38.645c5.363,3.024 11.747,4.538 19.146,4.538c8.935,0 16.274,-2.006 22.015,-6.021c5.737,-4.012 9.31,-9.374 10.722,-16.088l-18.533,-1.222c-1.003,2.763 -2.725,4.848 -5.174,6.256c-2.445,1.412 -5.344,2.119 -8.701,2.119c-5.018,0 -9,-1.552 -11.948,-4.659c-2.948,-3.103 -4.42,-7.353 -4.42,-12.747l0,-0.045l49.2,0l0,-5.507c0,-8.182 -1.506,-14.995 -4.515,-20.437c-3.009,-5.442 -7.077,-9.511 -12.205,-12.205c-5.128,-2.698 -10.873,-4.046 -17.239,-4.046c-7.089,0 -13.257,1.567 -18.51,4.704c-5.253,3.134 -9.321,7.509 -12.205,13.121c-2.888,5.616 -4.33,12.137 -4.33,19.57c0,7.618 1.442,14.211 4.33,19.778c2.884,5.567 7.005,9.863 12.368,12.89Zm98.313,4.538c-7.399,0 -13.784,-1.514 -19.146,-4.538c-5.363,-3.028 -9.484,-7.323 -12.372,-12.89c-2.884,-5.567 -4.326,-12.16 -4.326,-19.778c0,-7.433 1.442,-13.954 4.326,-19.57c2.888,-5.613 6.956,-9.988 12.209,-13.121c5.253,-3.137 11.422,-4.704 18.51,-4.704c6.366,0 12.111,1.347 17.239,4.046c5.128,2.695 9.197,6.763 12.205,12.205c3.009,5.442 4.515,12.255 4.515,20.437l0,5.507l-49.2,0l0,0.045c0,5.393 1.472,9.643 4.42,12.747c2.948,3.107 6.93,4.659 11.948,4.659c3.357,0 6.256,-0.708 8.701,-2.119c2.449,-1.408 4.171,-3.493 5.174,-6.256l18.533,1.222c-1.412,6.714 -4.984,12.077 -10.722,16.088c-5.741,4.015 -13.08,6.021 -22.015,6.021Zm156.452,-1.412l0,-41.771c0.03,-4.67 1.309,-8.3 3.834,-10.888c2.524,-2.589 5.809,-3.879 9.855,-3.879c4.012,0 7.164,1.245 9.454,3.739c2.29,2.49 3.417,5.949 3.387,10.37l0,42.429l20.036,0l0,-46.002c0,-8.436 -2.275,-15.078 -6.82,-19.922c-4.545,-4.844 -10.582,-7.266 -18.109,-7.266c-5.363,0 -9.916,1.23 -13.666,3.694c-3.747,2.46 -6.434,5.79 -8.065,9.995l-0.848,0l0,-12.75l-19.097,0l0,72.252l20.039,0Zm94.876,28.6c-9.723,0 -17.356,-1.938 -22.908,-5.809c-5.552,-3.872 -8.92,-8.648 -10.112,-14.325l18.533,-2.49c0.814,2.195 2.407,4.114 4.772,5.76c2.369,1.646 5.764,2.471 10.184,2.471c4.36,0 7.959,-1.06 10.797,-3.175c2.835,-2.116 4.254,-5.654 4.254,-10.608l0,-13.216l-0.844,0c-1.317,2.978 -3.637,5.681 -6.964,8.114c-3.323,2.43 -7.868,3.645 -13.64,3.645c-5.423,0 -10.355,-1.272 -14.794,-3.811c-4.439,-2.539 -7.967,-6.411 -10.586,-11.619c-2.615,-5.204 -3.925,-11.808 -3.925,-19.801c0,-8.216 1.34,-15.055 4.019,-20.509c2.683,-5.457 6.241,-9.56 10.68,-12.304c4.436,-2.744 9.287,-4.114 14.556,-4.114c4.046,0 7.433,0.681 10.162,2.044c2.729,1.366 4.939,3.05 6.634,5.06c1.692,2.006 2.978,3.997 3.857,5.972l0.753,0l0,-12.137l19.896,0l0,72.96c0,6.146 -1.514,11.289 -4.538,15.426c-3.028,4.14 -7.191,7.255 -12.489,9.34c-5.302,2.085 -11.399,3.126 -18.299,3.126Zm166.14,-27.189c-7.308,0 -13.617,-1.559 -18.934,-4.678c-5.314,-3.122 -9.412,-7.482 -12.3,-13.08c-2.884,-5.597 -4.326,-12.096 -4.326,-19.498c0,-7.463 1.442,-13.992 4.326,-19.589c2.888,-5.597 6.986,-9.957 12.3,-13.076c5.317,-3.122 11.626,-4.682 18.934,-4.682c7.308,0 13.617,1.559 18.934,4.682c5.314,3.119 9.412,7.478 12.3,13.076c2.884,5.597 4.326,12.126 4.326,19.589c0,7.403 -1.442,13.901 -4.326,19.498c-2.888,5.597 -6.986,9.957 -12.3,13.08c-5.317,3.119 -11.626,4.678 -18.934,4.678Zm121.126,-51.928l18.344,-1.132c-0.878,-6.646 -3.944,-11.899 -9.197,-15.755c-5.253,-3.86 -12.444,-5.787 -21.568,-5.787c-9.25,0 -16.675,2.006 -22.272,6.021c-5.597,4.012 -8.379,9.499 -8.349,16.463c-0.064,10.975 6.899,17.86 20.887,20.649l12.512,2.494c6.082,1.222 9.17,3.622 9.265,7.198c-0.03,2.131 -1.12,3.887 -3.27,5.268c-2.146,1.378 -4.977,2.066 -8.489,2.066c-3.576,0 -6.498,-0.749 -8.773,-2.256c-2.275,-1.506 -3.724,-3.732 -4.352,-6.68l-19.706,1.033c0.939,6.899 4.246,12.349 9.923,16.346c5.677,4 13.299,5.999 22.863,5.999c6.241,0 11.774,-0.995 16.603,-2.986c4.829,-1.991 8.633,-4.776 11.407,-8.349c2.774,-3.576 4.163,-7.732 4.163,-12.466c-0.03,-10.192 -6.99,-16.713 -20.883,-19.566l-13.08,-2.634c-3.357,-0.723 -5.73,-1.68 -7.126,-2.873c-1.397,-1.188 -2.078,-2.649 -2.044,-4.371c-0.034,-2.165 1.026,-3.898 3.175,-5.2c2.146,-1.302 4.772,-1.953 7.876,-1.953c3.482,0 6.241,0.833 8.281,2.494c2.04,1.661 3.308,3.652 3.811,5.976Zm118.772,46.471c4.545,3.607 10.268,5.412 17.167,5.412c5.333,0 9.745,-1.06 13.242,-3.175c3.497,-2.119 6.123,-4.856 7.88,-8.209l0.564,0l0,10.018l19.002,0l0,-48.731c0,-5.737 -1.434,-10.404 -4.303,-13.995c-2.869,-3.592 -6.638,-6.233 -11.312,-7.925c-4.674,-1.692 -9.689,-2.539 -15.051,-2.539c-8.655,0 -15.721,1.926 -21.19,5.787c-5.473,3.857 -8.898,9.075 -10.279,15.661l18.533,1.506c0.689,-2.415 2.1,-4.405 4.231,-5.972c2.135,-1.571 5.003,-2.354 8.61,-2.354c3.417,0 6.059,0.817 7.925,2.449c1.866,1.627 2.801,3.932 2.801,6.914l0,0.28c0,2.32 -1.347,3.826 -4.046,4.515c-2.698,0.693 -7.183,1.351 -13.454,1.976c-4.765,0.439 -9.212,1.374 -13.333,2.801c-4.125,1.427 -7.459,3.675 -9.999,6.748c-2.539,3.077 -3.807,7.308 -3.807,12.701c0,7.149 2.275,12.531 6.82,16.134Zm73.425,31.14l0,-99.346l19.759,0l0,12.137l0.893,0c0.908,-1.976 2.195,-3.966 3.857,-5.972c1.661,-2.01 3.857,-3.694 6.585,-5.06c2.729,-1.362 6.097,-2.044 10.112,-2.044c5.302,0 10.162,1.37 14.582,4.114c4.424,2.744 7.974,6.869 10.654,12.372c2.683,5.503 4.023,12.395 4.023,20.675c0,8.057 -1.302,14.855 -3.906,20.391c-2.6,5.533 -6.112,9.719 -10.536,12.557c-4.42,2.838 -9.374,4.258 -14.862,4.258c-3.887,0 -7.187,-0.643 -9.901,-1.93c-2.714,-1.283 -4.928,-2.907 -6.634,-4.867c-1.707,-1.96 -3.031,-3.944 -3.974,-5.949l-0.613,0l0,38.663l-20.039,0Zm97.559,-30.22c5.363,3.024 11.747,4.538 19.146,4.538c8.935,0 16.274,-2.006 22.015,-6.021c5.737,-4.012 9.31,-9.374 10.722,-16.088l-18.533,-1.222c-1.003,2.763 -2.725,4.848 -5.174,6.256c-2.445,1.412 -5.344,2.119 -8.701,2.119c-5.018,0 -9,-1.552 -11.948,-4.659c-2.948,-3.103 -4.424,-7.353 -4.424,-12.747l0,-0.045l49.204,0l0,-5.507c0,-8.182 -1.506,-14.995 -4.515,-20.437c-3.009,-5.442 -7.077,-9.511 -12.205,-12.205c-5.128,-2.698 -10.873,-4.046 -17.243,-4.046c-7.085,0 -13.254,1.567 -18.507,4.704c-5.253,3.134 -9.321,7.509 -12.209,13.121c-2.884,5.616 -4.326,12.137 -4.326,19.57c0,7.618 1.442,14.211 4.326,19.778c2.888,5.567 7.009,9.863 12.372,12.89Zm-1058.84,-69.126l0,72.252l20.039,0l0,-72.252l-20.039,0Zm330.869,72.252l0,-72.252l20.039,0l0,72.252l-20.039,0Zm-529.042,-43.417l-30.341,0c0.22,-4.106 1.756,-7.603 4.61,-10.487c2.854,-2.888 6.506,-4.33 10.96,-4.33c4.36,0 7.902,1.397 10.631,4.186c2.729,2.793 4.106,6.335 4.14,10.631Zm363.795,0l-30.337,0c0.22,-4.106 1.756,-7.603 4.61,-10.487c2.854,-2.888 6.506,-4.33 10.96,-4.33c4.356,0 7.902,1.397 10.631,4.186c2.729,2.793 4.106,6.335 4.137,10.631Zm48.829,0l30.337,0c-0.03,-4.296 -1.408,-7.838 -4.137,-10.631c-2.729,-2.789 -6.275,-4.186 -10.631,-4.186c-4.454,0 -8.107,1.442 -10.96,4.33c-2.854,2.884 -4.39,6.381 -4.61,10.487Zm877.834,0l-30.341,0c0.22,-4.106 1.756,-7.603 4.613,-10.487c2.854,-2.888 6.506,-4.33 10.956,-4.33c4.36,0 7.902,1.397 10.631,4.186c2.729,2.793 4.11,6.335 4.14,10.631Zm-444.233,29.308c4.954,0 8.712,-2.07 11.267,-6.211c2.555,-4.14 3.834,-9.359 3.834,-15.664c0,-6.301 -1.279,-11.532 -3.834,-15.687c-2.555,-4.155 -6.313,-6.233 -11.267,-6.233c-5.049,0 -8.86,2.078 -11.429,6.233c-2.57,4.155 -3.857,9.386 -3.857,15.687c0,6.305 1.287,11.524 3.857,15.664c2.57,4.14 6.381,6.211 11.429,6.211Zm-698.948,-1.976c4.829,0 8.568,-1.79 11.218,-5.363c2.649,-3.576 3.974,-8.546 3.974,-14.911c0,-6.335 -1.317,-11.399 -3.951,-15.195c-2.634,-3.792 -6.381,-5.692 -11.24,-5.692c-4.954,0 -8.727,1.945 -11.312,5.832c-2.589,3.891 -3.883,8.909 -3.883,15.055c0,6.241 1.302,11.18 3.906,14.817c2.604,3.637 6.366,5.457 11.289,5.457Zm533.137,0c4.829,0 8.568,-1.79 11.218,-5.363c2.649,-3.576 3.974,-8.546 3.974,-14.911c0,-6.335 -1.317,-11.399 -3.951,-15.195c-2.634,-3.792 -6.381,-5.692 -11.24,-5.692c-4.954,0 -8.727,1.945 -11.312,5.832c-2.589,3.891 -3.883,8.909 -3.883,15.055c0,6.241 1.302,11.18 3.906,14.817c2.6,3.637 6.366,5.457 11.289,5.457Zm498.655,-20.039c0,6.426 1.325,11.596 3.978,15.498c2.649,3.906 6.388,5.859 11.218,5.859c4.924,0 8.686,-1.983 11.289,-5.953c2.6,-3.966 3.902,-9.102 3.902,-15.403c0,-6.271 -1.294,-11.361 -3.879,-15.263c-2.585,-3.906 -6.358,-5.859 -11.312,-5.859c-4.863,0 -8.61,1.907 -11.244,5.715c-2.634,3.811 -3.951,8.947 -3.951,15.407Zm-59.316,19.828c-2.82,2.555 -6.426,3.834 -10.816,3.834c-3.073,0 -5.605,-0.708 -7.599,-2.119c-1.991,-1.412 -2.986,-3.497 -2.986,-6.256c0,-2.823 1.075,-4.969 3.224,-6.445c2.146,-1.472 4.977,-2.46 8.489,-2.963c1.472,-0.22 3.145,-0.477 5.011,-0.776c1.866,-0.295 3.622,-0.651 5.268,-1.056c1.646,-0.409 2.861,-0.878 3.645,-1.412l0,7.668c0,3.792 -1.412,6.967 -4.235,9.526Zm-828.725,70.976c-2.948,0 -5.488,-0.995 -7.622,-2.986c-2.131,-1.991 -3.198,-4.383 -3.198,-7.172c0,-2.793 1.067,-5.174 3.198,-7.149c2.135,-1.976 4.674,-2.967 7.622,-2.967c2.978,0 5.533,0.992 7.668,2.967c2.131,1.976 3.198,4.356 3.198,7.149c0,2.789 -1.067,5.181 -3.198,7.172c-2.135,1.991 -4.689,2.986 -7.668,2.986Zm119.9,0c-2.948,0 -5.488,-0.995 -7.618,-2.986c-2.131,-1.991 -3.198,-4.383 -3.198,-7.172c0,-2.793 1.067,-5.174 3.198,-7.149c2.131,-1.976 4.67,-2.967 7.618,-2.967c2.978,0 5.537,0.992 7.668,2.967c2.131,1.976 3.198,4.356 3.198,7.149c0,2.789 -1.067,5.181 -3.198,7.172c-2.131,1.991 -4.689,2.986 -7.668,2.986Zm-386.657,81.566l0,-41.771c0.03,-4.67 1.34,-8.3 3.928,-10.888c2.585,-2.589 5.919,-3.879 9.995,-3.879c4.076,0 7.251,1.238 9.526,3.716c2.275,2.475 3.395,5.942 3.365,10.393l0,42.429l20.036,0l0,-46.002c0.034,-8.466 -2.24,-15.116 -6.82,-19.945c-4.579,-4.829 -10.631,-7.244 -18.159,-7.244c-5.488,0 -10.041,1.215 -13.662,3.645c-3.622,2.43 -6.264,5.779 -7.929,10.044l-0.844,0l0,-36.832l-19.476,0l0,96.333l20.039,0Zm184.299,-3.081c4.42,2.838 9.374,4.258 14.862,4.258c3.891,0 7.191,-0.643 9.904,-1.93c2.71,-1.283 4.931,-2.907 6.653,-4.867c1.726,-1.96 3.043,-3.944 3.951,-5.949l0.848,0l0,11.57l19.756,0l0,-96.333l-19.99,0l0,36.219l-0.613,0c-0.878,-1.976 -2.153,-3.966 -3.834,-5.972c-1.677,-2.01 -3.872,-3.694 -6.585,-5.06c-2.71,-1.362 -6.089,-2.044 -10.135,-2.044c-5.268,0 -10.12,1.37 -14.559,4.114c-4.436,2.744 -7.997,6.869 -10.676,12.372c-2.683,5.503 -4.023,12.395 -4.023,20.675c0,8.057 1.302,14.855 3.906,20.391c2.6,5.533 6.112,9.719 10.536,12.557Zm376.685,3.081l0,-96.333l-20.039,0l0,96.333l20.039,0Zm276.915,0l0,-96.333l-20.036,0l0,96.333l20.036,0Zm-870.969,-57.197l0,-15.055l-13.594,0l0,-17.307l-20.036,0l0,17.307l-9.878,0l0,15.055l9.878,0l0,37.63c-0.034,7.089 2.153,12.364 6.562,15.827c4.405,3.467 10.245,5.041 17.519,4.727c2.604,-0.095 4.814,-0.352 6.634,-0.776c1.817,-0.424 3.228,-0.791 4.231,-1.105l-3.149,-14.911c-0.503,0.095 -1.222,0.227 -2.165,0.401c-0.942,0.17 -1.881,0.257 -2.823,0.257c-2.006,0 -3.637,-0.484 -4.89,-1.457c-1.256,-0.973 -1.885,-2.838 -1.885,-5.597l0,-34.996l13.594,0Zm484.122,0l0,-15.055l-13.594,0l0,-17.307l-20.036,0l0,17.307l-9.878,0l0,15.055l9.878,0l0,37.63c-0.034,7.089 2.153,12.364 6.562,15.827c4.405,3.467 10.245,5.041 17.519,4.727c2.604,-0.095 4.814,-0.352 6.634,-0.776c1.82,-0.424 3.228,-0.791 4.231,-1.105l-3.149,-14.911c-0.503,0.095 -1.222,0.227 -2.165,0.401c-0.942,0.17 -1.881,0.257 -2.823,0.257c-2.006,0 -3.637,-0.484 -4.89,-1.457c-1.256,-0.973 -1.885,-2.838 -1.885,-5.597l0,-34.996l13.594,0Zm156.641,-15.055l19.426,0l0,12.607l0.753,0c1.317,-4.485 3.527,-7.88 6.631,-10.184c3.107,-2.305 6.68,-3.455 10.726,-3.455c2.229,0 4.33,0.235 6.305,0.704l0,17.78c-0.942,-0.31 -2.244,-0.571 -3.906,-0.776c-1.661,-0.201 -3.183,-0.303 -4.56,-0.303c-4.424,0 -8.084,1.385 -10.987,4.163c-2.899,2.774 -4.349,6.388 -4.349,10.843l0,40.874l-20.039,0l0,-72.252Zm-512.109,73.663c-7.403,0 -13.784,-1.514 -19.146,-4.538c-5.363,-3.028 -9.484,-7.323 -12.372,-12.89c-2.884,-5.567 -4.326,-12.16 -4.326,-19.778c0,-7.433 1.442,-13.954 4.326,-19.57c2.888,-5.613 6.956,-9.988 12.209,-13.121c5.249,-3.137 11.422,-4.704 18.507,-4.704c6.366,0 12.115,1.347 17.243,4.046c5.124,2.695 9.193,6.763 12.205,12.205c3.009,5.442 4.515,12.255 4.515,20.437l0,5.507l-49.204,0l0,0.045c0,5.393 1.476,9.643 4.424,12.747c2.948,3.107 6.93,4.659 11.948,4.659c3.353,0 6.256,-0.708 8.701,-2.119c2.445,-1.408 4.171,-3.493 5.174,-6.256l18.533,1.226c-1.412,6.71 -4.984,12.073 -10.726,16.085c-5.737,4.015 -13.076,6.021 -22.011,6.021Zm206.779,21.379c5.552,3.872 13.186,5.809 22.908,5.809c6.899,0 13,-1.041 18.299,-3.126c5.302,-2.085 9.465,-5.2 12.489,-9.34c3.028,-4.137 4.542,-9.28 4.542,-15.426l0,-72.96l-19.899,0l0,12.137l-0.753,0c-0.878,-1.976 -2.165,-3.966 -3.857,-5.972c-1.692,-2.01 -3.902,-3.694 -6.631,-5.06c-2.729,-1.362 -6.116,-2.044 -10.162,-2.044c-5.268,0 -10.12,1.37 -14.559,4.114c-4.436,2.744 -7.997,6.846 -10.676,12.304c-2.683,5.454 -4.023,12.292 -4.023,20.509c0,7.993 1.309,14.597 3.928,19.801c2.619,5.204 6.146,9.079 10.582,11.619c4.439,2.539 9.371,3.811 14.794,3.811c5.772,0 10.317,-1.215 13.643,-3.645c3.323,-2.433 5.643,-5.136 6.96,-8.114l0.848,0l0,13.216c0,4.954 -1.419,8.493 -4.258,10.608c-2.838,2.116 -6.438,3.175 -10.794,3.175c-4.424,0 -7.819,-0.825 -10.184,-2.471c-2.369,-1.646 -3.962,-3.565 -4.776,-5.76l-18.533,2.49c1.192,5.677 4.564,10.453 10.112,14.325Zm182.323,-21.425c-6.899,0 -12.622,-1.805 -17.167,-5.412c-4.549,-3.607 -6.824,-8.985 -6.824,-16.134c0,-5.393 1.272,-9.624 3.811,-12.701c2.539,-3.073 5.874,-5.321 9.995,-6.748c4.125,-1.427 8.572,-2.362 13.337,-2.801c6.271,-0.624 10.756,-1.283 13.454,-1.976c2.695,-0.689 4.042,-2.195 4.042,-4.515l0,-0.28c0,-2.982 -0.931,-5.287 -2.797,-6.914c-1.866,-1.631 -4.507,-2.449 -7.925,-2.449c-3.607,0 -6.479,0.783 -8.61,2.354c-2.131,1.567 -3.542,3.558 -4.231,5.972l-18.533,-1.506c1.378,-6.585 4.803,-11.804 10.275,-15.661c5.473,-3.86 12.538,-5.787 21.194,-5.787c5.363,0 10.377,0.848 15.051,2.539c4.674,1.692 8.443,4.333 11.312,7.925c2.869,3.592 4.303,8.258 4.303,13.995l0,48.731l-19.002,0l0,-10.018l-0.564,0c-1.756,3.357 -4.383,6.093 -7.88,8.209c-3.497,2.116 -7.91,3.175 -13.242,3.175Zm190.929,-4.492c5.363,3.024 11.747,4.538 19.146,4.538c8.935,0 16.274,-2.006 22.015,-6.021c5.737,-4.012 9.314,-9.374 10.726,-16.085l-18.533,-1.226c-1.003,2.763 -2.729,4.848 -5.177,6.256c-2.445,1.412 -5.344,2.119 -8.701,2.119c-5.018,0 -9,-1.552 -11.948,-4.659c-2.948,-3.103 -4.42,-7.353 -4.42,-12.747l0,-0.045l49.2,0l0,-5.507c0,-8.182 -1.506,-14.995 -4.515,-20.437c-3.009,-5.442 -7.077,-9.511 -12.205,-12.205c-5.128,-2.698 -10.873,-4.046 -17.239,-4.046c-7.089,0 -13.257,1.567 -18.51,4.704c-5.253,3.134 -9.321,7.509 -12.205,13.121c-2.888,5.616 -4.33,12.137 -4.33,19.57c0,7.618 1.442,14.211 4.33,19.778c2.884,5.567 7.005,9.863 12.368,12.89Zm85.99,4.492c-6.899,0 -12.625,-1.805 -17.171,-5.412c-4.545,-3.607 -6.82,-8.985 -6.82,-16.134c0,-5.393 1.272,-9.624 3.811,-12.701c2.539,-3.073 5.87,-5.321 9.995,-6.748c4.121,-1.427 8.568,-2.362 13.333,-2.801c6.271,-0.624 10.756,-1.283 13.454,-1.976c2.698,-0.689 4.046,-2.195 4.046,-4.515l0,-0.28c0,-2.982 -0.935,-5.287 -2.801,-6.914c-1.866,-1.631 -4.507,-2.449 -7.925,-2.449c-3.607,0 -6.475,0.783 -8.606,2.354c-2.135,1.567 -3.546,3.558 -4.235,5.972l-18.533,-1.506c1.381,-6.585 4.806,-11.804 10.279,-15.661c5.473,-3.86 12.535,-5.787 21.19,-5.787c5.363,0 10.377,0.848 15.051,2.539c4.674,1.692 8.443,4.333 11.312,7.925c2.873,3.592 4.307,8.258 4.307,13.995l0,48.731l-19.006,0l0,-10.018l-0.564,0c-1.756,3.357 -4.383,6.093 -7.88,8.209c-3.497,2.116 -7.91,3.175 -13.239,3.175Zm92.287,-73.618l19.097,0l0,12.75l0.848,0c1.506,-4.265 4.023,-7.615 7.55,-10.044c3.527,-2.43 7.721,-3.645 12.584,-3.645c4.954,0 9.17,1.23 12.652,3.694c3.482,2.46 5.802,5.79 6.964,9.995l0.749,0c1.476,-4.14 4.152,-7.456 8.023,-9.95c3.872,-2.494 8.459,-3.739 13.757,-3.739c6.74,0 12.22,2.138 16.44,6.419c4.22,4.28 6.328,10.343 6.328,18.181l0,48.59l-19.994,0l0,-44.639c0,-4.012 -1.067,-7.024 -3.198,-9.03c-2.131,-2.006 -4.799,-3.013 -7.997,-3.013c-3.637,0 -6.472,1.162 -8.512,3.482c-2.04,2.32 -3.058,5.348 -3.058,9.079l0,44.121l-19.426,0l0,-45.063c0,-3.542 -1.01,-6.366 -3.035,-8.466c-2.025,-2.1 -4.682,-3.153 -7.974,-3.153c-3.323,0 -6.112,1.215 -8.372,3.648c-2.259,2.43 -3.387,5.65 -3.387,9.666l0,43.368l-20.039,0l0,-72.252Zm-597.202,0l20.039,0l0,72.252l-20.039,0l0,-72.252Zm119.9,0l20.039,0l0,72.252l-20.039,0l0,-72.252Zm-297.049,28.835l30.341,0c-0.03,-4.296 -1.412,-7.838 -4.14,-10.631c-2.729,-2.789 -6.271,-4.186 -10.631,-4.186c-4.451,0 -8.107,1.442 -10.96,4.33c-2.854,2.884 -4.39,6.381 -4.61,10.487Zm629.519,0l-30.337,0c0.22,-4.106 1.756,-7.603 4.61,-10.487c2.854,-2.888 6.506,-4.33 10.96,-4.33c4.356,0 7.902,1.397 10.631,4.186c2.729,2.793 4.106,6.335 4.137,10.631Zm-492.331,22.791c-2.649,3.906 -6.388,5.859 -11.218,5.859c-4.924,0 -8.686,-1.983 -11.289,-5.953c-2.604,-3.966 -3.902,-9.102 -3.902,-15.403c0,-6.271 1.291,-11.361 3.879,-15.263c2.589,-3.906 6.358,-5.859 11.312,-5.859c4.863,0 8.61,1.907 11.244,5.715c2.634,3.811 3.951,8.947 3.951,15.407c0,6.426 -1.325,11.596 -3.978,15.498Zm120.188,-0.821c-2.653,3.573 -6.392,5.363 -11.221,5.363c-4.924,0 -8.686,-1.82 -11.289,-5.457c-2.6,-3.637 -3.902,-8.576 -3.902,-14.817c0,-6.146 1.294,-11.165 3.879,-15.055c2.585,-3.887 6.358,-5.832 11.312,-5.832c4.863,0 8.61,1.9 11.244,5.692c2.634,3.796 3.951,8.86 3.951,15.195c0,6.366 -1.325,11.335 -3.974,14.911Zm153.507,8.985c4.394,0 8.001,-1.279 10.82,-3.834c2.823,-2.558 4.235,-5.734 4.235,-9.526l0,-7.668c-0.783,0.534 -1.998,1.003 -3.645,1.412c-1.646,0.405 -3.406,0.761 -5.272,1.056c-1.866,0.299 -3.535,0.556 -5.007,0.776c-3.512,0.503 -6.343,1.491 -8.493,2.963c-2.146,1.476 -3.221,3.622 -3.221,6.445c0,2.759 0.995,4.844 2.986,6.256c1.991,1.412 4.523,2.119 7.596,2.119Zm276.919,0c4.39,0 7.997,-1.279 10.82,-3.834c2.82,-2.558 4.231,-5.734 4.231,-9.526l0,-7.668c-0.783,0.534 -1.998,1.003 -3.645,1.412c-1.646,0.405 -3.402,0.761 -5.268,1.056c-1.866,0.299 -3.539,0.556 -5.011,0.776c-3.512,0.503 -6.343,1.491 -8.489,2.963c-2.15,1.476 -3.224,3.622 -3.224,6.445c0,2.759 0.995,4.844 2.99,6.256c1.991,1.412 4.523,2.119 7.596,2.119Zm211.063,10.393c2.225,2.195 4.89,3.293 7.997,3.293c3.009,0 5.635,-1.098 7.876,-3.293c2.244,-2.195 3.38,-4.859 3.414,-7.997c-0.034,-3.073 -1.169,-5.707 -3.414,-7.902c-2.24,-2.195 -4.867,-3.293 -7.876,-3.293c-3.107,0 -5.772,1.098 -7.997,3.293c-2.229,2.195 -3.327,4.829 -3.293,7.902c-0.034,3.137 1.063,5.802 3.293,7.997Z" style="fill:#fff;"/></g><g id="you-could-say-I-design-and-I-code-but-that-sounds-lame."></g><g id="profilesrussellcamo"><path d="M2755.613,641.808l0,-3.55l-4.9,0l0,-2.042c0,-1.008 0.229,-1.775 0.688,-2.308c0.458,-0.533 1.225,-0.8 2.304,-0.8c0.462,0 0.858,0.037 1.183,0.117c0.325,0.079 0.592,0.154 0.796,0.225l1.038,-3.583c-0.304,-0.117 -0.775,-0.246 -1.404,-0.392c-0.633,-0.142 -1.396,-0.213 -2.296,-0.213c-1.192,0 -2.304,0.233 -3.329,0.7c-1.025,0.471 -1.85,1.175 -2.479,2.117c-0.625,0.942 -0.938,2.125 -0.938,3.546l0,2.633l-3.508,0l0,3.55l3.508,0l0,19.175l4.438,0l0,-19.175l4.9,0Zm83.642,-12.546l-9.763,36.279l-3.954,0l9.767,-36.279l3.95,0Zm-76.85,5.488c-0.771,0 -1.429,-0.258 -1.975,-0.775c-0.55,-0.521 -0.825,-1.138 -0.825,-1.858c0,-0.729 0.275,-1.354 0.825,-1.871c0.546,-0.517 1.204,-0.779 1.975,-0.779c0.758,0 1.412,0.262 1.967,0.779c0.554,0.517 0.829,1.142 0.829,1.871c0,0.721 -0.275,1.338 -0.829,1.858c-0.554,0.517 -1.208,0.775 -1.967,0.775Zm12.562,26.233l0,-30.3l-4.425,0l0,30.3l4.425,0Zm182.392,-30.3l0,30.3l-4.421,0l0,-30.3l4.421,0Zm10.375,30.3l0,-30.3l-4.425,0l0,30.3l4.425,0Zm-259.767,-22.725l-4.275,0l0,22.725l4.425,0l0,-13.879c0,-1.488 0.512,-2.713 1.538,-3.675c1.025,-0.963 2.321,-1.442 3.892,-1.442c0.462,0 0.921,0.029 1.367,0.096c0.45,0.062 0.762,0.121 0.942,0.171l0,-4.233c-0.217,-0.029 -0.512,-0.054 -0.887,-0.075c-0.375,-0.021 -0.708,-0.029 -0.992,-0.029c-1.333,0 -2.525,0.354 -3.575,1.058c-1.05,0.704 -1.783,1.671 -2.196,2.892l-0.238,0l0,-3.608Zm139.337,0l-4.275,0l0,22.725l4.425,0l0,-13.879c0,-1.488 0.512,-2.713 1.537,-3.675c1.025,-0.963 2.321,-1.442 3.892,-1.442c0.463,0 0.921,0.029 1.367,0.096c0.45,0.062 0.762,0.121 0.942,0.171l0,-4.233c-0.217,-0.029 -0.512,-0.054 -0.887,-0.075c-0.375,-0.021 -0.708,-0.029 -0.992,-0.029c-1.333,0 -2.525,0.354 -3.575,1.058c-1.05,0.704 -1.783,1.671 -2.196,2.892l-0.238,0l0,-3.608Zm-169.329,0l0,31.25l4.425,0l0,-12.058l0.267,0c0.267,0.483 0.646,1.033 1.146,1.654c0.496,0.621 1.179,1.167 2.05,1.629c0.867,0.463 1.992,0.696 3.371,0.696c1.837,0 3.467,-0.471 4.9,-1.404c1.429,-0.937 2.554,-2.287 3.371,-4.05c0.821,-1.758 1.229,-3.863 1.229,-6.308c0,-2.458 -0.413,-4.558 -1.242,-6.304c-0.829,-1.746 -1.962,-3.083 -3.396,-4.008c-1.438,-0.929 -3.071,-1.392 -4.904,-1.392c-1.404,0 -2.533,0.233 -3.396,0.7c-0.867,0.471 -1.533,1.017 -2.012,1.638c-0.479,0.621 -0.85,1.167 -1.117,1.642l-0.371,0l0,-3.683l-4.321,0Zm51.3,23.183c-2.133,0 -3.992,-0.487 -5.579,-1.463c-1.587,-0.979 -2.821,-2.346 -3.7,-4.108c-0.879,-1.758 -1.317,-3.808 -1.317,-6.146c0,-2.358 0.438,-4.421 1.317,-6.183c0.879,-1.767 2.113,-3.138 3.7,-4.117c1.588,-0.975 3.446,-1.462 5.579,-1.462c2.138,0 4,0.487 5.583,1.462c1.583,0.979 2.817,2.35 3.692,4.117c0.879,1.762 1.317,3.825 1.317,6.183c0,2.338 -0.438,4.387 -1.317,6.146c-0.875,1.762 -2.108,3.129 -3.692,4.108c-1.583,0.975 -3.446,1.463 -5.583,1.463Zm61.433,0c-2.229,0 -4.154,-0.483 -5.771,-1.45c-1.617,-0.967 -2.863,-2.325 -3.737,-4.075c-0.871,-1.75 -1.308,-3.8 -1.308,-6.146c0,-2.329 0.438,-4.383 1.308,-6.158c0.875,-1.775 2.1,-3.158 3.671,-4.158c1.575,-0.996 3.417,-1.492 5.525,-1.492c1.717,0 3.342,0.383 4.875,1.146c1.537,0.762 2.783,1.983 3.746,3.654c0.962,1.671 1.442,3.879 1.442,6.621l0,1.571l-16.158,0c0.058,2.188 0.675,3.875 1.85,5.058c1.175,1.183 2.708,1.775 4.604,1.775c1.262,0 2.35,-0.271 3.267,-0.812c0.921,-0.542 1.575,-1.35 1.971,-2.425l4.188,0.754c-0.504,1.842 -1.587,3.329 -3.258,4.454c-1.667,1.125 -3.738,1.683 -6.213,1.683Zm27.7,-16.925l4.008,-0.712c-0.454,-1.763 -1.387,-3.179 -2.796,-4.246c-1.412,-1.062 -3.346,-1.596 -5.8,-1.596c-1.708,0 -3.221,0.279 -4.542,0.842c-1.325,0.562 -2.358,1.35 -3.108,2.363c-0.75,1.008 -1.125,2.188 -1.125,3.529c0,1.604 0.504,2.942 1.508,4.008c1.008,1.067 2.575,1.833 4.708,2.308l3.846,0.842c2.142,0.475 3.208,1.437 3.208,2.887c0,0.875 -0.433,1.621 -1.3,2.225c-0.867,0.608 -2.029,0.912 -3.479,0.912c-2.721,0 -4.35,-1.125 -4.879,-3.375l-4.279,0.65c0.375,2.013 1.363,3.563 2.958,4.654c1.6,1.092 3.675,1.633 6.229,1.633c1.838,0 3.45,-0.3 4.846,-0.9c1.4,-0.604 2.487,-1.429 3.271,-2.488c0.783,-1.054 1.179,-2.267 1.179,-3.637c0,-3.15 -2.075,-5.2 -6.217,-6.158l-3.608,-0.829c-1.254,-0.292 -2.163,-0.671 -2.729,-1.129c-0.571,-0.458 -0.85,-1.075 -0.837,-1.842c-0.013,-0.879 0.404,-1.596 1.25,-2.154c0.842,-0.558 1.892,-0.838 3.146,-0.838c1.379,0 2.417,0.321 3.113,0.954c0.696,0.637 1.171,1.337 1.429,2.096Zm78.421,0l4.008,-0.712c-0.454,-1.763 -1.387,-3.179 -2.796,-4.246c-1.413,-1.062 -3.346,-1.596 -5.8,-1.596c-1.708,0 -3.221,0.279 -4.542,0.842c-1.325,0.562 -2.358,1.35 -3.108,2.363c-0.75,1.008 -1.125,2.188 -1.125,3.529c0,1.604 0.504,2.942 1.508,4.008c1.008,1.067 2.575,1.833 4.704,2.308l3.85,0.842c2.142,0.475 3.208,1.437 3.208,2.887c0,0.875 -0.433,1.621 -1.3,2.225c-0.867,0.608 -2.029,0.912 -3.479,0.912c-2.721,0 -4.35,-1.125 -4.883,-3.375l-4.275,0.65c0.375,2.013 1.363,3.563 2.958,4.654c1.6,1.092 3.675,1.633 6.233,1.633c1.833,0 3.446,-0.3 4.842,-0.9c1.4,-0.604 2.487,-1.429 3.271,-2.488c0.788,-1.054 1.179,-2.267 1.179,-3.637c0,-3.15 -2.075,-5.2 -6.217,-6.158l-3.608,-0.829c-1.254,-0.292 -2.163,-0.671 -2.733,-1.129c-0.567,-0.458 -0.846,-1.075 -0.833,-1.842c-0.013,-0.879 0.404,-1.596 1.25,-2.154c0.842,-0.558 1.892,-0.838 3.142,-0.838c1.383,0 2.421,0.321 3.117,0.954c0.696,0.637 1.171,1.337 1.429,2.096Zm26.337,-0.712l-4.012,0.712c-0.254,-0.758 -0.729,-1.458 -1.425,-2.096c-0.696,-0.633 -1.733,-0.954 -3.117,-0.954c-1.25,0 -2.3,0.279 -3.142,0.838c-0.846,0.558 -1.262,1.275 -1.25,2.154c-0.012,0.767 0.267,1.383 0.833,1.842c0.567,0.458 1.479,0.838 2.729,1.129l3.612,0.829c4.142,0.958 6.213,3.008 6.213,6.158c0,1.371 -0.392,2.583 -1.175,3.637c-0.783,1.058 -1.875,1.883 -3.271,2.488c-1.396,0.6 -3.008,0.9 -4.846,0.9c-2.554,0 -4.629,-0.542 -6.229,-1.633c-1.596,-1.092 -2.583,-2.642 -2.958,-4.654l4.275,-0.65c0.533,2.25 2.163,3.375 4.883,3.375c1.45,0 2.608,-0.304 3.479,-0.912c0.867,-0.604 1.3,-1.35 1.3,-2.225c0,-1.45 -1.071,-2.413 -3.212,-2.887l-3.846,-0.842c-2.129,-0.475 -3.7,-1.242 -4.704,-2.308c-1.008,-1.067 -1.508,-2.404 -1.508,-4.008c0,-1.342 0.375,-2.521 1.125,-3.529c0.75,-1.013 1.783,-1.8 3.104,-2.363c1.325,-0.562 2.838,-0.842 4.542,-0.842c2.458,0 4.392,0.533 5.804,1.596c1.408,1.067 2.342,2.483 2.796,4.246Zm9.321,16.188c1.617,0.967 3.542,1.45 5.771,1.45c2.475,0 4.546,-0.558 6.213,-1.683c1.667,-1.125 2.754,-2.612 3.258,-4.454l-4.188,-0.754c-0.396,1.075 -1.05,1.883 -1.971,2.425c-0.917,0.542 -2.004,0.812 -3.267,0.812c-1.896,0 -3.429,-0.592 -4.604,-1.775c-1.175,-1.183 -1.787,-2.871 -1.85,-5.058l16.158,0l0,-1.571c0,-2.742 -0.479,-4.95 -1.442,-6.621c-0.963,-1.671 -2.208,-2.892 -3.746,-3.654c-1.533,-0.762 -3.158,-1.146 -4.875,-1.146c-2.108,0 -3.95,0.496 -5.525,1.492c-1.575,1 -2.796,2.383 -3.671,4.158c-0.871,1.775 -1.308,3.829 -1.308,6.158c0,2.346 0.438,4.396 1.308,6.146c0.875,1.75 2.121,3.108 3.738,4.075Zm50.767,1.45c-2.2,0 -4.092,-0.5 -5.675,-1.5c-1.583,-1 -2.8,-2.383 -3.646,-4.15c-0.85,-1.767 -1.275,-3.787 -1.275,-6.067c0,-2.317 0.433,-4.358 1.304,-6.125c0.867,-1.767 2.092,-3.146 3.675,-4.146c1.583,-0.996 3.442,-1.492 5.571,-1.492c1.729,0 3.267,0.317 4.617,0.954c1.354,0.633 2.446,1.525 3.279,2.671c0.833,1.142 1.329,2.479 1.488,4.008l-4.308,0c-0.238,-1.062 -0.775,-1.983 -1.621,-2.75c-0.842,-0.771 -1.967,-1.154 -3.379,-1.154c-1.846,0 -3.333,0.713 -4.462,2.137c-1.129,1.425 -1.692,3.354 -1.692,5.792c0,2.475 0.558,4.442 1.671,5.896c1.117,1.454 2.608,2.183 4.483,2.183c1.262,0 2.342,-0.346 3.242,-1.037c0.896,-0.688 1.483,-1.646 1.758,-2.871l4.308,0c-0.158,1.471 -0.638,2.783 -1.438,3.938c-0.8,1.154 -1.867,2.062 -3.204,2.721c-1.333,0.662 -2.9,0.992 -4.696,0.992Zm16.8,-0.754c1.158,0.533 2.458,0.8 3.9,0.8c1.883,0 3.367,-0.387 4.454,-1.167c1.083,-0.783 1.837,-1.596 2.262,-2.442l0.179,0l0,3.104l4.321,0l0,-15.092c0,-1.658 -0.283,-3.004 -0.854,-4.037c-0.567,-1.037 -1.3,-1.837 -2.204,-2.404c-0.9,-0.567 -1.858,-0.958 -2.875,-1.171c-1.017,-0.213 -1.979,-0.317 -2.887,-0.317c-2.05,0 -3.942,0.45 -5.675,1.346c-1.729,0.896 -2.967,2.383 -3.704,4.454l4.158,0.946c0.325,-0.808 0.913,-1.538 1.767,-2.188c0.854,-0.654 2.025,-0.979 3.512,-0.979c1.433,0 2.508,0.354 3.233,1.067c0.725,0.708 1.088,1.713 1.088,3.004l0,0.104c0,0.529 -0.192,0.917 -0.583,1.154c-0.387,0.233 -1.004,0.404 -1.85,0.508c-0.842,0.104 -1.946,0.233 -3.304,0.392c-1.079,0.129 -2.133,0.312 -3.167,0.554c-1.037,0.242 -1.971,0.604 -2.804,1.088c-0.833,0.483 -1.5,1.142 -2,1.971c-0.496,0.829 -0.746,1.887 -0.746,3.179c0,1.492 0.342,2.75 1.021,3.779c0.679,1.033 1.6,1.817 2.758,2.346Zm21.004,-22.429l4.246,0l0,3.7l0.283,0c0.471,-1.254 1.246,-2.233 2.321,-2.938c1.075,-0.708 2.363,-1.058 3.863,-1.058c1.521,0 2.796,0.354 3.825,1.062c1.029,0.713 1.792,1.688 2.287,2.933l0.238,0c0.55,-1.217 1.417,-2.183 2.596,-2.908c1.179,-0.725 2.587,-1.087 4.225,-1.087c2.058,0 3.746,0.646 5.05,1.946c1.308,1.296 1.962,3.242 1.962,5.838l0,15.237l-4.425,0l0,-14.825c0,-1.538 -0.417,-2.654 -1.25,-3.342c-0.833,-0.692 -1.837,-1.037 -3.012,-1.037c-1.438,0 -2.558,0.442 -3.358,1.333c-0.8,0.887 -1.196,2.017 -1.196,3.388l0,14.483l-4.413,0l0,-15.104c0,-1.233 -0.383,-2.225 -1.154,-2.975c-0.767,-0.75 -1.771,-1.125 -3.004,-1.125c-1.25,0 -2.342,0.483 -3.267,1.45c-0.929,0.967 -1.392,2.212 -1.392,3.742l0,14.012l-4.425,0l0,-22.725Zm40.808,21.721c1.587,0.975 3.45,1.463 5.579,1.463c2.142,0 4,-0.487 5.583,-1.463c1.583,-0.979 2.817,-2.346 3.692,-4.108c0.879,-1.758 1.317,-3.808 1.317,-6.146c0,-2.358 -0.438,-4.421 -1.317,-6.183c-0.875,-1.767 -2.108,-3.138 -3.692,-4.117c-1.583,-0.975 -3.442,-1.462 -5.583,-1.462c-2.129,0 -3.992,0.487 -5.579,1.462c-1.588,0.979 -2.821,2.35 -3.7,4.117c-0.875,1.762 -1.317,3.825 -1.317,6.183c0,2.338 0.442,4.387 1.317,6.146c0.879,1.762 2.112,3.129 3.7,4.108Zm-301.7,-21.721l4.425,0l0,22.725l-4.425,0l0,-22.725Zm113.267,13.3l0,-13.3l4.442,0l0,22.725l-4.35,0l0,-3.933l-0.237,0c-0.525,1.213 -1.358,2.221 -2.508,3.025c-1.15,0.804 -2.579,1.204 -4.283,1.204c-2.179,0 -3.967,-0.721 -5.363,-2.167c-1.396,-1.446 -2.096,-3.579 -2.096,-6.4l0,-14.454l4.425,0l0,13.921c0,1.55 0.429,2.783 1.287,3.7c0.858,0.917 1.971,1.375 3.342,1.375c0.829,0 1.658,-0.204 2.479,-0.621c0.825,-0.412 1.508,-1.042 2.058,-1.883c0.546,-0.846 0.817,-1.908 0.804,-3.192Zm-89.117,-3.921l11.808,0c-0.012,-1.733 -0.533,-3.171 -1.571,-4.312c-1.033,-1.137 -2.412,-1.708 -4.125,-1.708c-1.196,0 -2.237,0.279 -3.133,0.837c-0.892,0.554 -1.596,1.292 -2.113,2.204c-0.521,0.912 -0.808,1.904 -0.867,2.979Zm159.358,0l-11.808,0c0.058,-1.075 0.346,-2.067 0.867,-2.979c0.517,-0.912 1.221,-1.65 2.113,-2.204c0.896,-0.558 1.938,-0.837 3.129,-0.837c1.717,0 3.096,0.571 4.129,1.708c1.038,1.142 1.558,2.579 1.571,4.312Zm-214.387,10.092c1.392,0 2.538,-0.362 3.442,-1.096c0.9,-0.729 1.571,-1.704 2.012,-2.921c0.438,-1.217 0.658,-2.554 0.658,-4.004c0,-1.45 -0.221,-2.783 -0.658,-4.008c-0.442,-1.225 -1.113,-2.2 -2.012,-2.937c-0.904,-0.733 -2.05,-1.1 -3.442,-1.1c-1.392,0 -2.538,0.367 -3.446,1.1c-0.908,0.737 -1.583,1.712 -2.029,2.937c-0.442,1.225 -0.667,2.558 -0.667,4.008c0,1.45 0.225,2.788 0.667,4.004c0.446,1.217 1.121,2.192 2.029,2.921c0.908,0.733 2.054,1.096 3.446,1.096Zm341.612,-1.096c-0.904,0.733 -2.05,1.096 -3.442,1.096c-1.388,0 -2.538,-0.362 -3.446,-1.096c-0.908,-0.729 -1.583,-1.704 -2.029,-2.921c-0.442,-1.217 -0.663,-2.554 -0.663,-4.004c0,-1.45 0.221,-2.783 0.663,-4.008c0.446,-1.225 1.121,-2.2 2.029,-2.937c0.908,-0.733 2.058,-1.1 3.446,-1.1c1.392,0 2.537,0.367 3.442,1.1c0.904,0.737 1.575,1.712 2.013,2.937c0.438,1.225 0.658,2.558 0.658,4.008c0,1.45 -0.221,2.788 -0.658,4.004c-0.438,1.217 -1.108,2.192 -2.013,2.921Zm-387.05,-1.204c-1.029,-1.483 -1.542,-3.421 -1.542,-5.808c0,-2.375 0.508,-4.288 1.517,-5.733c1.012,-1.446 2.483,-2.167 4.417,-2.167c1.342,0 2.458,0.346 3.346,1.033c0.887,0.692 1.554,1.633 2.004,2.821c0.45,1.188 0.675,2.538 0.675,4.046c0,1.521 -0.229,2.887 -0.683,4.1c-0.454,1.212 -1.125,2.171 -2.017,2.875c-0.896,0.708 -2,1.058 -3.325,1.058c-1.904,0 -3.367,-0.742 -4.392,-2.225Zm324.217,1.783c-0.867,0.483 -1.917,0.725 -3.15,0.725c-1.254,0 -2.283,-0.279 -3.092,-0.838c-0.812,-0.558 -1.217,-1.383 -1.217,-2.479c0,-1.183 0.458,-2.029 1.371,-2.538c0.912,-0.508 2.008,-0.846 3.292,-1.012c0.483,-0.071 1.117,-0.158 1.896,-0.267c0.779,-0.108 1.517,-0.242 2.217,-0.4c0.7,-0.158 1.154,-0.338 1.363,-0.546l0,2.929c0,0.896 -0.229,1.738 -0.688,2.521c-0.458,0.787 -1.121,1.421 -1.992,1.904Z" style="fill:#fff;"/></g><g id="_-russellcamo" serif:id="@russellcamo"><path d="M2832.625,522.35l0,30.3l-4.421,0l0,-30.3l4.421,0Zm10.375,30.3l0,-30.3l-4.425,0l0,30.3l4.425,0Zm-160.883,3.317c3.287,3.283 7.988,4.925 14.1,4.925c1.146,0 2.308,-0.088 3.492,-0.267c1.188,-0.175 2.279,-0.404 3.288,-0.679c1.004,-0.275 1.812,-0.558 2.425,-0.842l-1.033,-3.242c-0.417,0.146 -1.042,0.342 -1.875,0.583c-0.833,0.242 -1.783,0.458 -2.846,0.65c-1.067,0.196 -2.15,0.292 -3.254,0.292c-4.983,0 -8.779,-1.325 -11.388,-3.975c-2.608,-2.646 -3.912,-6.429 -3.912,-11.342c0,-3.137 0.571,-5.867 1.717,-8.188c1.142,-2.325 2.812,-4.121 5.008,-5.396c2.192,-1.271 4.871,-1.908 8.025,-1.908c2.892,0 5.367,0.567 7.429,1.704c2.062,1.133 3.642,2.688 4.742,4.658c1.1,1.975 1.646,4.213 1.633,6.717c0.012,3.208 -0.233,5.558 -0.729,7.058c-0.5,1.5 -1.425,2.25 -2.775,2.25c-0.758,0 -1.346,-0.271 -1.754,-0.812c-0.408,-0.542 -0.613,-1.204 -0.613,-1.983l0,-13.733l-3.642,0l0,1.658l-0.192,0c-0.217,-0.65 -0.904,-1.208 -2.058,-1.679c-1.154,-0.467 -2.504,-0.608 -4.054,-0.421c-1.421,0.167 -2.733,0.663 -3.942,1.479c-1.208,0.821 -2.179,1.938 -2.908,3.35c-0.729,1.417 -1.096,3.096 -1.096,5.042c0,3.037 0.725,5.496 2.175,7.375c1.45,1.879 3.425,2.867 5.921,2.967c1.688,0.067 3.062,-0.225 4.133,-0.883c1.071,-0.654 1.779,-1.417 2.125,-2.283l0.175,0c0.121,0.787 0.454,1.438 1,1.946c0.55,0.508 1.221,0.875 2.012,1.1c0.796,0.229 1.613,0.325 2.45,0.296c1.579,-0.029 2.858,-0.404 3.846,-1.125c0.988,-0.717 1.746,-1.675 2.279,-2.867c0.533,-1.196 0.896,-2.533 1.096,-4.021c0.196,-1.483 0.296,-3.004 0.296,-4.563c0,-2.229 -0.375,-4.346 -1.125,-6.35c-0.75,-2 -1.863,-3.775 -3.337,-5.325c-1.475,-1.55 -3.292,-2.767 -5.45,-3.654c-2.162,-0.887 -4.658,-1.333 -7.488,-1.333c-3.946,0 -7.325,0.767 -10.137,2.296c-2.812,1.529 -4.962,3.704 -6.45,6.533c-1.492,2.825 -2.242,6.179 -2.25,10.067c0.008,6 1.658,10.638 4.942,13.925Zm36.179,-26.042l0,22.725l4.421,0l0,-13.879c0,-1.487 0.517,-2.712 1.542,-3.675c1.025,-0.963 2.321,-1.442 3.892,-1.442c0.463,0 0.921,0.029 1.367,0.096c0.45,0.062 0.763,0.121 0.942,0.171l0,-4.233c-0.217,-0.029 -0.512,-0.054 -0.887,-0.075c-0.375,-0.021 -0.708,-0.029 -0.992,-0.029c-1.333,0 -2.525,0.354 -3.575,1.058c-1.05,0.704 -1.783,1.671 -2.196,2.892l-0.238,0l0,-3.608l-4.275,0Zm53.8,6.258l4.008,-0.712c-0.454,-1.762 -1.387,-3.179 -2.796,-4.246c-1.412,-1.062 -3.346,-1.596 -5.8,-1.596c-1.708,0 -3.221,0.279 -4.542,0.842c-1.325,0.562 -2.358,1.35 -3.108,2.362c-0.75,1.008 -1.125,2.188 -1.125,3.529c0,1.604 0.504,2.942 1.508,4.008c1.008,1.067 2.575,1.833 4.704,2.308l3.85,0.842c2.142,0.475 3.208,1.437 3.208,2.887c0,0.875 -0.433,1.621 -1.3,2.225c-0.867,0.608 -2.029,0.912 -3.479,0.912c-2.721,0 -4.35,-1.125 -4.883,-3.375l-4.275,0.65c0.375,2.013 1.363,3.562 2.958,4.654c1.6,1.092 3.675,1.633 6.229,1.633c1.838,0 3.45,-0.3 4.846,-0.9c1.396,-0.604 2.487,-1.429 3.271,-2.487c0.783,-1.054 1.179,-2.267 1.179,-3.638c0,-3.15 -2.075,-5.2 -6.217,-6.158l-3.608,-0.829c-1.254,-0.296 -2.163,-0.671 -2.733,-1.129c-0.567,-0.458 -0.846,-1.075 -0.833,-1.842c-0.013,-0.879 0.404,-1.596 1.25,-2.154c0.842,-0.558 1.892,-0.838 3.142,-0.838c1.383,0 2.421,0.321 3.117,0.954c0.696,0.637 1.171,1.337 1.429,2.096Zm26.337,-0.712l-4.012,0.712c-0.254,-0.758 -0.729,-1.458 -1.425,-2.096c-0.696,-0.633 -1.733,-0.954 -3.117,-0.954c-1.254,0 -2.3,0.279 -3.146,0.838c-0.842,0.558 -1.258,1.275 -1.25,2.154c-0.008,0.767 0.271,1.383 0.837,1.842c0.567,0.458 1.479,0.833 2.729,1.129l3.613,0.829c4.142,0.958 6.212,3.008 6.212,6.158c0,1.371 -0.392,2.583 -1.175,3.638c-0.783,1.058 -1.875,1.883 -3.271,2.487c-1.396,0.6 -3.012,0.9 -4.846,0.9c-2.554,0 -4.629,-0.542 -6.229,-1.633c-1.596,-1.092 -2.583,-2.642 -2.958,-4.654l4.275,-0.65c0.533,2.25 2.163,3.375 4.883,3.375c1.45,0 2.608,-0.304 3.475,-0.912c0.871,-0.604 1.304,-1.35 1.304,-2.225c0,-1.45 -1.071,-2.413 -3.212,-2.887l-3.846,-0.842c-2.129,-0.475 -3.7,-1.242 -4.704,-2.308c-1.008,-1.067 -1.508,-2.404 -1.508,-4.008c0,-1.342 0.375,-2.521 1.121,-3.529c0.75,-1.012 1.788,-1.8 3.108,-2.362c1.321,-0.562 2.837,-0.842 4.542,-0.842c2.458,0 4.392,0.533 5.8,1.596c1.413,1.067 2.346,2.483 2.8,4.246Zm9.321,16.188c1.617,0.967 3.542,1.45 5.771,1.45c2.475,0 4.546,-0.562 6.212,-1.683c1.667,-1.125 2.754,-2.612 3.258,-4.454l-4.188,-0.754c-0.396,1.075 -1.054,1.883 -1.971,2.425c-0.917,0.542 -2.008,0.813 -3.271,0.813c-1.892,0 -3.425,-0.592 -4.6,-1.775c-1.175,-1.183 -1.792,-2.871 -1.85,-5.058l16.158,0l0,-1.571c0,-2.742 -0.479,-4.95 -1.442,-6.621c-0.963,-1.671 -2.208,-2.892 -3.746,-3.654c-1.533,-0.767 -3.158,-1.146 -4.875,-1.146c-2.108,0 -3.954,0.496 -5.525,1.492c-1.575,0.996 -2.796,2.383 -3.671,4.158c-0.871,1.775 -1.308,3.829 -1.308,6.158c0,2.346 0.438,4.396 1.308,6.146c0.875,1.75 2.121,3.108 3.737,4.075Zm50.767,1.45c-2.2,0 -4.092,-0.5 -5.675,-1.5c-1.583,-1 -2.8,-2.383 -3.646,-4.15c-0.85,-1.767 -1.275,-3.787 -1.275,-6.067c0,-2.317 0.433,-4.358 1.304,-6.125c0.867,-1.767 2.092,-3.15 3.675,-4.146c1.583,-0.996 3.442,-1.492 5.571,-1.492c1.725,0 3.267,0.317 4.617,0.954c1.35,0.633 2.446,1.525 3.279,2.671c0.833,1.142 1.329,2.479 1.488,4.008l-4.308,0c-0.238,-1.067 -0.775,-1.983 -1.621,-2.75c-0.842,-0.771 -1.967,-1.154 -3.379,-1.154c-1.846,0 -3.333,0.713 -4.462,2.138c-1.129,1.425 -1.692,3.354 -1.692,5.792c0,2.475 0.554,4.442 1.671,5.896c1.113,1.454 2.608,2.183 4.483,2.183c1.262,0 2.342,-0.346 3.242,-1.037c0.896,-0.688 1.483,-1.646 1.758,-2.871l4.308,0c-0.158,1.471 -0.637,2.783 -1.438,3.938c-0.8,1.154 -1.867,2.062 -3.204,2.721c-1.333,0.662 -2.9,0.992 -4.696,0.992Zm16.8,-0.754c1.158,0.533 2.458,0.8 3.9,0.8c1.883,0 3.367,-0.387 4.454,-1.167c1.083,-0.783 1.838,-1.596 2.262,-2.442l0.179,0l0,3.104l4.321,0l0,-15.092c0,-1.658 -0.283,-3.004 -0.854,-4.038c-0.567,-1.037 -1.3,-1.837 -2.204,-2.404c-0.9,-0.571 -1.863,-0.958 -2.875,-1.171c-1.017,-0.213 -1.979,-0.317 -2.887,-0.317c-2.05,0 -3.942,0.446 -5.675,1.346c-1.729,0.896 -2.967,2.383 -3.704,4.454l4.158,0.946c0.325,-0.808 0.912,-1.537 1.767,-2.192c0.854,-0.65 2.025,-0.975 3.512,-0.975c1.433,0 2.508,0.354 3.233,1.067c0.725,0.708 1.087,1.712 1.087,3.004l0,0.104c0,0.529 -0.192,0.917 -0.583,1.154c-0.388,0.233 -1.004,0.404 -1.85,0.508c-0.842,0.104 -1.946,0.233 -3.308,0.392c-1.075,0.129 -2.129,0.312 -3.167,0.554c-1.033,0.242 -1.967,0.604 -2.8,1.088c-0.837,0.483 -1.5,1.142 -2,1.971c-0.496,0.825 -0.746,1.888 -0.746,3.179c0,1.492 0.337,2.75 1.021,3.779c0.679,1.033 1.6,1.812 2.758,2.346Zm21.004,-22.429l4.246,0l0,3.7l0.283,0c0.471,-1.254 1.246,-2.233 2.321,-2.938c1.075,-0.708 2.363,-1.058 3.863,-1.058c1.521,0 2.796,0.354 3.825,1.062c1.029,0.713 1.792,1.688 2.287,2.933l0.233,0c0.554,-1.217 1.421,-2.183 2.6,-2.908c1.179,-0.725 2.583,-1.087 4.221,-1.087c2.062,0 3.746,0.646 5.054,1.946c1.308,1.296 1.963,3.242 1.963,5.838l0,15.237l-4.425,0l0,-14.825c0,-1.537 -0.417,-2.654 -1.25,-3.342c-0.833,-0.692 -1.837,-1.037 -3.012,-1.037c-1.438,0 -2.558,0.442 -3.358,1.333c-0.8,0.887 -1.2,2.017 -1.2,3.387l0,14.483l-4.408,0l0,-15.104c0,-1.233 -0.383,-2.225 -1.154,-2.975c-0.767,-0.75 -1.771,-1.125 -3.004,-1.125c-1.25,0 -2.342,0.483 -3.267,1.45c-0.929,0.967 -1.392,2.213 -1.392,3.742l0,14.012l-4.425,0l0,-22.725Zm40.808,21.721c1.587,0.975 3.446,1.463 5.579,1.463c2.142,0 4,-0.487 5.583,-1.463c1.583,-0.979 2.817,-2.346 3.692,-4.108c0.879,-1.758 1.317,-3.808 1.317,-6.146c0,-2.358 -0.438,-4.421 -1.317,-6.183c-0.875,-1.767 -2.108,-3.138 -3.692,-4.117c-1.583,-0.975 -3.442,-1.463 -5.583,-1.463c-2.133,0 -3.992,0.487 -5.579,1.463c-1.588,0.979 -2.821,2.35 -3.7,4.117c-0.875,1.762 -1.317,3.825 -1.317,6.183c0,2.338 0.442,4.387 1.317,6.146c0.879,1.762 2.113,3.129 3.7,4.108Zm-188.433,-8.421l0,-13.3l4.442,0l0,22.725l-4.35,0l0,-3.933l-0.238,0c-0.525,1.212 -1.358,2.221 -2.508,3.025c-1.15,0.804 -2.579,1.204 -4.283,1.204c-2.179,0 -3.971,-0.721 -5.367,-2.167c-1.392,-1.446 -2.092,-3.579 -2.092,-6.4l0,-14.454l4.425,0l0,13.921c0,1.55 0.429,2.783 1.288,3.7c0.858,0.917 1.971,1.375 3.342,1.375c0.829,0 1.654,-0.204 2.479,-0.621c0.825,-0.412 1.508,-1.042 2.058,-1.883c0.546,-0.846 0.817,-1.908 0.804,-3.192Zm70.242,-3.921l-11.808,0c0.058,-1.075 0.346,-2.067 0.863,-2.979c0.521,-0.912 1.225,-1.65 2.117,-2.204c0.896,-0.558 1.938,-0.837 3.129,-0.837c1.717,0 3.096,0.571 4.129,1.708c1.038,1.137 1.558,2.579 1.571,4.312Zm127.225,8.996c-0.904,0.729 -2.05,1.096 -3.442,1.096c-1.387,0 -2.538,-0.367 -3.446,-1.096c-0.908,-0.729 -1.583,-1.704 -2.029,-2.921c-0.442,-1.217 -0.663,-2.554 -0.663,-4.004c0,-1.45 0.221,-2.783 0.663,-4.008c0.446,-1.225 1.121,-2.204 2.029,-2.937c0.908,-0.733 2.058,-1.1 3.446,-1.1c1.392,0 2.538,0.367 3.442,1.1c0.904,0.733 1.575,1.712 2.012,2.937c0.438,1.225 0.658,2.558 0.658,4.008c0,1.45 -0.221,2.788 -0.658,4.004c-0.438,1.217 -1.108,2.192 -2.012,2.921Zm-247.196,-1.442c-0.821,1.15 -2.192,1.725 -4.113,1.725c-1.283,0 -2.304,-0.325 -3.062,-0.979c-0.762,-0.65 -1.304,-1.5 -1.637,-2.55c-0.329,-1.05 -0.5,-2.175 -0.508,-3.367c0.008,-1.708 0.471,-3.15 1.388,-4.337c0.921,-1.183 2.212,-1.775 3.879,-1.775c1.817,0 3.146,0.454 3.988,1.363c0.842,0.908 1.271,2.487 1.279,4.733c0.012,2.308 -0.396,4.038 -1.212,5.188Zm184.363,2.021c-0.867,0.483 -1.917,0.725 -3.15,0.725c-1.254,0 -2.283,-0.279 -3.096,-0.838c-0.808,-0.558 -1.213,-1.383 -1.213,-2.479c0,-1.183 0.458,-2.029 1.371,-2.537c0.913,-0.508 2.008,-0.846 3.292,-1.013c0.483,-0.071 1.113,-0.158 1.892,-0.267c0.779,-0.108 1.521,-0.242 2.221,-0.4c0.7,-0.158 1.154,-0.338 1.363,-0.546l0,2.929c0,0.896 -0.229,1.738 -0.688,2.521c-0.458,0.787 -1.125,1.421 -1.992,1.904Z" style="fill:#fff;"/></g><g id="Shape"><path d="M2574.846,654.375c1.362,2.442 3.375,4.563 5.962,6.067c2.175,1.258 4.517,1.933 6.863,2.1l-6.971,12.146l10.438,0l8.312,-14.483c0.071,2.092 0.437,4.025 1.104,5.796c0.742,1.975 1.788,3.683 3.133,5.117c1.346,1.438 2.942,2.554 4.788,3.367c1.85,0.808 3.879,1.213 6.087,1.213c2.088,0 3.846,-0.333 5.271,-1c1.429,-0.667 2.742,-1.75 3.95,-3.246l0,3.213l8.554,0l0,-43.388l-9.037,0l0,15.633c-1.246,-1.217 -2.571,-2.113 -3.975,-2.7c-1.408,-0.588 -3.054,-0.879 -4.946,-0.879c-2.125,0 -4.104,0.408 -5.933,1.213c-1.333,0.592 -2.529,1.346 -3.596,2.267c0.113,-5.683 -2.775,-11.25 -8.012,-14.292c-7.667,-4.454 -17.471,-1.812 -21.896,5.9c-0.033,0.054 -0.062,0.108 -0.096,0.167c-1.358,-2.446 -3.375,-4.567 -5.962,-6.067c-7.663,-4.454 -17.467,-1.812 -21.892,5.9c-4.429,7.713 -1.8,17.571 5.867,22.025c2.171,1.258 4.517,1.933 6.858,2.1l-6.971,12.146l10.438,0l11.567,-20.15c0.033,-0.054 0.067,-0.108 0.096,-0.163Zm46.767,10.65c-1.446,1.458 -3.296,2.187 -5.542,2.187c-1.087,0 -2.1,-0.196 -3.046,-0.579c-0.942,-0.383 -1.746,-0.917 -2.408,-1.608c-0.662,-0.683 -1.183,-1.5 -1.567,-2.45c-0.383,-0.954 -0.571,-1.992 -0.571,-3.121c0,-1.092 0.188,-2.113 0.571,-3.062c0.383,-0.95 0.912,-1.758 1.596,-2.425c0.683,-0.667 1.496,-1.192 2.442,-1.575c0.942,-0.383 1.975,-0.575 3.1,-0.575c1.083,0 2.092,0.192 3.017,0.575c0.921,0.383 1.725,0.921 2.408,1.608c0.683,0.683 1.217,1.483 1.596,2.392c0.383,0.908 0.575,1.908 0.575,3c0,2.304 -0.725,4.183 -2.171,5.633Zm-39.129,-22.229c2.021,-3.521 6.496,-4.729 10,-2.696c3.5,2.033 4.7,6.537 2.679,10.058c-2.021,3.525 -6.5,4.729 -10,2.696c-3.5,-2.033 -4.704,-6.537 -2.679,-10.058Zm-27.954,0c2.025,-3.521 6.5,-4.729 10.004,-2.696c3.5,2.033 4.7,6.537 2.679,10.058c-2.025,3.525 -6.5,4.729 -10.004,2.696c-3.5,-2.033 -4.7,-6.537 -2.679,-10.058Z" style="fill:#fff;"/></g><g id="Shape-1" serif:id="Shape#1"><path d="M2591.062,502.5c-20.712,0 -37.5,16.787 -37.5,37.5c0,20.713 16.788,37.5 37.5,37.5c20.708,0 37.5,-16.787 37.5,-37.5c0,-20.713 -16.792,-37.5 -37.5,-37.5Zm29.925,35.987c-7.45,-2.183 -14.162,-2.446 -20.129,-1.446c-0.725,-1.617 -1.471,-3.183 -2.238,-4.704c6.304,-2.742 11.883,-6.467 15.475,-11.525c4.042,4.842 6.554,10.975 6.892,17.675Zm-12.462,-22.833c-2.683,4.338 -7.617,7.604 -13.471,10.063c-3.587,-6.179 -7.233,-11.254 -10.238,-15.054c2.017,-0.425 4.104,-0.662 6.246,-0.662c6.517,0 12.538,2.113 17.463,5.654Zm-31.179,-2.304c2.875,3.458 6.679,8.521 10.483,14.883c-8.987,2.6 -18.746,3.762 -25.746,4.121c2.188,-8.275 7.808,-15.154 15.263,-19.004Zm-16.283,26.65c0,-0.033 0.004,-0.062 0.004,-0.096c6.125,-0.267 18.675,-1.263 30.479,-4.946c0.667,1.304 1.321,2.646 1.958,4.029c-12.562,4.613 -20.983,14.488 -25.179,20.533c-4.517,-5.25 -7.263,-12.067 -7.263,-19.521Zm12.829,24.567c3.329,-5.137 10.817,-14.688 22.533,-18.721c2.554,6.687 4.562,14.096 5.587,22.058c-3.404,1.333 -7.083,2.096 -10.95,2.096c-6.387,0 -12.3,-2.021 -17.171,-5.433Zm35.162,-0.617c-1.133,-7.075 -3.008,-13.675 -5.267,-19.762c4.962,-0.55 10.508,-0.067 16.642,1.954c-1.517,7.242 -5.667,13.508 -11.375,17.808Z" style="fill:#fff;stroke:#fff;stroke-width:1.25px;"/></g><g id="I-blend-artistry-and-engineeri1" serif:id="I-blend-artistry-and-engineeri"></g><g id="profilesrussellcamo1" serif:id="profilesrussellcamo"><path d="M2755.613,641.808l0,-3.55l-4.9,0l0,-2.042c0,-1.008 0.229,-1.775 0.688,-2.308c0.458,-0.533 1.225,-0.8 2.304,-0.8c0.462,0 0.858,0.037 1.183,0.117c0.325,0.079 0.592,0.154 0.796,0.225l1.038,-3.583c-0.304,-0.117 -0.775,-0.246 -1.404,-0.392c-0.633,-0.142 -1.396,-0.213 -2.296,-0.213c-1.192,0 -2.304,0.233 -3.329,0.7c-1.025,0.471 -1.85,1.175 -2.479,2.117c-0.625,0.942 -0.938,2.125 -0.938,3.546l0,2.633l-3.508,0l0,3.55l3.508,0l0,19.175l4.438,0l0,-19.175l4.9,0Zm83.642,-12.546l-9.763,36.279l-3.954,0l9.767,-36.279l3.95,0Zm-76.85,5.488c-0.771,0 -1.429,-0.258 -1.975,-0.775c-0.55,-0.521 -0.825,-1.138 -0.825,-1.858c0,-0.729 0.275,-1.354 0.825,-1.871c0.546,-0.517 1.204,-0.779 1.975,-0.779c0.758,0 1.412,0.262 1.967,0.779c0.554,0.517 0.829,1.142 0.829,1.871c0,0.721 -0.275,1.338 -0.829,1.858c-0.554,0.517 -1.208,0.775 -1.967,0.775Zm12.562,26.233l0,-30.3l-4.425,0l0,30.3l4.425,0Zm182.392,-30.3l0,30.3l-4.421,0l0,-30.3l4.421,0Zm10.375,30.3l0,-30.3l-4.425,0l0,30.3l4.425,0Zm-259.767,-22.725l-4.275,0l0,22.725l4.425,0l0,-13.879c0,-1.488 0.512,-2.713 1.538,-3.675c1.025,-0.963 2.321,-1.442 3.892,-1.442c0.462,0 0.921,0.029 1.367,0.096c0.45,0.062 0.762,0.121 0.942,0.171l0,-4.233c-0.217,-0.029 -0.512,-0.054 -0.887,-0.075c-0.375,-0.021 -0.708,-0.029 -0.992,-0.029c-1.333,0 -2.525,0.354 -3.575,1.058c-1.05,0.704 -1.783,1.671 -2.196,2.892l-0.238,0l0,-3.608Zm139.337,0l-4.275,0l0,22.725l4.425,0l0,-13.879c0,-1.488 0.512,-2.713 1.537,-3.675c1.025,-0.963 2.321,-1.442 3.892,-1.442c0.463,0 0.921,0.029 1.367,0.096c0.45,0.062 0.762,0.121 0.942,0.171l0,-4.233c-0.217,-0.029 -0.512,-0.054 -0.887,-0.075c-0.375,-0.021 -0.708,-0.029 -0.992,-0.029c-1.333,0 -2.525,0.354 -3.575,1.058c-1.05,0.704 -1.783,1.671 -2.196,2.892l-0.238,0l0,-3.608Zm-169.329,0l0,31.25l4.425,0l0,-12.058l0.267,0c0.267,0.483 0.646,1.033 1.146,1.654c0.496,0.621 1.179,1.167 2.05,1.629c0.867,0.463 1.992,0.696 3.371,0.696c1.837,0 3.467,-0.471 4.9,-1.404c1.429,-0.937 2.554,-2.287 3.371,-4.05c0.821,-1.758 1.229,-3.863 1.229,-6.308c0,-2.458 -0.413,-4.558 -1.242,-6.304c-0.829,-1.746 -1.962,-3.083 -3.396,-4.008c-1.438,-0.929 -3.071,-1.392 -4.904,-1.392c-1.404,0 -2.533,0.233 -3.396,0.7c-0.867,0.471 -1.533,1.017 -2.012,1.638c-0.479,0.621 -0.85,1.167 -1.117,1.642l-0.371,0l0,-3.683l-4.321,0Zm51.3,23.183c-2.133,0 -3.992,-0.487 -5.579,-1.463c-1.587,-0.979 -2.821,-2.346 -3.7,-4.108c-0.879,-1.758 -1.317,-3.808 -1.317,-6.146c0,-2.358 0.438,-4.421 1.317,-6.183c0.879,-1.767 2.113,-3.138 3.7,-4.117c1.588,-0.975 3.446,-1.462 5.579,-1.462c2.138,0 4,0.487 5.583,1.462c1.583,0.979 2.817,2.35 3.692,4.117c0.879,1.762 1.317,3.825 1.317,6.183c0,2.338 -0.438,4.387 -1.317,6.146c-0.875,1.762 -2.108,3.129 -3.692,4.108c-1.583,0.975 -3.446,1.463 -5.583,1.463Zm61.433,0c-2.229,0 -4.154,-0.483 -5.771,-1.45c-1.617,-0.967 -2.863,-2.325 -3.737,-4.075c-0.871,-1.75 -1.308,-3.8 -1.308,-6.146c0,-2.329 0.438,-4.383 1.308,-6.158c0.875,-1.775 2.1,-3.158 3.671,-4.158c1.575,-0.996 3.417,-1.492 5.525,-1.492c1.717,0 3.342,0.383 4.875,1.146c1.537,0.762 2.783,1.983 3.746,3.654c0.962,1.671 1.442,3.879 1.442,6.621l0,1.571l-16.158,0c0.058,2.188 0.675,3.875 1.85,5.058c1.175,1.183 2.708,1.775 4.604,1.775c1.262,0 2.35,-0.271 3.267,-0.812c0.921,-0.542 1.575,-1.35 1.971,-2.425l4.188,0.754c-0.504,1.842 -1.587,3.329 -3.258,4.454c-1.667,1.125 -3.738,1.683 -6.213,1.683Zm27.7,-16.925l4.008,-0.712c-0.454,-1.763 -1.387,-3.179 -2.796,-4.246c-1.412,-1.062 -3.346,-1.596 -5.8,-1.596c-1.708,0 -3.221,0.279 -4.542,0.842c-1.325,0.562 -2.358,1.35 -3.108,2.363c-0.75,1.008 -1.125,2.188 -1.125,3.529c0,1.604 0.504,2.942 1.508,4.008c1.008,1.067 2.575,1.833 4.708,2.308l3.846,0.842c2.142,0.475 3.208,1.437 3.208,2.887c0,0.875 -0.433,1.621 -1.3,2.225c-0.867,0.608 -2.029,0.912 -3.479,0.912c-2.721,0 -4.35,-1.125 -4.879,-3.375l-4.279,0.65c0.375,2.013 1.363,3.563 2.958,4.654c1.6,1.092 3.675,1.633 6.229,1.633c1.838,0 3.45,-0.3 4.846,-0.9c1.4,-0.604 2.487,-1.429 3.271,-2.488c0.783,-1.054 1.179,-2.267 1.179,-3.637c0,-3.15 -2.075,-5.2 -6.217,-6.158l-3.608,-0.829c-1.254,-0.292 -2.163,-0.671 -2.729,-1.129c-0.571,-0.458 -0.85,-1.075 -0.837,-1.842c-0.013,-0.879 0.404,-1.596 1.25,-2.154c0.842,-0.558 1.892,-0.838 3.146,-0.838c1.379,0 2.417,0.321 3.113,0.954c0.696,0.637 1.171,1.337 1.429,2.096Zm78.421,0l4.008,-0.712c-0.454,-1.763 -1.387,-3.179 -2.796,-4.246c-1.413,-1.062 -3.346,-1.596 -5.8,-1.596c-1.708,0 -3.221,0.279 -4.542,0.842c-1.325,0.562 -2.358,1.35 -3.108,2.363c-0.75,1.008 -1.125,2.188 -1.125,3.529c0,1.604 0.504,2.942 1.508,4.008c1.008,1.067 2.575,1.833 4.704,2.308l3.85,0.842c2.142,0.475 3.208,1.437 3.208,2.887c0,0.875 -0.433,1.621 -1.3,2.225c-0.867,0.608 -2.029,0.912 -3.479,0.912c-2.721,0 -4.35,-1.125 -4.883,-3.375l-4.275,0.65c0.375,2.013 1.363,3.563 2.958,4.654c1.6,1.092 3.675,1.633 6.233,1.633c1.833,0 3.446,-0.3 4.842,-0.9c1.4,-0.604 2.487,-1.429 3.271,-2.488c0.788,-1.054 1.179,-2.267 1.179,-3.637c0,-3.15 -2.075,-5.2 -6.217,-6.158l-3.608,-0.829c-1.254,-0.292 -2.163,-0.671 -2.733,-1.129c-0.567,-0.458 -0.846,-1.075 -0.833,-1.842c-0.013,-0.879 0.404,-1.596 1.25,-2.154c0.842,-0.558 1.892,-0.838 3.142,-0.838c1.383,0 2.421,0.321 3.117,0.954c0.696,0.637 1.171,1.337 1.429,2.096Zm26.337,-0.712l-4.012,0.712c-0.254,-0.758 -0.729,-1.458 -1.425,-2.096c-0.696,-0.633 -1.733,-0.954 -3.117,-0.954c-1.25,0 -2.3,0.279 -3.142,0.838c-0.846,0.558 -1.262,1.275 -1.25,2.154c-0.012,0.767 0.267,1.383 0.833,1.842c0.567,0.458 1.479,0.838 2.729,1.129l3.612,0.829c4.142,0.958 6.213,3.008 6.213,6.158c0,1.371 -0.392,2.583 -1.175,3.637c-0.783,1.058 -1.875,1.883 -3.271,2.488c-1.396,0.6 -3.008,0.9 -4.846,0.9c-2.554,0 -4.629,-0.542 -6.229,-1.633c-1.596,-1.092 -2.583,-2.642 -2.958,-4.654l4.275,-0.65c0.533,2.25 2.163,3.375 4.883,3.375c1.45,0 2.608,-0.304 3.479,-0.912c0.867,-0.604 1.3,-1.35 1.3,-2.225c0,-1.45 -1.071,-2.413 -3.212,-2.887l-3.846,-0.842c-2.129,-0.475 -3.7,-1.242 -4.704,-2.308c-1.008,-1.067 -1.508,-2.404 -1.508,-4.008c0,-1.342 0.375,-2.521 1.125,-3.529c0.75,-1.013 1.783,-1.8 3.104,-2.363c1.325,-0.562 2.838,-0.842 4.542,-0.842c2.458,0 4.392,0.533 5.804,1.596c1.408,1.067 2.342,2.483 2.796,4.246Zm9.321,16.188c1.617,0.967 3.542,1.45 5.771,1.45c2.475,0 4.546,-0.558 6.213,-1.683c1.667,-1.125 2.754,-2.612 3.258,-4.454l-4.188,-0.754c-0.396,1.075 -1.05,1.883 -1.971,2.425c-0.917,0.542 -2.004,0.812 -3.267,0.812c-1.896,0 -3.429,-0.592 -4.604,-1.775c-1.175,-1.183 -1.787,-2.871 -1.85,-5.058l16.158,0l0,-1.571c0,-2.742 -0.479,-4.95 -1.442,-6.621c-0.963,-1.671 -2.208,-2.892 -3.746,-3.654c-1.533,-0.762 -3.158,-1.146 -4.875,-1.146c-2.108,0 -3.95,0.496 -5.525,1.492c-1.575,1 -2.796,2.383 -3.671,4.158c-0.871,1.775 -1.308,3.829 -1.308,6.158c0,2.346 0.438,4.396 1.308,6.146c0.875,1.75 2.121,3.108 3.738,4.075Zm50.767,1.45c-2.2,0 -4.092,-0.5 -5.675,-1.5c-1.583,-1 -2.8,-2.383 -3.646,-4.15c-0.85,-1.767 -1.275,-3.787 -1.275,-6.067c0,-2.317 0.433,-4.358 1.304,-6.125c0.867,-1.767 2.092,-3.146 3.675,-4.146c1.583,-0.996 3.442,-1.492 5.571,-1.492c1.729,0 3.267,0.317 4.617,0.954c1.354,0.633 2.446,1.525 3.279,2.671c0.833,1.142 1.329,2.479 1.488,4.008l-4.308,0c-0.238,-1.062 -0.775,-1.983 -1.621,-2.75c-0.842,-0.771 -1.967,-1.154 -3.379,-1.154c-1.846,0 -3.333,0.713 -4.462,2.137c-1.129,1.425 -1.692,3.354 -1.692,5.792c0,2.475 0.558,4.442 1.671,5.896c1.117,1.454 2.608,2.183 4.483,2.183c1.262,0 2.342,-0.346 3.242,-1.037c0.896,-0.688 1.483,-1.646 1.758,-2.871l4.308,0c-0.158,1.471 -0.638,2.783 -1.438,3.938c-0.8,1.154 -1.867,2.062 -3.204,2.721c-1.333,0.662 -2.9,0.992 -4.696,0.992Zm16.8,-0.754c1.158,0.533 2.458,0.8 3.9,0.8c1.883,0 3.367,-0.387 4.454,-1.167c1.083,-0.783 1.837,-1.596 2.262,-2.442l0.179,0l0,3.104l4.321,0l0,-15.092c0,-1.658 -0.283,-3.004 -0.854,-4.037c-0.567,-1.037 -1.3,-1.837 -2.204,-2.404c-0.9,-0.567 -1.858,-0.958 -2.875,-1.171c-1.017,-0.213 -1.979,-0.317 -2.887,-0.317c-2.05,0 -3.942,0.45 -5.675,1.346c-1.729,0.896 -2.967,2.383 -3.704,4.454l4.158,0.946c0.325,-0.808 0.913,-1.538 1.767,-2.188c0.854,-0.654 2.025,-0.979 3.512,-0.979c1.433,0 2.508,0.354 3.233,1.067c0.725,0.708 1.088,1.713 1.088,3.004l0,0.104c0,0.529 -0.192,0.917 -0.583,1.154c-0.387,0.233 -1.004,0.404 -1.85,0.508c-0.842,0.104 -1.946,0.233 -3.304,0.392c-1.079,0.129 -2.133,0.312 -3.167,0.554c-1.037,0.242 -1.971,0.604 -2.804,1.088c-0.833,0.483 -1.5,1.142 -2,1.971c-0.496,0.829 -0.746,1.887 -0.746,3.179c0,1.492 0.342,2.75 1.021,3.779c0.679,1.033 1.6,1.817 2.758,2.346Zm21.004,-22.429l4.246,0l0,3.7l0.283,0c0.471,-1.254 1.246,-2.233 2.321,-2.938c1.075,-0.708 2.363,-1.058 3.863,-1.058c1.521,0 2.796,0.354 3.825,1.062c1.029,0.713 1.792,1.688 2.287,2.933l0.238,0c0.55,-1.217 1.417,-2.183 2.596,-2.908c1.179,-0.725 2.587,-1.087 4.225,-1.087c2.058,0 3.746,0.646 5.05,1.946c1.308,1.296 1.962,3.242 1.962,5.838l0,15.237l-4.425,0l0,-14.825c0,-1.538 -0.417,-2.654 -1.25,-3.342c-0.833,-0.692 -1.837,-1.037 -3.012,-1.037c-1.438,0 -2.558,0.442 -3.358,1.333c-0.8,0.887 -1.196,2.017 -1.196,3.388l0,14.483l-4.413,0l0,-15.104c0,-1.233 -0.383,-2.225 -1.154,-2.975c-0.767,-0.75 -1.771,-1.125 -3.004,-1.125c-1.25,0 -2.342,0.483 -3.267,1.45c-0.929,0.967 -1.392,2.212 -1.392,3.742l0,14.012l-4.425,0l0,-22.725Zm40.808,21.721c1.587,0.975 3.45,1.463 5.579,1.463c2.142,0 4,-0.487 5.583,-1.463c1.583,-0.979 2.817,-2.346 3.692,-4.108c0.879,-1.758 1.317,-3.808 1.317,-6.146c0,-2.358 -0.438,-4.421 -1.317,-6.183c-0.875,-1.767 -2.108,-3.138 -3.692,-4.117c-1.583,-0.975 -3.442,-1.462 -5.583,-1.462c-2.129,0 -3.992,0.487 -5.579,1.462c-1.588,0.979 -2.821,2.35 -3.7,4.117c-0.875,1.762 -1.317,3.825 -1.317,6.183c0,2.338 0.442,4.387 1.317,6.146c0.879,1.762 2.112,3.129 3.7,4.108Zm-301.7,-21.721l4.425,0l0,22.725l-4.425,0l0,-22.725Zm113.267,13.3l0,-13.3l4.442,0l0,22.725l-4.35,0l0,-3.933l-0.237,0c-0.525,1.213 -1.358,2.221 -2.508,3.025c-1.15,0.804 -2.579,1.204 -4.283,1.204c-2.179,0 -3.967,-0.721 -5.363,-2.167c-1.396,-1.446 -2.096,-3.579 -2.096,-6.4l0,-14.454l4.425,0l0,13.921c0,1.55 0.429,2.783 1.287,3.7c0.858,0.917 1.971,1.375 3.342,1.375c0.829,0 1.658,-0.204 2.479,-0.621c0.825,-0.412 1.508,-1.042 2.058,-1.883c0.546,-0.846 0.817,-1.908 0.804,-3.192Zm-89.117,-3.921l11.808,0c-0.012,-1.733 -0.533,-3.171 -1.571,-4.312c-1.033,-1.137 -2.412,-1.708 -4.125,-1.708c-1.196,0 -2.237,0.279 -3.133,0.837c-0.892,0.554 -1.596,1.292 -2.113,2.204c-0.521,0.912 -0.808,1.904 -0.867,2.979Zm159.358,0l-11.808,0c0.058,-1.075 0.346,-2.067 0.867,-2.979c0.517,-0.912 1.221,-1.65 2.113,-2.204c0.896,-0.558 1.938,-0.837 3.129,-0.837c1.717,0 3.096,0.571 4.129,1.708c1.038,1.142 1.558,2.579 1.571,4.312Zm-214.387,10.092c1.392,0 2.538,-0.362 3.442,-1.096c0.9,-0.729 1.571,-1.704 2.012,-2.921c0.438,-1.217 0.658,-2.554 0.658,-4.004c0,-1.45 -0.221,-2.783 -0.658,-4.008c-0.442,-1.225 -1.113,-2.2 -2.012,-2.937c-0.904,-0.733 -2.05,-1.1 -3.442,-1.1c-1.392,0 -2.538,0.367 -3.446,1.1c-0.908,0.737 -1.583,1.712 -2.029,2.937c-0.442,1.225 -0.667,2.558 -0.667,4.008c0,1.45 0.225,2.788 0.667,4.004c0.446,1.217 1.121,2.192 2.029,2.921c0.908,0.733 2.054,1.096 3.446,1.096Zm341.612,-1.096c-0.904,0.733 -2.05,1.096 -3.442,1.096c-1.388,0 -2.538,-0.362 -3.446,-1.096c-0.908,-0.729 -1.583,-1.704 -2.029,-2.921c-0.442,-1.217 -0.663,-2.554 -0.663,-4.004c0,-1.45 0.221,-2.783 0.663,-4.008c0.446,-1.225 1.121,-2.2 2.029,-2.937c0.908,-0.733 2.058,-1.1 3.446,-1.1c1.392,0 2.537,0.367 3.442,1.1c0.904,0.737 1.575,1.712 2.013,2.937c0.438,1.225 0.658,2.558 0.658,4.008c0,1.45 -0.221,2.788 -0.658,4.004c-0.438,1.217 -1.108,2.192 -2.013,2.921Zm-387.05,-1.204c-1.029,-1.483 -1.542,-3.421 -1.542,-5.808c0,-2.375 0.508,-4.288 1.517,-5.733c1.012,-1.446 2.483,-2.167 4.417,-2.167c1.342,0 2.458,0.346 3.346,1.033c0.887,0.692 1.554,1.633 2.004,2.821c0.45,1.188 0.675,2.538 0.675,4.046c0,1.521 -0.229,2.887 -0.683,4.1c-0.454,1.212 -1.125,2.171 -2.017,2.875c-0.896,0.708 -2,1.058 -3.325,1.058c-1.904,0 -3.367,-0.742 -4.392,-2.225Zm324.217,1.783c-0.867,0.483 -1.917,0.725 -3.15,0.725c-1.254,0 -2.283,-0.279 -3.092,-0.838c-0.812,-0.558 -1.217,-1.383 -1.217,-2.479c0,-1.183 0.458,-2.029 1.371,-2.538c0.912,-0.508 2.008,-0.846 3.292,-1.012c0.483,-0.071 1.117,-0.158 1.896,-0.267c0.779,-0.108 1.517,-0.242 2.217,-0.4c0.7,-0.158 1.154,-0.338 1.363,-0.546l0,2.929c0,0.896 -0.229,1.738 -0.688,2.521c-0.458,0.787 -1.121,1.421 -1.992,1.904Z" style="fill:#fff;"/></g><g id="_-russellcamo1" serif:id="@russellcamo"><path d="M2832.625,522.35l0,30.3l-4.421,0l0,-30.3l4.421,0Zm10.375,30.3l0,-30.3l-4.425,0l0,30.3l4.425,0Zm-160.883,3.317c3.287,3.283 7.988,4.925 14.1,4.925c1.146,0 2.308,-0.088 3.492,-0.267c1.188,-0.175 2.279,-0.404 3.288,-0.679c1.004,-0.275 1.812,-0.558 2.425,-0.842l-1.033,-3.242c-0.417,0.146 -1.042,0.342 -1.875,0.583c-0.833,0.242 -1.783,0.458 -2.846,0.65c-1.067,0.196 -2.15,0.292 -3.254,0.292c-4.983,0 -8.779,-1.325 -11.388,-3.975c-2.608,-2.646 -3.912,-6.429 -3.912,-11.342c0,-3.137 0.571,-5.867 1.717,-8.188c1.142,-2.325 2.812,-4.121 5.008,-5.396c2.192,-1.271 4.871,-1.908 8.025,-1.908c2.892,0 5.367,0.567 7.429,1.704c2.062,1.133 3.642,2.688 4.742,4.658c1.1,1.975 1.646,4.213 1.633,6.717c0.012,3.208 -0.233,5.558 -0.729,7.058c-0.5,1.5 -1.425,2.25 -2.775,2.25c-0.758,0 -1.346,-0.271 -1.754,-0.812c-0.408,-0.542 -0.613,-1.204 -0.613,-1.983l0,-13.733l-3.642,0l0,1.658l-0.192,0c-0.217,-0.65 -0.904,-1.208 -2.058,-1.679c-1.154,-0.467 -2.504,-0.608 -4.054,-0.421c-1.421,0.167 -2.733,0.663 -3.942,1.479c-1.208,0.821 -2.179,1.938 -2.908,3.35c-0.729,1.417 -1.096,3.096 -1.096,5.042c0,3.037 0.725,5.496 2.175,7.375c1.45,1.879 3.425,2.867 5.921,2.967c1.688,0.067 3.062,-0.225 4.133,-0.883c1.071,-0.654 1.779,-1.417 2.125,-2.283l0.175,0c0.121,0.787 0.454,1.438 1,1.946c0.55,0.508 1.221,0.875 2.012,1.1c0.796,0.229 1.613,0.325 2.45,0.296c1.579,-0.029 2.858,-0.404 3.846,-1.125c0.988,-0.717 1.746,-1.675 2.279,-2.867c0.533,-1.196 0.896,-2.533 1.096,-4.021c0.196,-1.483 0.296,-3.004 0.296,-4.563c0,-2.229 -0.375,-4.346 -1.125,-6.35c-0.75,-2 -1.863,-3.775 -3.337,-5.325c-1.475,-1.55 -3.292,-2.767 -5.45,-3.654c-2.162,-0.887 -4.658,-1.333 -7.488,-1.333c-3.946,0 -7.325,0.767 -10.137,2.296c-2.812,1.529 -4.962,3.704 -6.45,6.533c-1.492,2.825 -2.242,6.179 -2.25,10.067c0.008,6 1.658,10.638 4.942,13.925Zm36.179,-26.042l0,22.725l4.421,0l0,-13.879c0,-1.487 0.517,-2.712 1.542,-3.675c1.025,-0.963 2.321,-1.442 3.892,-1.442c0.463,0 0.921,0.029 1.367,0.096c0.45,0.062 0.763,0.121 0.942,0.171l0,-4.233c-0.217,-0.029 -0.512,-0.054 -0.887,-0.075c-0.375,-0.021 -0.708,-0.029 -0.992,-0.029c-1.333,0 -2.525,0.354 -3.575,1.058c-1.05,0.704 -1.783,1.671 -2.196,2.892l-0.238,0l0,-3.608l-4.275,0Zm53.8,6.258l4.008,-0.712c-0.454,-1.762 -1.387,-3.179 -2.796,-4.246c-1.412,-1.062 -3.346,-1.596 -5.8,-1.596c-1.708,0 -3.221,0.279 -4.542,0.842c-1.325,0.562 -2.358,1.35 -3.108,2.362c-0.75,1.008 -1.125,2.188 -1.125,3.529c0,1.604 0.504,2.942 1.508,4.008c1.008,1.067 2.575,1.833 4.704,2.308l3.85,0.842c2.142,0.475 3.208,1.437 3.208,2.887c0,0.875 -0.433,1.621 -1.3,2.225c-0.867,0.608 -2.029,0.912 -3.479,0.912c-2.721,0 -4.35,-1.125 -4.883,-3.375l-4.275,0.65c0.375,2.013 1.363,3.562 2.958,4.654c1.6,1.092 3.675,1.633 6.229,1.633c1.838,0 3.45,-0.3 4.846,-0.9c1.396,-0.604 2.487,-1.429 3.271,-2.487c0.783,-1.054 1.179,-2.267 1.179,-3.638c0,-3.15 -2.075,-5.2 -6.217,-6.158l-3.608,-0.829c-1.254,-0.296 -2.163,-0.671 -2.733,-1.129c-0.567,-0.458 -0.846,-1.075 -0.833,-1.842c-0.013,-0.879 0.404,-1.596 1.25,-2.154c0.842,-0.558 1.892,-0.838 3.142,-0.838c1.383,0 2.421,0.321 3.117,0.954c0.696,0.637 1.171,1.337 1.429,2.096Zm26.337,-0.712l-4.012,0.712c-0.254,-0.758 -0.729,-1.458 -1.425,-2.096c-0.696,-0.633 -1.733,-0.954 -3.117,-0.954c-1.254,0 -2.3,0.279 -3.146,0.838c-0.842,0.558 -1.258,1.275 -1.25,2.154c-0.008,0.767 0.271,1.383 0.837,1.842c0.567,0.458 1.479,0.833 2.729,1.129l3.613,0.829c4.142,0.958 6.212,3.008 6.212,6.158c0,1.371 -0.392,2.583 -1.175,3.638c-0.783,1.058 -1.875,1.883 -3.271,2.487c-1.396,0.6 -3.012,0.9 -4.846,0.9c-2.554,0 -4.629,-0.542 -6.229,-1.633c-1.596,-1.092 -2.583,-2.642 -2.958,-4.654l4.275,-0.65c0.533,2.25 2.163,3.375 4.883,3.375c1.45,0 2.608,-0.304 3.475,-0.912c0.871,-0.604 1.304,-1.35 1.304,-2.225c0,-1.45 -1.071,-2.413 -3.212,-2.887l-3.846,-0.842c-2.129,-0.475 -3.7,-1.242 -4.704,-2.308c-1.008,-1.067 -1.508,-2.404 -1.508,-4.008c0,-1.342 0.375,-2.521 1.121,-3.529c0.75,-1.012 1.788,-1.8 3.108,-2.362c1.321,-0.562 2.837,-0.842 4.542,-0.842c2.458,0 4.392,0.533 5.8,1.596c1.413,1.067 2.346,2.483 2.8,4.246Zm9.321,16.188c1.617,0.967 3.542,1.45 5.771,1.45c2.475,0 4.546,-0.562 6.212,-1.683c1.667,-1.125 2.754,-2.612 3.258,-4.454l-4.188,-0.754c-0.396,1.075 -1.054,1.883 -1.971,2.425c-0.917,0.542 -2.008,0.813 -3.271,0.813c-1.892,0 -3.425,-0.592 -4.6,-1.775c-1.175,-1.183 -1.792,-2.871 -1.85,-5.058l16.158,0l0,-1.571c0,-2.742 -0.479,-4.95 -1.442,-6.621c-0.963,-1.671 -2.208,-2.892 -3.746,-3.654c-1.533,-0.767 -3.158,-1.146 -4.875,-1.146c-2.108,0 -3.954,0.496 -5.525,1.492c-1.575,0.996 -2.796,2.383 -3.671,4.158c-0.871,1.775 -1.308,3.829 -1.308,6.158c0,2.346 0.438,4.396 1.308,6.146c0.875,1.75 2.121,3.108 3.737,4.075Zm50.767,1.45c-2.2,0 -4.092,-0.5 -5.675,-1.5c-1.583,-1 -2.8,-2.383 -3.646,-4.15c-0.85,-1.767 -1.275,-3.787 -1.275,-6.067c0,-2.317 0.433,-4.358 1.304,-6.125c0.867,-1.767 2.092,-3.15 3.675,-4.146c1.583,-0.996 3.442,-1.492 5.571,-1.492c1.725,0 3.267,0.317 4.617,0.954c1.35,0.633 2.446,1.525 3.279,2.671c0.833,1.142 1.329,2.479 1.488,4.008l-4.308,0c-0.238,-1.067 -0.775,-1.983 -1.621,-2.75c-0.842,-0.771 -1.967,-1.154 -3.379,-1.154c-1.846,0 -3.333,0.713 -4.462,2.138c-1.129,1.425 -1.692,3.354 -1.692,5.792c0,2.475 0.554,4.442 1.671,5.896c1.113,1.454 2.608,2.183 4.483,2.183c1.262,0 2.342,-0.346 3.242,-1.037c0.896,-0.688 1.483,-1.646 1.758,-2.871l4.308,0c-0.158,1.471 -0.637,2.783 -1.438,3.938c-0.8,1.154 -1.867,2.062 -3.204,2.721c-1.333,0.662 -2.9,0.992 -4.696,0.992Zm16.8,-0.754c1.158,0.533 2.458,0.8 3.9,0.8c1.883,0 3.367,-0.387 4.454,-1.167c1.083,-0.783 1.838,-1.596 2.262,-2.442l0.179,0l0,3.104l4.321,0l0,-15.092c0,-1.658 -0.283,-3.004 -0.854,-4.038c-0.567,-1.037 -1.3,-1.837 -2.204,-2.404c-0.9,-0.571 -1.863,-0.958 -2.875,-1.171c-1.017,-0.213 -1.979,-0.317 -2.887,-0.317c-2.05,0 -3.942,0.446 -5.675,1.346c-1.729,0.896 -2.967,2.383 -3.704,4.454l4.158,0.946c0.325,-0.808 0.912,-1.537 1.767,-2.192c0.854,-0.65 2.025,-0.975 3.512,-0.975c1.433,0 2.508,0.354 3.233,1.067c0.725,0.708 1.087,1.712 1.087,3.004l0,0.104c0,0.529 -0.192,0.917 -0.583,1.154c-0.388,0.233 -1.004,0.404 -1.85,0.508c-0.842,0.104 -1.946,0.233 -3.308,0.392c-1.075,0.129 -2.129,0.312 -3.167,0.554c-1.033,0.242 -1.967,0.604 -2.8,1.088c-0.837,0.483 -1.5,1.142 -2,1.971c-0.496,0.825 -0.746,1.888 -0.746,3.179c0,1.492 0.337,2.75 1.021,3.779c0.679,1.033 1.6,1.812 2.758,2.346Zm21.004,-22.429l4.246,0l0,3.7l0.283,0c0.471,-1.254 1.246,-2.233 2.321,-2.938c1.075,-0.708 2.363,-1.058 3.863,-1.058c1.521,0 2.796,0.354 3.825,1.062c1.029,0.713 1.792,1.688 2.287,2.933l0.233,0c0.554,-1.217 1.421,-2.183 2.6,-2.908c1.179,-0.725 2.583,-1.087 4.221,-1.087c2.062,0 3.746,0.646 5.054,1.946c1.308,1.296 1.963,3.242 1.963,5.838l0,15.237l-4.425,0l0,-14.825c0,-1.537 -0.417,-2.654 -1.25,-3.342c-0.833,-0.692 -1.837,-1.037 -3.012,-1.037c-1.438,0 -2.558,0.442 -3.358,1.333c-0.8,0.887 -1.2,2.017 -1.2,3.387l0,14.483l-4.408,0l0,-15.104c0,-1.233 -0.383,-2.225 -1.154,-2.975c-0.767,-0.75 -1.771,-1.125 -3.004,-1.125c-1.25,0 -2.342,0.483 -3.267,1.45c-0.929,0.967 -1.392,2.213 -1.392,3.742l0,14.012l-4.425,0l0,-22.725Zm40.808,21.721c1.587,0.975 3.446,1.463 5.579,1.463c2.142,0 4,-0.487 5.583,-1.463c1.583,-0.979 2.817,-2.346 3.692,-4.108c0.879,-1.758 1.317,-3.808 1.317,-6.146c0,-2.358 -0.438,-4.421 -1.317,-6.183c-0.875,-1.767 -2.108,-3.138 -3.692,-4.117c-1.583,-0.975 -3.442,-1.463 -5.583,-1.463c-2.133,0 -3.992,0.487 -5.579,1.463c-1.588,0.979 -2.821,2.35 -3.7,4.117c-0.875,1.762 -1.317,3.825 -1.317,6.183c0,2.338 0.442,4.387 1.317,6.146c0.879,1.762 2.113,3.129 3.7,4.108Zm-188.433,-8.421l0,-13.3l4.442,0l0,22.725l-4.35,0l0,-3.933l-0.238,0c-0.525,1.212 -1.358,2.221 -2.508,3.025c-1.15,0.804 -2.579,1.204 -4.283,1.204c-2.179,0 -3.971,-0.721 -5.367,-2.167c-1.392,-1.446 -2.092,-3.579 -2.092,-6.4l0,-14.454l4.425,0l0,13.921c0,1.55 0.429,2.783 1.288,3.7c0.858,0.917 1.971,1.375 3.342,1.375c0.829,0 1.654,-0.204 2.479,-0.621c0.825,-0.412 1.508,-1.042 2.058,-1.883c0.546,-0.846 0.817,-1.908 0.804,-3.192Zm70.242,-3.921l-11.808,0c0.058,-1.075 0.346,-2.067 0.863,-2.979c0.521,-0.912 1.225,-1.65 2.117,-2.204c0.896,-0.558 1.938,-0.837 3.129,-0.837c1.717,0 3.096,0.571 4.129,1.708c1.038,1.137 1.558,2.579 1.571,4.312Zm127.225,8.996c-0.904,0.729 -2.05,1.096 -3.442,1.096c-1.387,0 -2.538,-0.367 -3.446,-1.096c-0.908,-0.729 -1.583,-1.704 -2.029,-2.921c-0.442,-1.217 -0.663,-2.554 -0.663,-4.004c0,-1.45 0.221,-2.783 0.663,-4.008c0.446,-1.225 1.121,-2.204 2.029,-2.937c0.908,-0.733 2.058,-1.1 3.446,-1.1c1.392,0 2.538,0.367 3.442,1.1c0.904,0.733 1.575,1.712 2.012,2.937c0.438,1.225 0.658,2.558 0.658,4.008c0,1.45 -0.221,2.788 -0.658,4.004c-0.438,1.217 -1.108,2.192 -2.012,2.921Zm-247.196,-1.442c-0.821,1.15 -2.192,1.725 -4.113,1.725c-1.283,0 -2.304,-0.325 -3.062,-0.979c-0.762,-0.65 -1.304,-1.5 -1.637,-2.55c-0.329,-1.05 -0.5,-2.175 -0.508,-3.367c0.008,-1.708 0.471,-3.15 1.388,-4.337c0.921,-1.183 2.212,-1.775 3.879,-1.775c1.817,0 3.146,0.454 3.988,1.363c0.842,0.908 1.271,2.487 1.279,4.733c0.012,2.308 -0.396,4.038 -1.212,5.188Zm184.363,2.021c-0.867,0.483 -1.917,0.725 -3.15,0.725c-1.254,0 -2.283,-0.279 -3.096,-0.838c-0.808,-0.558 -1.213,-1.383 -1.213,-2.479c0,-1.183 0.458,-2.029 1.371,-2.537c0.913,-0.508 2.008,-0.846 3.292,-1.013c0.483,-0.071 1.113,-0.158 1.892,-0.267c0.779,-0.108 1.521,-0.242 2.221,-0.4c0.7,-0.158 1.154,-0.338 1.363,-0.546l0,2.929c0,0.896 -0.229,1.738 -0.688,2.521c-0.458,0.787 -1.125,1.421 -1.992,1.904Z" style="fill:#fff;"/></g><g id="Shape1" serif:id="Shape"><path d="M2574.846,654.375c1.362,2.442 3.375,4.563 5.962,6.067c2.175,1.258 4.517,1.933 6.863,2.1l-6.971,12.146l10.438,0l8.312,-14.483c0.071,2.092 0.437,4.025 1.104,5.796c0.742,1.975 1.788,3.683 3.133,5.117c1.346,1.438 2.942,2.554 4.788,3.367c1.85,0.808 3.879,1.213 6.087,1.213c2.088,0 3.846,-0.333 5.271,-1c1.429,-0.667 2.742,-1.75 3.95,-3.246l0,3.213l8.554,0l0,-43.388l-9.037,0l0,15.633c-1.246,-1.217 -2.571,-2.113 -3.975,-2.7c-1.408,-0.588 -3.054,-0.879 -4.946,-0.879c-2.125,0 -4.104,0.408 -5.933,1.213c-1.333,0.592 -2.529,1.346 -3.596,2.267c0.113,-5.683 -2.775,-11.25 -8.012,-14.292c-7.667,-4.454 -17.471,-1.812 -21.896,5.9c-0.033,0.054 -0.062,0.108 -0.096,0.167c-1.358,-2.446 -3.375,-4.567 -5.962,-6.067c-7.663,-4.454 -17.467,-1.812 -21.892,5.9c-4.429,7.713 -1.8,17.571 5.867,22.025c2.171,1.258 4.517,1.933 6.858,2.1l-6.971,12.146l10.438,0l11.567,-20.15c0.033,-0.054 0.067,-0.108 0.096,-0.163Zm46.767,10.65c-1.446,1.458 -3.296,2.187 -5.542,2.187c-1.087,0 -2.1,-0.196 -3.046,-0.579c-0.942,-0.383 -1.746,-0.917 -2.408,-1.608c-0.662,-0.683 -1.183,-1.5 -1.567,-2.45c-0.383,-0.954 -0.571,-1.992 -0.571,-3.121c0,-1.092 0.188,-2.113 0.571,-3.062c0.383,-0.95 0.912,-1.758 1.596,-2.425c0.683,-0.667 1.496,-1.192 2.442,-1.575c0.942,-0.383 1.975,-0.575 3.1,-0.575c1.083,0 2.092,0.192 3.017,0.575c0.921,0.383 1.725,0.921 2.408,1.608c0.683,0.683 1.217,1.483 1.596,2.392c0.383,0.908 0.575,1.908 0.575,3c0,2.304 -0.725,4.183 -2.171,5.633Zm-39.129,-22.229c2.021,-3.521 6.496,-4.729 10,-2.696c3.5,2.033 4.7,6.537 2.679,10.058c-2.021,3.525 -6.5,4.729 -10,2.696c-3.5,-2.033 -4.704,-6.537 -2.679,-10.058Zm-27.954,0c2.025,-3.521 6.5,-4.729 10.004,-2.696c3.5,2.033 4.7,6.537 2.679,10.058c-2.025,3.525 -6.5,4.729 -10.004,2.696c-3.5,-2.033 -4.7,-6.537 -2.679,-10.058Z" style="fill:#fff;"/></g><g id="Shape-11" serif:id="Shape#1"><path d="M2591.062,502.5c-20.712,0 -37.5,16.787 -37.5,37.5c0,20.713 16.788,37.5 37.5,37.5c20.708,0 37.5,-16.787 37.5,-37.5c0,-20.713 -16.792,-37.5 -37.5,-37.5Zm29.925,35.987c-7.45,-2.183 -14.162,-2.446 -20.129,-1.446c-0.725,-1.617 -1.471,-3.183 -2.238,-4.704c6.304,-2.742 11.883,-6.467 15.475,-11.525c4.042,4.842 6.554,10.975 6.892,17.675Zm-12.462,-22.833c-2.683,4.338 -7.617,7.604 -13.471,10.063c-3.587,-6.179 -7.233,-11.254 -10.238,-15.054c2.017,-0.425 4.104,-0.662 6.246,-0.662c6.517,0 12.538,2.113 17.463,5.654Zm-31.179,-2.304c2.875,3.458 6.679,8.521 10.483,14.883c-8.987,2.6 -18.746,3.762 -25.746,4.121c2.188,-8.275 7.808,-15.154 15.263,-19.004Zm-16.283,26.65c0,-0.033 0.004,-0.062 0.004,-0.096c6.125,-0.267 18.675,-1.263 30.479,-4.946c0.667,1.304 1.321,2.646 1.958,4.029c-12.562,4.613 -20.983,14.488 -25.179,20.533c-4.517,-5.25 -7.263,-12.067 -7.263,-19.521Zm12.829,24.567c3.329,-5.137 10.817,-14.688 22.533,-18.721c2.554,6.687 4.562,14.096 5.587,22.058c-3.404,1.333 -7.083,2.096 -10.95,2.096c-6.387,0 -12.3,-2.021 -17.171,-5.433Zm35.162,-0.617c-1.133,-7.075 -3.008,-13.675 -5.267,-19.762c4.962,-0.55 10.508,-0.067 16.642,1.954c-1.517,7.242 -5.667,13.508 -11.375,17.808Z" style="fill:#fff;stroke:#fff;stroke-width:1.25px;"/></g></g></g></g></svg>
